SplineFontDB: 3.0
FontName: Jinko
FullName: Jinko Book
FamilyName: Jinko
Weight: Book
Copyright: 
Version: 0.1
FONDName: Kinjo
ItalicAngle: 0
UnderlinePosition: -205
UnderlineWidth: 102
Ascent: 1638
Descent: 410
UFOAscent: 1521
UFODescent: -414
LayerCount: 2
Layer: 0 0 "Back"  1
Layer: 1 0 "Fore"  0
NeedsXUIDChange: 1
FSType: 0
OS2Version: 0
OS2_WeightWidthSlopeOnly: 0
OS2_UseTypoMetrics: 1
CreationTime: 1335513405
ModificationTime: 1336257627
PfmFamily: 33
TTFWeight: 400
TTFWidth: 5
LineGap: 0
VLineGap: 0
OS2TypoAscent: 1901
OS2TypoAOffset: 0
OS2TypoDescent: -483
OS2TypoDOffset: 0
OS2TypoLinegap: 0
OS2WinAscent: 1901
OS2WinAOffset: 0
OS2WinDescent: 483
OS2WinDOffset: 0
HheadAscent: 1901
HheadAOffset: 1
HheadDescent: -483
HheadDOffset: 1
OS2Vendor: 'newt'
OS2CodePages: 00000001.00000000
Lookup: 258 0 0 "'kern' Horizontal Kerning lookup 0"  {"'kern' Horizontal Kerning lookup 0 subtable"  } ['kern' ('DFLT' <'dflt' > ) ]
Lookup: 258 0 0 "'kern' Horizontal Kerning in Latin lookup 0"  {"'kern' Horizontal Kerning in Latin lookup 0 subtable"  } ['kern' ('latn' <'dflt' > ) ]
Lookup: 258 0 0 "kernHorizontalKerninglookup0"  {"kernHorizontalKerninglookup0 subtable"  } ['kern' ('DFLT' <'dflt' > ) ]
Lookup: 258 0 0 "kernHorizontalKerninginLatinloo"  {"kernHorizontalKerninginLatinloo subtable"  } ['kern' ('latn' <'dflt' > ) ]
MarkAttachClasses: 1
DEI: 91125
LangName: 1033 "" "" "" "" "" "Version 0.1" "" "" "" "" "" "" "" "" "" "" "" "" "Jinko Bold" 
PickledData: "(dp1
S'org.robofab.glyphOrder'
p2
(S'.notdef'
S'space'
S'exclam'
S'quotedbl'
S'numbersign'
S'dollar'
S'percent'
S'ampersand'
S'quoteright'
S'parenleft'
S'parenright'
S'asterisk'
S'plus'
S'comma'
S'hyphen'
S'period'
S'slash'
S'zero'
S'one'
S'two'
S'three'
S'four'
S'five'
S'six'
S'seven'
S'eight'
S'nine'
S'colon'
S'semicolon'
S'less'
S'equal'
S'greater'
S'question'
S'at'
S'A'
S'B'
S'C'
S'D'
S'E'
S'F'
S'G'
S'H'
S'I'
S'J'
S'K'
S'L'
S'M'
S'N'
S'O'
S'P'
S'Q'
S'R'
S'S'
S'T'
S'U'
S'V'
S'W'
S'X'
S'Y'
S'Z'
S'bracketleft'

StartChar: A
Encoding: 256 65 0
Width: 1406
VWidth: 0
GlyphClass: 1
Flags: HW
HStem: 0 21G<-13.5237 382.51 1016.11 1419.09> 282 271<549.502 850.049> 1459 20G<502.357 902.217>
DStem2: -13.5237 0 376.186 0 0.33336 0.9428<129.914 425.506 709.058 921.438> 509.429 1479 698.774 1030 0.33336 0.9428<-859.674 -360.197> 895.131 1479 699.776 1030 0.333927 -0.942599<357.992 857.792> 1419.09 0 850.049 553 0.333927 -0.942599<-1211.07 -711.274 -427.729 -369.513>
LayerCount: 2
Fore
SplineSet
-13.5 0 m 1
 509.5 1479 l 1
 895.5 1479 l 1
 1419.5 0 l 1
 1022.5 0 l 1
 934.5 282 l 1
 465.5 282 l 1
 376.5 0 l 1
 -13.5 0 l 1
850.5 553 m 1
 699.5 1030 l 1
 698.5 1030 l 1
 549.5 553 l 1
 850.5 553 l 1
EndSplineSet
EndChar

StartChar: AE
Encoding: 257 198 1
Width: 2054
VWidth: 0
GlyphClass: 1
Flags: HW
HStem: 0 286<1311.69 1970.89> 337 280<619.128 927.69> 635 282<1311.69 1886.74> 1193 286<1311.69 1971.89>
VStem: 928 384<286 337 617 635 917 1193>
LayerCount: 2
Fore
SplineSet
1971 0 m 1
 928 0 l 1
 928 337 l 1
 505 337 l 1
 367 0 l 1
 -30 0 l 1
 615 1479 l 1
 1972 1479 l 1
 1972 1193 l 1
 1312 1193 l 1
 1312 917 l 1
 1887 917 l 1
 1887 635 l 1
 1312 635 l 1
 1312 286 l 1
 1971 286 l 1
 1971 0 l 1
928 617 m 1
 928 1208 l 1
 870 1208 l 1
 619 617 l 1
 928 617 l 1
EndSplineSet
EndChar

StartChar: B
Encoding: 264 66 8
Width: 1408
VWidth: 0
GlyphClass: 1
Flags: W
PickledData: "(dp1
S'com.fontlab.hintData'
p2
(dp3
S'vhints'
p4
((dp5
S'position'
p6
I890
sS'width'
p7
I388
s(dp8
g6
I953
sg7
I394
stp9
sS'hhints'
p10
((dp11
g6
I0
sg7
I277
s(dp12
g6
I627
sg7
I257
s(dp13
g6
I1206
sg7
I273
stp14
ss."
HStem: 0 277<530 888.095> 627 257<530 843.329> 1206 273<530 843.84>
VStem: 147 383<277 627 884 1206> 891 356<931.949 1156.69> 954 394<340.97 564.845>
LayerCount: 2
Fore
SplineSet
1348 441 m 0xf4
 1348 118 1088 0 751 0 c 2
 147 0 l 1
 147 1479 l 1
 556 1479 l 2
 988.950207469 1479 1247 1418.10003662 1247 1078 c 0xf8
 1247 956.828660436 1189.88018433 844.566978193 1062 792 c 1
 1062 785 l 1
 1236 748 1348 623 1348 441 c 0xf4
954 454 m 0xf4
 954 619.047739275 782.150514823 627 597 627 c 2
 530 627 l 1
 530 277 l 1
 715 277 l 2
 850 277 954 329 954 454 c 0xf4
891 1048 m 0xf8
 891 1184 799 1206 591 1206 c 2
 530 1206 l 1
 530 884 l 1
 579 884 l 2
 800 884 891 906 891 1048 c 0xf8
EndSplineSet
EndChar

StartChar: C
Encoding: 265 67 9
Width: 1326
VWidth: 0
GlyphClass: 1
Flags: HW
PickledData: "(dp1
S'com.fontlab.hintData'
p2
(dp3
S'vhints'
p4
((dp5
S'position'
p6
I70
sS'width'
p7
I394
stp8
sS'hhints'
p9
((dp10
g6
I-26
sg7
I286
s(dp11
g6
I1213
sg7
I286
stp12
ss."
HStem: -26 286<658.421 1080.75> 1096 21G<1154.85 1220.64> 1213 286<661.399 1080.41>
VStem: 70 394<468.852 992.33>
LayerCount: 2
Fore
SplineSet
864 260 m 0
 1054 260 1226 377 1226 377 c 1
 1292 103 l 1
 1143 18 1010 -26 817 -26 c 0
 317 -26 70 253 70 740 c 0
 70 1231 313 1499 824 1499 c 0
 1013 1499 1154 1458 1291 1388 c 1
 1215 1096 l 1
 1215 1096 1067 1213 859 1213 c 0
 591 1213 464 1041 464 737 c 0
 464 426 582 260 864 260 c 0
EndSplineSet
EndChar

StartChar: D
Encoding: 267 68 11
Width: 1513
VWidth: 0
GlyphClass: 1
Flags: HW
PickledData: "(dp1
S'com.fontlab.hintData'
p2
(dp3
S'vhints'
p4
((dp5
S'position'
p6
I147
sS'width'
p7
I385
s(dp8
g6
I1053
sg7
I392
stp9
sS'hhints'
p10
((dp11
g6
I0
sg7
I283
s(dp12
g6
I1198
sg7
I282
stp13
ss."
HStem: 0 283<532.268 876.508> 1198 282<532.268 874.642>
VStem: 147 385<283 1198> 1054 392<462.964 997.123>
LayerCount: 2
Fore
SplineSet
1446 738 m 0
 1446 182 1124 0 608 0 c 2
 147 0 l 1
 147 1480 l 1
 602 1480 l 2
 1127 1480 1446 1290 1446 738 c 0
1054 737 m 0
 1054 1052 933 1198 709 1198 c 2
 532 1198 l 1
 532 283 l 1
 645 283 l 2
 933 283 1054 398 1054 737 c 0
EndSplineSet
EndChar

StartChar: Delta
Encoding: 268 8710 12
Width: 1164
VWidth: 0
GlyphClass: 1
Flags: HW
HStem: 0 168<254.464 902.644>
DStem2: 703.281 1460 585.066 1204 0.292651 -0.956219<210.196 1293.78>
LayerCount: 2
Fore
SplineSet
254 168 m 1
 903 168 l 1
 691 831 l 1
 663 946 603 1110 585 1204 c 1
 579 1204 l 1
 562 1122 509 975 480 858 c 1
 254 168 l 1
53 0 m 1
 53 127 l 1
 472 1460 l 1
 703 1460 l 1
 1110 131 l 1
 1110 0 l 1
 53 0 l 1
EndSplineSet
EndChar

StartChar: E
Encoding: 269 69 13
Width: 1263
VWidth: 0
GlyphClass: 1
Flags: HW
HStem: 0 286<530.268 1180.45> 635 282<530.268 1095.3> 1193 286<530.268 1181.45>
VStem: 147 383<286 635 917 1193>
LayerCount: 2
Fore
SplineSet
1180 0 m 1
 147 0 l 1
 147 1479 l 1
 1181 1479 l 1
 1181 1193 l 1
 530 1193 l 1
 530 917 l 1
 1095 917 l 1
 1095 635 l 1
 530 635 l 1
 530 286 l 1
 1180 286 l 1
 1180 0 l 1
EndSplineSet
EndChar

StartChar: Eth
Encoding: 274 208 18
Width: 1291
VWidth: 0
GlyphClass: 1
Flags: HW
PickledData: "(dp1
S'com.fontlab.hintData'
p2
(dp3
S'vhints'
p4
((dp5
S'position'
p6
I965
sS'width'
p7
I221
stp8
sS'hhints'
p9
((dp10
g6
I0
sg7
I209
s(dp11
g6
I1249
sg7
I209
stp12
ss."
HStem: 0 283<532.268 876.508> 637 197<0 703.788> 1198 282<532.268 874.642>
VStem: 147 385<283 1198> 1054 392<462.964 997.123>
LayerCount: 2
Fore
SplineSet
704 637 m 5
 0 637 l 1
 0 834 l 1
 704 834 l 5
 704 637 l 5
EndSplineSet
Refer: 11 68 N 1 0 0 1 0 0 2
EndChar

StartChar: Euro
Encoding: 275 8364 19
Width: 1246
VWidth: 0
GlyphClass: 1
Flags: HW
PickledData: "(dp1
S'com.fontlab.hintData'
p2
(dp3
S'hhints'
p4
((dp5
S'position'
p6
I1225
sS'width'
p7
I277
stp8
ss."
HStem: -24 21G<608.108 859.566> 468 197<18.0328 92.1679 530.967 937.708> 789 196<18.0328 89.1624 520.949 1004.83> 1096 21G<1164.12 1177.14> 1225 277<657.6 973.162>
LayerCount: 2
Fore
SplineSet
1177 60 m 1
 1065 12 935 -14 783 -24 c 1
 432 -24 206 127 123 468 c 1
 -25 468 l 1
 18 665 l 1
 92 665 l 1
 89 689 89 715 89 740 c 2
 89 789 l 1
 -25 789 l 1
 18 985 l 1
 116 985 l 1
 187 1312 414 1502 766 1502 c 0
 909 1502 1053 1465 1177 1415 c 1
 1177 1096 l 1
 1151 1110 1115 1122 1064 1122 c 1
 970 1192 897 1225 836 1225 c 0
 668 1225 573 1147 521 985 c 1
 1046 985 l 1
 1005 789 l 1
 480 789 l 1
 480 740 l 2
 480 714 480 690 483 665 c 1
 980 665 l 1
 938 468 l 1
 531 468 l 1
 585 329 672 263 813 254 c 1
 870 252 960 287 1064 356 c 1
 1115 356 1150 367 1177 381 c 1
 1177 60 l 1
EndSplineSet
EndChar

StartChar: F
Encoding: 276 70 20
Width: 1213
VWidth: 0
GlyphClass: 1
Flags: HW
HStem: 0 21G<147.268 530.268> 616 280<530.268 1122.35> 1193 286<530.268 1179.45>
VStem: 147 383<0 616 896 1193>
LayerCount: 2
Fore
SplineSet
1179 1193 m 1
 530 1193 l 1
 530 896 l 1
 1122 896 l 1
 1122 616 l 1
 530 616 l 1
 530 0 l 1
 147 0 l 1
 147 1479 l 1
 1179 1479 l 1
 1179 1193 l 1
EndSplineSet
EndChar

StartChar: G
Encoding: 277 71 21
Width: 1472
VWidth: 0
GlyphClass: 1
Flags: W
PickledData: "(dp1
S'com.fontlab.hintData'
p2
(dp3
S'vhints'
p4
((dp5
S'position'
p6
I70
sS'width'
p7
I394
stp8
sS'hhints'
p9
((dp10
g6
I-23
sg7
I285
s(dp11
g6
I1210
sg7
I293
stp12
ss."
HStem: -23 285<638.136 974.266> 549 282<707 980> 1210 293<657.44 1097.96>
VStem: 70 394<471.063 1000.73> 980 373<273.332 549>
LayerCount: 2
Fore
SplineSet
464 745 m 0
 464 435 573 262 827 262 c 0
 887 262 958 274 980 289 c 1
 980 549 l 1
 707 549 l 1
 707 831 l 1
 1353 831 l 1
 1353 141 l 1
 1278 54 1037 -23 810 -23 c 0
 322 -23 70 269 70 741 c 0
 70 1234 325 1503 807 1503 c 0
 1078 1503 1199 1443 1348 1353 c 1
 1273 1075 l 2
 1274 1077 1091 1210 876 1210 c 0
 579 1210 464 1049 464 745 c 0
EndSplineSet
EndChar

StartChar: H
Encoding: 278 72 22
Width: 1550
VWidth: 0
GlyphClass: 1
Flags: W
HStem: 0 21G<158 473 1103 1418> 685 231<473 1103>
VStem: 158 315<0 685 916 1575> 1103 315<0 685 916 1575>
LayerCount: 2
Fore
SplineSet
1418 0 m 1
 1103 0 l 1
 1103 685 l 1
 473 685 l 1
 473 0 l 1
 158 0 l 1
 158 1575 l 1
 473 1575 l 1
 473 916 l 1
 1103 916 l 1
 1103 1575 l 1
 1418 1575 l 1
 1418 0 l 1
EndSplineSet
EndChar

StartChar: I
Encoding: 279 73 23
Width: 908
VWidth: 0
GlyphClass: 1
Flags: HW
HStem: 0 256<109 262 646 799> 1222 257<109 262 646 799>
VStem: 109 690<0 256 1222 1479>
LayerCount: 2
Fore
SplineSet
799 0 m 1
 109 0 l 1
 109 256 l 1
 262 256 l 1
 262 1222 l 1
 109 1222 l 1
 109 1479 l 1
 799 1479 l 1
 799 1222 l 1
 646 1222 l 1
 646 256 l 1
 799 256 l 1
 799 0 l 1
EndSplineSet
EndChar

StartChar: J
Encoding: 284 74 28
Width: 1083
VWidth: 0
GlyphClass: 1
Flags: W
PickledData: "(dp1
S'com.fontlab.hintData'
p2
(dp3
S'vhints'
p4
((dp5
S'position'
p6
I570
sS'width'
p7
I385
stp8
sS'hhints'
p9
((dp10
g6
I-20
sg7
I290
stp11
ss."
HStem: -20 297.76<101.282 459.923> 1172 307<325 571>
VStem: 571 385<398.909 1172>
LayerCount: 2
Fore
SplineSet
956 453 m 2
 956 157 716 -20 383 -20 c 0
 203 -20 79 16 -6 67 c 1
 59 339 l 1
 149.276291616 300.310160736 235.936988681 277.759621038 311.467590351 277.759621038 c 0
 463.899912603 277.759621038 571 369.606665067 571 606 c 2
 571 1172 l 1
 325 1172 l 1
 325 1479 l 1
 956 1479 l 1
 956 453 l 2
EndSplineSet
EndChar

StartChar: K
Encoding: 285 75 29
Width: 1440
VWidth: 0
GlyphClass: 1
Flags: HW
PickledData: "(dp1
S'com.fontlab.hintData'
p2
(dp3
S'vhints'
p4
((dp5
S'position'
p6
I1004
sS'width'
p7
I443
s(dp8
g6
I1019
sg7
I457
stp9
ss."
HStem: 0 21G<146.266 531.266 971.044 1477.13> 1459 20G<146.266 531.266 949.027 1448.13>
VStem: 146 385<0 477 816 1479> 1005 443<1036 1479> 1020 457<0 457>
DStem2: 956.04 832 653.489 627 0.530797 -0.847499<13.1442 729.982>
LayerCount: 2
Fore
SplineSet
1477 0 m 1xe8
 1020 0 l 1xe8
 922 169 823 337 724 505 c 1
 653 627 l 1
 531 477 l 1
 531 0 l 1
 146 0 l 1
 146 1479 l 1
 531 1479 l 1
 531 816 l 1
 532 816 l 1
 669 1005 l 1
 780 1163 893 1321 1005 1479 c 1
 1448 1479 l 1xf0
 956 832 l 1
 1477 0 l 1xe8
EndSplineSet
EndChar

StartChar: L
Encoding: 286 76 30
Width: 1221
VWidth: 0
GlyphClass: 1
Flags: HW
HStem: 0 286<532.268 1178.45> 1459 20G<147.268 532.268>
VStem: 147 385<286 1479>
LayerCount: 2
Fore
SplineSet
1178 0 m 1
 147 0 l 1
 147 1479 l 1
 532 1479 l 1
 532 286 l 1
 1178 286 l 1
 1178 0 l 1
EndSplineSet
EndChar

StartChar: Lslash
Encoding: 287 321 31
Width: 1140
VWidth: 0
GlyphClass: 1
Flags: HW
PickledData: "(dp1
S'com.fontlab.hintData'
p2
(dp3
S'hhints'
p4
((dp5
S'position'
p6
I885
sS'width'
p7
I184
stp8
ss."
HStem: 0 209<375.281 1086.58> 885 184<508.859 692.859>
VStem: 154 221<209 500 840 1458>
DStem2: 4.0073 571 154.281 500 0.810402 0.585874<0 80.1851 458.481 742.212>
LayerCount: 2
Fore
SplineSet
154 0 m 1
 154 500 l 1
 4 387 l 1
 4 571 l 1
 154 684 l 1
 154 1458 l 1
 375 1458 l 1
 375 840 l 1
 693 1069 l 1
 693 885 l 1
 375 655 l 1
 375 209 l 1
 1087 209 l 1
 1087 0 l 1
 154 0 l 1
EndSplineSet
EndChar

StartChar: M
Encoding: 288 77 32
Width: 1830
VWidth: 0
GlyphClass: 1
Flags: HW
HStem: 0 21G<146.768 514.768 1301.2 1683.2> 1459 20G<146.768 567.982 1263.98 1683.2>
VStem: 146.5 368<0 876> 1301.5 382<0 876>
LayerCount: 2
Fore
SplineSet
1683.5 0 m 1
 1301.5 0 l 1
 1301.5 701 l 2
 1301.5 749 1302.5 837 1299.5 876 c 1
 1214.5 679 1130.5 486 1046.5 291 c 1
 768.5 291 l 1
 695.5 461 619.5 634 545.5 804 c 1
 515.5 876 l 1
 513.5 837 514.5 749 514.5 701 c 2
 514.5 0 l 1
 146.5 0 l 1
 146.5 1479 l 1
 558.5 1479 l 1
 915.5 698 l 1
 1017.5 924 l 1
 1017.5 922 l 1
 1273.5 1479 l 1
 1683.5 1479 l 1
 1683.5 0 l 1
EndSplineSet
EndChar

StartChar: N
Encoding: 289 78 33
Width: 1592
VWidth: 0
GlyphClass: 1
Flags: HW
HStem: 0 21G<145.768 502.768 996.162 1446.84> 1459 20G<145.768 590.397 1090.84 1446.84>
VStem: 145.5 357<0 960> 1090.5 356<659 1479>
DStem2: 977.633 839 504.772 960 0.530322 -0.847796<-353.352 212.639>
LayerCount: 2
Fore
SplineSet
1446.5 0 m 1
 1093.5 0 l 1
 898.5 318 696.5 645 504.5 960 c 1
 501.5 917 502.5 809 502.5 757 c 2
 502.5 0 l 1
 145.5 0 l 1
 145.5 1479 l 1
 577.5 1479 l 1
 977.5 839 l 2
 1007.5 789 1059.5 698 1090.5 659 c 1
 1090.5 1479 l 1
 1446.5 1479 l 1
 1446.5 0 l 1
EndSplineSet
EndChar

StartChar: O
Encoding: 291 79 35
Width: 1514
VWidth: 0
GlyphClass: 1
Flags: HW
PickledData: "(dp1
S'com.fontlab.hintData'
p2
(dp3
S'vhints'
p4
((dp5
S'position'
p6
I70
sS'width'
p7
I394
s(dp8
g6
I1049
sg7
I393
stp9
sS'hhints'
p10
((dp11
g6
I-24
sg7
I288
s(dp12
g6
I1215
sg7
I288
stp13
ss."
HStem: -24 288<605.65 906.325> 1215 288<606.153 914.973>
VStem: 70.5 394<431.567 1048.67> 1050.5 393<434.297 1048.12>
LayerCount: 2
Fore
SplineSet
757.5 -24 m 0
 299.5 -24 70.5 253 70.5 740 c 0
 70.5 1230 300.5 1503 757.5 1503 c 0
 1214.5 1503 1443.5 1231 1443.5 740 c 0
 1443.5 254 1215.5 -24 757.5 -24 c 0
1050.5 740 m 0
 1050.5 1037 982.5 1215 758.5 1215 c 0
 533.5 1215 464.5 1041 464.5 739 c 0
 464.5 439 532.5 264 758.5 264 c 0
 985.5 264 1050.5 451 1050.5 740 c 0
EndSplineSet
EndChar

StartChar: OE
Encoding: 292 338 36
Width: 2115
VWidth: 0
GlyphClass: 1
Flags: HW
PickledData: "(dp1
S'com.fontlab.hintData'
p2
(dp3
S'vhints'
p4
((dp5
S'position'
p6
I67
sS'width'
p7
I392
s(dp8
g6
I997
sg7
I382
stp9
sS'hhints'
p10
((dp11
g6
I0
sg7
I286
s(dp12
g6
I1193
sg7
I286
stp13
ss."
HStem: 0 286<619.513 946.711 1380.1 2031.29> 635 282<1380.1 1944.13> 1193 286<624.265 942.666 948.013 970.68 1380.1 2030.29>
VStem: 67 392<464.168 1021.16> 998 382<323.867 635 917 1153.92>
LayerCount: 2
Fore
SplineSet
2031 0 m 1
 1052 0 l 1
 1058 14 1065 28 1071 42 c 1
 954 13 808 -9 703 -3 c 1
 391 19 236 169 148 327 c 0
 93 427 67 523 67 741 c 0
 67 981 118 1108 205 1224 c 1
 299 1353 438 1445 629 1467 c 0
 724 1477 834 1470 948 1438 c 1
 948 1479 l 1
 2030 1479 l 1
 2030 1193 l 1
 1380 1193 l 1
 1380 917 l 1
 1944 917 l 1
 1944 635 l 1
 1380 635 l 1
 1380 286 l 1
 2031 286 l 1
 2031 0 l 1
971 319 m 1
 991 423 998 516 998 702 c 0
 998 913 991 1030 971 1160 c 1
 963 1162 956 1165 947 1169 c 1
 891 1181 833 1197 769 1193 c 1
 660 1182 581 1134 532 1069 c 1
 480 998 459 921 459 739 c 0
 459 563 482 483 538 406 c 0
 589 336 672 284 785 281 c 1
 847 281 900 297 949 318 c 1
 955 318 962 318 971 319 c 1
EndSplineSet
EndChar

StartChar: Omega
Encoding: 297 8486 41
Width: 1514
VWidth: 0
GlyphClass: 1
Flags: HW
PickledData: "(dp1
S'com.fontlab.hintData'
p2
(dp3
S'vhints'
p4
((dp5
S'position'
p6
I82
sS'width'
p7
I314
s(dp8
g6
I1116
sg7
I312
stp9
sS'hhints'
p10
((dp11
g6
I1214
sg7
I242
stp12
ss."
HStem: 0 229<82.1496 401.159 1105.44 1429.46> 1214 242<595.284 922.218>
VStem: 82 314<583.251 986.132> 1117 312<587.59 995.096>
LayerCount: 2
Fore
SplineSet
92 814 m 0
 92 1193 369 1456 758 1456 c 0
 1164 1456 1422 1173 1422 823 c 0
 1422 560 1302 357 1105 231 c 1
 1183 229 l 1
 1429 229 l 1
 1429 0 l 1
 861 0 l 1
 861 211 l 1
 1020 340 1117 529 1117 775 c 0
 1117 1018 977 1214 762 1214 c 0
 548 1214 396 1037 396 765 c 0
 396 535 476 358 651 211 c 1
 651 0 l 1
 82 0 l 1
 82 229 l 1
 401 229 l 1
 214 332 92 553 92 814 c 0
EndSplineSet
EndChar

StartChar: Oslash
Encoding: 298 216 42
Width: 1514
VWidth: 0
GlyphClass: 1
Flags: HW
PickledData: "(dp1
S'com.fontlab.hintData'
p2
(dp3
S'vhints'
p4
((dp5
S'position'
p6
I70
sS'width'
p7
I384
s(dp8
g6
I1056
sg7
I387
stp9
sS'hhints'
p10
((dp11
g6
I-24
sg7
I279
s(dp12
g6
I1219
sg7
I284
stp13
ss."
HStem: -24 279<618.65 942.216> 1219 284<608.668 905.001>
VStem: 70 384<464.675 1044.51> 1057 387<398.879 1019.91>
DStem2: 105.128 -101 311.128 -112 0.54097 0.841042<102.188 306.381 676.938 1446.35 1812.9 1988.12>
LayerCount: 2
Fore
SplineSet
756 -24 m 0
 631 -24 513 6 416 56 c 1
 311 -112 l 1
 105 -101 l 1
 273 156 l 1
 141 284 70 412 70 740 c 0
 70 1005 116 1136 204 1252 c 0
 316 1398 506 1503 757 1503 c 0
 878 1503 990 1477 1090 1427 c 1
 1179 1572 l 1
 1387 1561 l 1
 1236 1327 l 1
 1372 1199 1444 1071 1444 739 c 0
 1444 503 1413 391 1347 281 c 0
 1242 104 1038 -24 756 -24 c 0
758 1219 m 0
 676 1219 596 1185 541 1116 c 1
 486 1044 454 957 454 734 c 0
 454 599 461 522 481 462 c 1
 918 1166 l 1
 873 1200 811 1219 758 1219 c 0
774 255 m 0
 884 255 988 307 1047 399 c 1
 1055 496 1057 557 1057 740 c 0
 1057 867 1045 972 1028 1025 c 1
 590 319 l 1
 642 277 702 255 774 255 c 0
EndSplineSet
EndChar

StartChar: P
Encoding: 300 80 44
Width: 1386
VWidth: 0
GlyphClass: 1
Flags: HW
PickledData: "(dp1
S'com.fontlab.hintData'
p2
(dp3
S'vhints'
p4
((dp5
S'position'
p6
I951
sS'width'
p7
I391
stp8
sS'hhints'
p9
((dp10
g6
I499
sg7
I282
s(dp11
g6
I1197
sg7
I282
stp12
ss."
HStem: 0 21G<147.268 532.268> 499 282<532.268 872.573> 1197 282<532.268 878.483>
VStem: 147 385<0 499 781 1197> 952 391<853.592 1128.45>
LayerCount: 2
Fore
SplineSet
1343 1010 m 0
 1343 712 1124 499 757 499 c 2
 532 499 l 1
 532 0 l 1
 147 0 l 1
 147 1479 l 1
 782 1479 l 2
 1082 1479 1343 1351 1343 1010 c 0
952 1006 m 0
 952 1193 767 1197 636 1197 c 2
 532 1197 l 1
 532 781 l 1
 563 781 l 2
 642 781 721 780 788 791 c 1
 893 804 952 877 952 1006 c 0
EndSplineSet
EndChar

StartChar: Q
Encoding: 301 81 45
Width: 1514
VWidth: 0
GlyphClass: 1
Flags: HW
PickledData: "(dp1
S'com.fontlab.hintData'
p2
(dp3
S'vhints'
p4
((dp5
S'position'
p6
I70
sS'width'
p7
I394
s(dp8
g6
I1049
sg7
I393
stp9
sS'hhints'
p10
((dp11
g6
I-24
sg7
I288
s(dp12
g6
I1215
sg7
I288
stp13
ss."
HStem: -24 288<605.677 840.303> 1215 288<606.153 914.973>
VStem: 70.5 394<431.567 1048.67> 1050.5 393<432.013 1048.12>
LayerCount: 2
Fore
SplineSet
1050.5 740 m 0
 1050.5 1037 982.5 1215 758.5 1215 c 0
 533.5 1215 464.5 1041 464.5 739 c 0
 464.5 439 532.5 264 758.5 264 c 0
 985.5 264 1050.5 451 1050.5 740 c 0
1074.5 -446 m 1
 828.5 -22 l 1
 805.5 -24 781.5 -24 757.5 -24 c 0
 299.5 -24 70.5 253 70.5 740 c 0
 70.5 1230 300.5 1503 757.5 1503 c 0
 1214.5 1503 1443.5 1231 1443.5 740 c 0
 1443.5 418 1343.5 187 1142.5 68 c 1
 1352.5 -296 l 1
 1074.5 -446 l 1
EndSplineSet
EndChar

StartChar: R
Encoding: 302 82 46
Width: 1483
VWidth: 0
GlyphClass: 1
Flags: HW
PickledData: "(dp1
S'com.fontlab.hintData'
p2
(dp3
S'vhints'
p4
((dp5
S'position'
p6
I147
sS'width'
p7
I383
s(dp8
g6
I967
sg7
I386
stp9
sS'hhints'
p10
((dp11
g6
I0
sg7
I21
s(dp12
g6
I562
sg7
I270
s(dp13
g6
I1205
sg7
I274
stp14
ss."
HStem: 0 21G<147.268 530.268 994.695 1413.17> 562 270<530.268 686.553> 1205 274<530.268 910.819>
VStem: 147 383<0 562 832 1205> 968 386<898.119 1151.3>
LayerCount: 2
Fore
SplineSet
1413 0 m 1
 1006 0 l 1
 687 562 l 1
 530 562 l 1
 530 0 l 1
 147 0 l 1
 147 1479 l 1
 632 1479 l 2
 918 1479 1354 1488 1354 1055 c 0
 1354 836 1265 705 1055 624 c 1
 1413 70 l 1
 1413 0 l 1
968 1032 m 0
 968 1146 919 1187 770 1201 c 0
 737 1204 697 1205 654 1205 c 2
 530 1205 l 1
 530 832 l 1
 667 832 l 2
 872 832 968 879 968 1032 c 0
EndSplineSet
EndChar

StartChar: S
Encoding: 303 83 47
Width: 1281
VWidth: 0
GlyphClass: 1
Flags: HW
PickledData: "(dp1
S'com.fontlab.hintData'
p2
(dp3
S'vhints'
p4
((dp5
S'position'
p6
I76
sS'width'
p7
I385
s(dp8
g6
I861
sg7
I389
stp9
sS'hhints'
p10
((dp11
g6
I-22
sg7
I281
s(dp12
g6
I1221
sg7
I281
stp13
ss."
HStem: -22 281<368.1 800.74> 1221 281<504.674 921.987>
VStem: 76 385<989.91 1174.15> 862 389<314.164 492.645>
LayerCount: 2
Fore
SplineSet
1251 456 m 0
 1251 161 996 -22 613 -22 c 0
 375 -22 192 34 42 124 c 1
 94 439 l 1
 113 431 134 424 154 417 c 1
 291 317 456 259 613 259 c 0
 717 259 862 289 862 407 c 0
 862 581 545 552 368 628 c 1
 161 710 76 844 76 1038 c 0
 76 1307 329 1502 678 1502 c 0
 866 1502 1054 1454 1196 1382 c 1
 1151 1069 l 1
 1132 1077 1111 1084 1090 1090 c 1
 976 1170 829 1221 672 1221 c 0
 588 1221 461 1206 461 1075 c 0
 461 983 527 954 770 908 c 1
 1092 841 1251 703 1251 456 c 0
EndSplineSet
EndChar

StartChar: T
Encoding: 305 84 49
Width: 1222
VWidth: 0
GlyphClass: 1
Flags: HW
HStem: 0 21G<419.265 803.265> 1198 281<-0.5 419.265 803.265 1222.03>
VStem: 419.5 384<0 1198>
LayerCount: 2
Fore
SplineSet
1222.5 1198 m 1
 803.5 1198 l 1
 803.5 0 l 1
 419.5 0 l 1
 419.5 1198 l 1
 -0.5 1198 l 1
 -0.5 1479 l 1
 1222.5 1479 l 1
 1222.5 1198 l 1
EndSplineSet
EndChar

StartChar: Thorn
Encoding: 306 222 50
Width: 1215
VWidth: 0
GlyphClass: 1
Flags: HW
PickledData: "(dp1
S'com.fontlab.hintData'
p2
(dp3
S'vhints'
p4
((dp5
S'position'
p6
I946
sS'width'
p7
I221
stp8
sS'hhints'
p9
((dp10
g6
I315
sg7
I209
s(dp11
g6
I995
sg7
I209
stp12
ss."
HStem: 0 21G<154.281 375.281> 316 209<375.281 841.592> 997 209<375.281 841.592>
VStem: 154 221<0 315.802 524.802 997 1206 1458> 947 221<629.676 892.678>
LayerCount: 2
Fore
SplineSet
154 0 m 1
 154 1458 l 1
 375 1458 l 1
 375 1206 l 1
 712 1206 l 2
 1011 1206 1168 974 1168 761 c 0
 1168 548 1011 316 712 316 c 2
 375 316 l 1
 375 0 l 1
 154 0 l 1
375 997 m 1
 375 525 l 1
 708 525 l 2
 857 525 947 650 947 761 c 0
 947 871 857 997 706 997 c 2
 375 997 l 1
EndSplineSet
EndChar

StartChar: U
Encoding: 307 85 51
Width: 1498
VWidth: 0
GlyphClass: 1
Flags: HW
PickledData: "(dp1
S'com.fontlab.hintData'
p2
(dp3
S'hhints'
p4
((dp5
S'position'
p6
I-24
sS'width'
p7
I291
stp8
ss."
HStem: -24 291<595.044 896.061> 1459 20G<122.724 506.724 991.608 1375.61>
VStem: 122.5 384<358.498 1479> 991.5 384<361.435 1479>
LayerCount: 2
Fore
SplineSet
1375.5 1479 m 1
 1375.5 506 l 2
 1375.5 177 1144.5 -24 749.5 -24 c 0
 370.5 -24 122.5 170 122.5 505 c 2
 122.5 1479 l 1
 506.5 1479 l 1
 506.5 537 l 2
 506.5 357 589.5 267 749.5 267 c 0
 902.5 267 991.5 352 991.5 538 c 2
 991.5 1479 l 1
 1375.5 1479 l 1
EndSplineSet
EndChar

StartChar: V
Encoding: 312 86 56
Width: 1346
VWidth: 0
GlyphClass: 1
Flags: HW
PickledData: "(dp1
S'com.fontlab.hintData'
p2
(dp3
S'vhints'
p4
((dp5
S'position'
p6
I-23
sS'width'
p7
I399
s(dp8
g6
I977
sg7
I391
stp9
ss."
HStem: 0 21G<484.256 861.807> 1459 20G<-23 415.569 971.706 1369.08>
VStem: -23 399<1080 1479> 606 10<718.361 741.781> 978 391<1088 1479>
DStem2: 376 1479 -23 1479 0.328392 -0.944541<0 1006.83> 654.494 585 491.21 0 0.328392 -0.944541<-823.713 72.0803> 677.53 516 854.853 0 0.328401 0.944538<0 866.537> 978.078 1479 1369.08 1479 0.328401 0.944538<-971.028 0>
LayerCount: 2
Fore
SplineSet
1369 1479 m 1
 855 0 l 1
 491 0 l 1
 -23 1479 l 1
 376 1479 l 1
 455 1225 536 972 616 718 c 1
 613 726 609 734 606 742 c 1
 623 690 638 637 654 585 c 2
 676 516 l 1
 678 516 l 1
 736 718 l 1
 978 1479 l 1
 1369 1479 l 1
EndSplineSet
EndChar

StartChar: W
Encoding: 313 87 57
Width: 2073
VWidth: 0
GlyphClass: 1
Flags: HW
PickledData: "(dp1
S'com.fontlab.hintData'
p2
(dp3
S'vhints'
p4
((dp5
S'position'
p6
I1664
sS'width'
p7
I394
stp8
ss."
HStem: 0 21G<390.532 800.839 1237.75 1680.26> 1459 20G<12.0219 437.797 831.014 1225.37 1632.97 2061.04>
VStem: 1667 394<1085 1479>
DStem2: 606.104 532 1032.88 881 0.260452 0.965487<0 448.11> 1408.57 747 1032.88 881 0.249715 -0.968319<-223.569 219.043>
LayerCount: 2
Fore
SplineSet
2061 1479 m 1
 1675 0 l 1
 1276 0 l 1
 1199 281 1087 715 1033 881 c 1
 795 0 l 1
 396 0 l 1
 12 1479 l 1
 414 1479 l 1
 462 1238 510 998 559 756 c 2
 604 532 l 1
 606 532 l 1
 677 797 l 2
 738 1024 801 1251 862 1479 c 1
 1220 1479 l 1
 1409 747 l 2
 1424 687 1447 585 1464 535 c 1
 1530 844 1599 1166 1667 1479 c 1
 2061 1479 l 1
EndSplineSet
EndChar

StartChar: X
Encoding: 314 88 58
Width: 1351
VWidth: 0
GlyphClass: 1
Flags: HW
PickledData: "(dp1
S'com.fontlab.hintData'
p2
(dp3
S'vhints'
p4
((dp5
S'position'
p6
I-14
sS'width'
p7
I443
stp8
ss."
HStem: 0 21G<-38.5438 401.43 932.638 1389.25> 1459 20G<-14.5 470.076 922.415 1364.2>
VStem: -14.5 443<1036 1479>
DStem2: -38.5438 0 389.5 0 0.549592 0.835433<235.25 770.487 1459.18 1770.34> 428.5 1479 -14.5 1479 0.544749 -0.838599<0 170.342 984.672 1521.35>
LayerCount: 2
Fore
SplineSet
1364.5 1479 m 1
 907.5 763 l 1
 1389.5 0 l 1
 944.5 0 l 1
 762.5 309 l 1
 731.5 359 698.5 412 668.5 461 c 1
 629.5 398 589.5 335 551.5 272 c 2
 389.5 0 l 1
 -38.5 0 l 1
 441.5 752 l 1
 -14.5 1479 l 1
 428.5 1479 l 1
 511.5 1337 595.5 1195 678.5 1052 c 1
 711.5 1106 741.5 1154 776.5 1212 c 1
 774.5 1212 l 1
 934.5 1479 l 1
 1364.5 1479 l 1
EndSplineSet
EndChar

StartChar: Y
Encoding: 315 89 59
Width: 1338
VWidth: 0
GlyphClass: 1
Flags: HW
HStem: 0 21G<482.88 863.88> 1459 20G<-32.0584 448.528 903.006 1369.8>
VStem: 483 381<0 596>
LayerCount: 2
Fore
SplineSet
1370 1479 m 1
 864 608 l 1
 864 0 l 1
 483 0 l 1
 483 596 l 1
 -32 1479 l 1
 403 1479 l 1
 495 1299 586 1120 681 943 c 1
 770 1124 859 1300 947 1479 c 1
 1370 1479 l 1
EndSplineSet
EndChar

StartChar: Z
Encoding: 318 90 62
Width: 1217
VWidth: 0
GlyphClass: 1
Flags: HW
HStem: 0 286<516.942 1187.16> 1198 281<75.1369 680.239>
DStem2: 41.0748 272 516.942 286 0.56806 0.822987<281.843 1125.17>
LayerCount: 2
Fore
SplineSet
1187 0 m 1
 41 0 l 1
 41 272 l 1
 680 1198 l 1
 75 1198 l 1
 75 1479 l 1
 1154 1479 l 1
 1154 1208 l 1
 517 286 l 1
 1187 286 l 1
 1187 0 l 1
EndSplineSet
EndChar

StartChar: a
Encoding: 320 97 64
Width: 1204
VWidth: 0
GlyphClass: 1
Flags: W
PickledData: "(dp1
S'com.fontlab.hintData'
p2
(dp3
S'vhints'
p4
((dp5
S'position'
p6
I61
sS'width'
p7
I357
s(dp8
g6
I750
sg7
I358
stp9
sS'hhints'
p10
((dp11
g6
I-20
sg7
I247
s(dp12
g6
I503
sg7
I190
s(dp13
g6
I862
sg7
I258
stp14
ss."
HStem: -20 247<304 603.411> 0 21G<751 1109> 504 192<483.539 751> 864 258<278.42 716.663>
VStem: 61 357<255.399 446.51> 751 358<0 159 293.327 504 696 828.301>
LayerCount: 2
Fore
SplineSet
61 317 m 0xbc
 61 649.685708079 372.573504708 696 751 696 c 1
 751 820 716 864 537 864 c 0
 430 864 308 834 201 792 c 1
 142 1033 l 1
 213 1084 387 1122 553 1122 c 0
 934 1122 1109 1006 1109 749 c 2
 1109 0 l 1
 751 0 l 1x7c
 751 159 l 1
 749 159 l 1
 692 57.7797619048 574 -20 408 -20 c 0
 200 -20 61 127 61 317 c 0xbc
751 504 m 1
 549 488 418 492 418 352 c 0
 418 274 470 227 562 227 c 0xbc
 664 227 751 268 751 504 c 1
EndSplineSet
EndChar

StartChar: acute
Encoding: 323 180 67
Width: 897
VWidth: 0
GlyphClass: 1
Flags: HW
PickledData: "(dp1
S'com.fontlab.hintData'
p2
(dp3
S'hhints'
p4
((dp5
S'position'
p6
I1239
sS'width'
p7
I366
stp8
ss."
HStem: 1239 366<428 463>
VStem: 214 565
LayerCount: 2
Fore
SplineSet
779 1605 m 1
 463 1239 l 1
 214 1239 l 1
 428 1605 l 1
 779 1605 l 1
EndSplineSet
EndChar

StartChar: ae
Encoding: 325 230 69
Width: 1877
VWidth: 0
GlyphClass: 1
Flags: HW
PickledData: "(dp1
S'com.fontlab.hintData'
p2
(dp3
S'vhints'
p4
((dp5
S'position'
p6
I33
sS'width'
p7
I357
s(dp8
g6
I735
sg7
I352
stp9
sS'hhints'
p10
((dp11
g6
I-24
sg7
I245
s(dp12
g6
I873
sg7
I249
s(dp13
g6
I891
sg7
I233
stp14
ss."
HStem: -24 245<416.27 711.642 1216.13 1554.3> 460 215<1088.33 1474.03> 875 249<265.892 680.952> 893 233<1155.17 1412.79>
VStem: 33 357<249.282 428.615>
LayerCount: 2
Fore
SplineSet
1832 460 m 1xd8
 1088 460 l 1
 1101 288 1231 232 1399 232 c 0
 1510 232 1604 284 1649 315 c 1
 1686 315 1727 329 1759 351 c 1
 1814 96 l 1
 1722 35 1605 -27 1349 -27 c 0
 1100 -27 1001 9 869 135 c 1
 780 31 646 -24 485 -24 c 0
 190 -24 33 100 33 318 c 0
 33 516 154 637 370 668 c 1
 437 675 506 680 576 685 c 1
 625 696 674 708 726 718 c 1
 726 818 682 875 479 875 c 0
 401 875 296 848 214 809 c 1
 200 805 186 800 174 793 c 1
 114 1033 l 1
 185 1083 364 1124 526 1124 c 0xe8
 713 1124 853 1079 945 1009 c 1
 1023 1070 1176 1126 1308 1126 c 0
 1644 1126 1832 936 1832 615 c 2
 1832 460 l 1xd8
764 332 m 1
 744 388 739 436 736 479 c 1
 545 467 390 470 390 345 c 0
 390 266 435 221 559 221 c 0
 671 221 742 252 764 332 c 1
1474 675 m 1
 1472 821 1402 893 1285 893 c 0xd8
 1159 893 1085 809 1086 675 c 1
 1474 675 l 1
EndSplineSet
EndChar

StartChar: afii61289
Encoding: 326 8467 70
Width: 899
VWidth: 0
GlyphClass: 1
Flags: HW
PickledData: "(dp1
S'com.fontlab.hintData'
p2
(dp3
S'vhints'
p4
((dp5
S'position'
p6
I193
sS'width'
p7
I192
s(dp8
g6
I616
sg7
I121
stp9
sS'hhints'
p10
((dp11
g6
I-4
sg7
I162
s(dp12
g6
I1434
sg7
I151
stp13
ss."
HStem: -4 162<454.581 673.554> 1434 151<442.461 589.72>
VStem: 193 192<236.151 383 504.714 571.933 725 1363.86> 617 121<1039.53 1411.2>
LayerCount: 2
Fore
SplineSet
385 1081 m 2
 385 725 l 1
 518 897 617 1083 617 1251 c 0
 617 1366 589 1434 511 1434 c 0
 450 1434 385 1352 385 1081 c 2
785 336 m 1
 867 252 l 1
 781 72 656 -4 515 -4 c 0
 288 -4 203 164 195 358 c 1
 195 383 l 1
 164 358 129 326 96 297 c 1
 45 410 l 1
 100 461 150 502 193 551 c 1
 193 1094 l 2
 193 1446 343 1585 503 1585 c 0
 663 1585 738 1440 738 1243 c 0
 738 1001 598 762 385 528 c 1
 385 432 l 1
 387 240 462 158 558 158 c 0
 658 158 736 250 785 336 c 1
EndSplineSet
EndChar

StartChar: ampersand
Encoding: 328 38 72
Width: 1595
VWidth: 0
GlyphClass: 1
Flags: HW
PickledData: "(dp1
S'com.fontlab.hintData'
p2
(dp3
S'vhints'
p4
((dp5
S'position'
p6
I78
sS'width'
p7
I374
s(dp8
g6
I181
sg7
I363
s(dp9
g6
I768
sg7
I359
stp10
sS'hhints'
p11
((dp12
g6
I1278
sg7
I225
stp13
ss."
HStem: -24 26G<465.301 721.405 1184.17 1229.74> 1278 225<567.148 738.712>
VStem: 78 374<339.453 625.313> 181 363<1050.72 1257.29> 769 359<1020.28 1251.84>
DStem2: 814.551 815 525.142 663 0.705272 -0.708937<0 404.475 695.303 903.945>
LayerCount: 2
Fore
SplineSet
769 1143 m 0xd8
 769 1263 683 1278 648 1278 c 0
 617 1278 544 1259 544 1158 c 0
 544 1092 604 1025 668 962 c 1
 742 1023 769 1079 769 1143 c 0xd8
903 290 m 1
 777 413 650 538 525 663 c 1
 473 618 452 533 452 479 c 0xe8
 452 328 571 245 657 237 c 0
 761 228 826 245 903 290 c 1
1481 758 m 1
 1477 721 1472 682 1466 643 c 1
 1446 532 1413 423 1311 328 c 1
 1362 280 1414 231 1465 182 c 0
 1534 116 1597 39 1683 -2 c 1
 1357 -8 l 1
 1307 -12 1255 -16 1205 -19 c 1
 1164 24 1122 66 1079 107 c 1
 943 22 801 -24 641 -24 c 0
 289 -24 78 173 78 436 c 0xe8
 78 637 203 763 348 842 c 1
 259 924 181 1013 181 1154 c 0xd8
 181 1320 310 1503 664 1503 c 0
 971 1503 1128 1357 1128 1176 c 0
 1128 1025 1040 894 815 815 c 1
 908 718 1003 621 1098 526 c 1
 1100 621 1120 698 1132 785 c 1
 1481 758 l 1
EndSplineSet
EndChar

StartChar: approxequal
Encoding: 329 8776 73
Width: 1350
VWidth: 0
GlyphClass: 1
Flags: HW
PickledData: "(dp1
S'com.fontlab.hintData'
p2
(dp3
S'vhints'
p4
((dp5
S'position'
p6
I159
sS'width'
p7
I166
s(dp8
g6
I1023
sg7
I166
stp9
sS'hhints'
p10
((dp11
g6
I371
sg7
I173
s(dp12
g6
I778
sg7
I174
stp13
ss."
HStem: 372 173<374.766 600.01> 780 174<375.211 602.488>
VStem: 159 166<236.202 320.775 649.328 731.044> 1025 166<452.233 526.861 855.707 937.049>
LayerCount: 2
Fore
SplineSet
1191 525 m 1
 1167 345 1058 221 888 221 c 0
 819 221 740 249 640 305 c 0
 568 346 516 372 476 372 c 0
 388 372 344 310 325 216 c 1
 159 238 l 1
 184 425 297 545 467 545 c 0
 550 545 628 512 702 470 c 0
 754 440 796 415 837 407 c 0
 875 399 903 405 925 419 c 1
 979 427 1017 476 1025 549 c 1
 1191 525 l 1
1191 935 m 1
 1167 755 1057 631 889 631 c 0
 818 631 739 659 640 716 c 0
 570 756 517 780 476 780 c 0
 389 780 344 720 325 628 c 1
 159 651 l 1
 184 836 297 954 468 954 c 0
 550 954 629 922 702 879 c 0
 753 849 794 826 834 818 c 1
 868 810 895 811 916 820 c 1
 974 829 1015 883 1025 959 c 1
 1191 935 l 1
EndSplineSet
EndChar

StartChar: asciicircum
Encoding: 331 94 75
Width: 1589
VWidth: 0
GlyphClass: 1
Flags: HW
PickledData: "(dp1
S'com.fontlab.hintData'
p2
(dp3
S'vhints'
p4
((dp5
S'position'
p6
I1130
sS'width'
p7
I307
stp8
ss."
HStem: 1459 20G<645.156 915.416>
VStem: 1132 307<639 946>
DStem2: 902.644 1479 780.422 1212 0.538212 -0.842809<159.248 831.435>
LayerCount: 2
Fore
SplineSet
1439 639 m 1
 1132 639 l 1
 780 1212 l 1
 457 637 l 1
 150 637 l 1
 657 1479 l 1
 903 1479 l 1
 1439 639 l 1
EndSplineSet
EndChar

StartChar: asciitilde
Encoding: 332 126 76
Width: 1589
VWidth: 0
GlyphClass: 1
Flags: HW
PickledData: "(dp1
S'com.fontlab.hintData'
p2
(dp3
S'vhints'
p4
((dp5
S'position'
p6
I127
sS'width'
p7
I229
s(dp8
g6
I1234
sg7
I231
stp9
sS'hhints'
p10
((dp11
g6
I329
sg7
I255
s(dp12
g6
I652
sg7
I242
stp13
ss."
HStem: 329 255<972.103 1169.32> 654 242<429.407 591.728>
VStem: 127 229<372.082 564.84> 1236 231<674.587 850.945>
LayerCount: 2
Fore
SplineSet
516.825994503 632.64418186 m 0
 425.021534463 632.64418186 379.221312606 520.325721282 356 326 c 1
 127 372 l 1
 143 725 283 896 511 896 c 0
 726.998594086 896 867.172313558 584 1070 584 c 0
 1211 584 1214 740 1236 898 c 1
 1467 851 l 1
 1451 506 1315 329 1073 329 c 0
 801.786882797 329 632.231130005 632.64418186 516.825994503 632.64418186 c 0
EndSplineSet
EndChar

StartChar: asterisk
Encoding: 333 42 77
Width: 1168
VWidth: 0
GlyphClass: 1
Flags: HW
PickledData: "(dp1
S'com.fontlab.hintData'
p2
(dp3
S'vhints'
p4
((dp5
S'position'
p6
I451
sS'width'
p7
I218
stp8
ss."
VStem: 452 218<654.529 943.098 1277.63 1555.94>
LayerCount: 2
Fore
SplineSet
670 713 m 1
 655 658 596 629 538 629 c 1
 495 638 452 676 452 740 c 0
 452 829 499 936 513 1024 c 1
 509 1020 503 1016 496 1010 c 0
 419 936 323 808 234 801 c 1
 184 814 140 863 129 918 c 1
 138 1045 353 1054 473 1105 c 1
 350 1157 135 1167 129 1293 c 1
 140 1346 183 1395 233 1409 c 1
 256 1407 279 1398 301 1384 c 0
 375 1339 446 1239 515 1184 c 1
 504 1285 453 1398 453 1498 c 1
 468 1553 525 1581 583 1581 c 1
 626 1572 669 1534 669 1471 c 0
 669 1381 622 1275 606 1185 c 1
 611 1189 617 1192 624 1198 c 0
 701 1271 794 1402 887 1409 c 1
 937 1395 981 1346 992 1293 c 1
 986 1168 766 1157 648 1105 c 1
 767 1051 983 1047 992 918 c 1
 981 863 936 814 887 801 c 1
 864 803 842 811 820 824 c 0
 747 868 673 967 608 1023 c 1
 625 928 670 809 670 713 c 1
EndSplineSet
EndChar

StartChar: at
Encoding: 334 64 78
Width: 1825
VWidth: 0
GlyphClass: 1
Flags: HW
PickledData: "(dp1
S'com.fontlab.hintData'
p2
(dp3
S'vhints'
p4
((dp5
S'position'
p6
I122
sS'width'
p7
I188
s(dp8
g6
I492
sg7
I202
s(dp9
g6
I1599
sg7
I183
stp10
sS'hhints'
p11
((dp12
g6
I-142
sg7
I171
s(dp13
g6
I189
sg7
I150
s(dp14
g6
I214
sg7
I153
s(dp15
g6
I974
sg7
I168
s(dp16
g6
I1317
sg7
I174
stp17
ss."
HStem: -142 171<721.184 1247.08> 189 150<1312.73 1499.2> 214 153<774.553 1052.94> 976 168<837.648 1093.32> 1089 20G<1186.28 1375.8> 1317 174<731.904 1234.39>
VStem: 122 188<428.162 904.362> 493 202<451.156 816.895> 1601 183<473.589 960.671>
DStem2: 1105.3 419.553 1307.67 511.772 0.113332 0.993557<45.6618 489.722 630.813 694.542>
LayerCount: 2
Fore
SplineSet
1601 726 m 0xcf80
 1601 1074 1353 1317 987 1317 c 0
 577 1317 310 1033 310 665 c 0
 310 287 588 29 983 29 c 0
 1135 29 1286 65 1412 134 c 1
 1461 11 l 1
 1324 -88 1144 -142 983 -142 c 0
 475 -142 122 192 122 667 c 0
 122 1147 486 1491 982 1491 c 0
 1453 1491 1784 1177 1784 744 c 0
 1784 402 1614 189 1365 189 c 0xcf80
 1250 189 1172 226 1137 320 c 1
 1081 252 951 214 853 214 c 0
 633 214 493 401 493 606 c 0
 493 904 681 1144 931 1144 c 0xb780
 1079 1144 1130 1079 1179 1046 c 1
 1189 1109 l 1
 1376 1109 l 1
 1308 512 l 2
 1305 487 1303 463 1303 442 c 0
 1303 380 1322 339 1399 339 c 0
 1558 339 1601 562 1601 726 c 0xcf80
695 620 m 0
 695 453 782 367 898 367 c 0
 964 367 1035 385 1105 420 c 1
 1151 873 l 1
 1108 931 1042 976 969 976 c 0xb780
 809 976 695 814 695 620 c 0
EndSplineSet
EndChar

StartChar: b
Encoding: 336 98 80
Width: 1269
VWidth: 0
GlyphClass: 1
Flags: HW
PickledData: "(dp1
S'com.fontlab.hintData'
p2
(dp3
S'vhints'
p4
((dp5
S'position'
p6
I126
sS'width'
p7
I359
s(dp8
g6
I841
sg7
I366
stp9
sS'hhints'
p10
((dp11
g6
I-22
sg7
I276
s(dp12
g6
I0
sg7
I21
s(dp13
g6
I846
sg7
I274
s(dp14
g6
I1501
sg7
I20
stp15
ss."
HStem: -22 276<576.81 916.908> 0 21G<126.23 486.232> 848 274<617.985 958.691> 1501 20G<126.23 485.23>
VStem: 126 359<0 88 261.848 817.214 989 1521> 842 366<341.656 778.187>
LayerCount: 2
Fore
SplineSet
809 1122 m 0x7c
 1109 1122 1208 902 1208 558 c 0
 1208 227 1065 -22 768 -22 c 0xbc
 641 -22 568 16 485 88 c 1
 486 0 l 1
 126 0 l 1
 126 1521 l 1
 485 1521 l 1
 485 989 l 1
 585 1069 675 1122 809 1122 c 0x7c
842 555 m 0
 842 748 798 848 646 848 c 0
 573 848 527 824 485 782 c 1
 485 277 l 1
 512 261 567 254 614 254 c 0
 793 254 842 376 842 555 c 0
EndSplineSet
EndChar

StartChar: backslash
Encoding: 337 92 81
Width: 1126
VWidth: 0
GlyphClass: 1
Flags: HW
PickledData: "(dp1
S'com.fontlab.hintData'
p2
(dp3
S'vhints'
p4
((dp5
S'position'
p6
I177
sS'width'
p7
I287
s(dp8
g6
I720
sg7
I285
stp9
ss."
HStem: 1507 20G<177.323 470.529>
VStem: 177 287<1240 1527> 721 285<-218 67>
DStem2: 464.323 1527 177.323 1527 0.297355 -0.954767<0 1742.33>
LayerCount: 2
Fore
SplineSet
1006 -218 m 1
 721 -218 l 1
 177 1527 l 1
 464 1527 l 1
 1006 -218 l 1
EndSplineSet
EndChar

StartChar: bar
Encoding: 338 124 82
Width: 1169
VWidth: 0
GlyphClass: 1
Flags: HW
PickledData: "(dp1
S'com.fontlab.hintData'
p2
(dp3
S'vhints'
p4
((dp5
S'position'
p6
I444
sS'width'
p7
I280
stp8
ss."
VStem: 444 280<-433 1549>
LayerCount: 2
Fore
SplineSet
724 -433 m 1
 444 -433 l 1
 444 1549 l 1
 724 1549 l 1
 724 -433 l 1
EndSplineSet
EndChar

StartChar: braceleft
Encoding: 339 123 83
Width: 1079
VWidth: 0
GlyphClass: 1
Flags: HW
PickledData: "(dp1
S'com.fontlab.hintData'
p2
(dp3
S'vhints'
p4
((dp5
S'position'
p6
I352
sS'width'
p7
I322
stp8
sS'hhints'
p9
((dp10
g6
I-327
sg7
I211
s(dp11
g6
I485
sg7
I226
s(dp12
g6
I1312
sg7
I211
stp13
ss."
HStem: -327 211<729.367 996.228> 485 226<15.0274 241.829> 1312 211<740.593 996.228>
VStem: 353 322<-62.4178 380.904 811.769 1245.32>
CounterMasks: 1 e0
LayerCount: 2
Fore
SplineSet
353 182 m 2
 353 403.305360089 259.718856163 485 15 485 c 1
 15 711 l 1
 260.753908631 711 353 783.802071361 353 1013 c 2
 353 1194 l 2
 353 1483 562 1523 842 1523 c 2
 996 1523 l 1
 996 1312 l 1
 928 1312 l 2
 754 1312 675 1282 675 1079 c 2
 675 1020 l 2
 675 775 579 662 405 607 c 1
 405 589 l 1
 548 544 675 439 675 229 c 2
 675 148 l 2
 675 -91 739 -116 920 -116 c 0
 943 -116 970 -115 996 -115 c 1
 996 -327 l 1
 910 -327 l 2
 890.796372708 -327.314813562 871.988683418 -327.495555991 853.593268259 -327.495555991 c 0
 545.457639274 -327.495555991 353 -276.781918434 353 44 c 2
 353 182 l 2
EndSplineSet
EndChar

StartChar: braceright
Encoding: 340 125 84
Width: 1079
VWidth: 0
GlyphClass: 1
Flags: HW
PickledData: "(dp1
S'com.fontlab.hintData'
p2
(dp3
S'vhints'
p4
((dp5
S'position'
p6
I404
sS'width'
p7
I321
stp8
sS'hhints'
p9
((dp10
g6
I-327
sg7
I212
s(dp11
g6
I485
sg7
I226
s(dp12
g6
I1312
sg7
I211
stp13
ss."
HStem: -327 212<82.1496 341.644> 485 226<844.08 1064.35> 1312 211<82.1496 350.725>
VStem: 405 321<-57.8005 378.578 825.019 1249.34>
LayerCount: 2
Fore
SplineSet
726 1045 m 2
 726 810.865479315 809.285130851 711 1064 711 c 1
 1064 485 l 1
 735.89582745 485 721.495816721 360.784496292 726 16 c 0
 729.929734776 -284.811832345 530.268379248 -329.60345896 253 -327 c 1
 82 -327 l 1
 82 -115 l 1
 328 -115 405 -110 405 148 c 2
 405 225 l 2
 405 436 530 543 673 589 c 1
 673 607 l 1
 529 653 405 755 405 972 c 2
 405 1040 l 2
 405 1327.41413922 309.58252236 1312 82 1312 c 1
 82 1523 l 1
 172 1523 261 1524 353 1525 c 0
 608 1528 726 1395 726 1138 c 2
 726 1045 l 2
EndSplineSet
EndChar

StartChar: bracketleft
Encoding: 341 91 85
Width: 841
VWidth: 0
GlyphClass: 1
Flags: HW
PickledData: "(dp1
S'com.fontlab.hintData'
p2
(dp3
S'vhints'
p4
((dp5
S'position'
p6
I145
sS'width'
p7
I596
stp8
ss."
HStem: -327 225<454 741> 1298 225<454 741>
VStem: 145 596<-327 -102 1298 1523> 145 309<-102 1298>
LayerCount: 2
Fore
SplineSet
741 -327 m 1xe0
 145 -327 l 1
 145 1523 l 1
 741 1523 l 1
 741 1298 l 1xe0
 454 1298 l 1
 454 -102 l 1xd0
 741 -102 l 1
 741 -327 l 1xe0
EndSplineSet
EndChar

StartChar: bracketright
Encoding: 342 93 86
Width: 841
VWidth: 0
GlyphClass: 1
Flags: HW
PickledData: "(dp1
S'com.fontlab.hintData'
p2
(dp3
S'vhints'
p4
((dp5
S'position'
p6
I99
sS'width'
p7
I597
stp8
ss."
HStem: -327 225<99 387> 1298 225<99 387>
VStem: 99 597<-327 -102 1298 1523> 387 309<-102 1298>
LayerCount: 2
Fore
SplineSet
696 -327 m 1xe0
 99 -327 l 1
 99 -102 l 1xe0
 387 -102 l 1
 387 1298 l 1xd0
 99 1298 l 1
 99 1523 l 1
 696 1523 l 1
 696 -327 l 1xe0
EndSplineSet
EndChar

StartChar: breve
Encoding: 343 728 87
Width: 894
VWidth: 0
GlyphClass: 1
Flags: HW
PickledData: "(dp1
S'com.fontlab.hintData'
p2
(dp3
S'vhints'
p4
((dp5
S'position'
p6
I82
sS'width'
p7
I191
s(dp8
g6
I627
sg7
I193
stp9
sS'hhints'
p10
((dp11
g6
I1220
sg7
I174
stp12
ss."
HStem: 1220 174<324.761 576.23>
VStem: 82 191<1443.88 1568> 628 193<1451.59 1568>
LayerCount: 2
Fore
SplineSet
821 1568 m 1
 817 1341 674 1220 451 1220 c 0
 209 1220 86 1341 82 1568 c 1
 273 1568 l 1
 282 1469 320 1394 451 1394 c 0
 569 1394 620 1464 628 1568 c 1
 821 1568 l 1
EndSplineSet
EndChar

StartChar: brokenbar
Encoding: 344 166 88
Width: 455
VWidth: 0
GlyphClass: 1
Flags: HW
PickledData: "(dp1
S'com.fontlab.hintData'
p2
(dp3
S'vhints'
p4
((dp5
S'position'
p6
I147
sS'width'
p7
I160
stp8
ss."
VStem: 147 160<-358 358 666 1382>
LayerCount: 2
Fore
SplineSet
147 666 m 1
 147 1382 l 1
 307 1382 l 1
 307 666 l 1
 147 666 l 1
147 -358 m 1
 147 358 l 1
 307 358 l 1
 307 -358 l 1
 147 -358 l 1
EndSplineSet
EndChar

StartChar: bullet
Encoding: 345 8226 89
Width: 1318
VWidth: 0
GlyphClass: 1
Flags: HW
PickledData: "(dp1
S'com.fontlab.hintData'
p2
(dp3
S'vhints'
p4
((dp5
S'position'
p6
I158
sS'width'
p7
I1001
stp8
sS'hhints'
p9
((dp10
g6
I217
sg7
I954
stp11
ss."
HStem: 217 954<454.871 862.162>
VStem: 158 1001<499.571 879.062>
LayerCount: 2
Fore
SplineSet
1159 695 m 0
 1159 433 930 217 658 217 c 0
 386 217 158 434 158 695 c 0
 158 955 388 1171 658 1171 c 0
 932 1171 1159 955 1159 695 c 0
EndSplineSet
EndChar

StartChar: c
Encoding: 346 99 90
Width: 1023
VWidth: 0
GlyphClass: 1
Flags: W
PickledData: "(dp1
S'com.fontlab.hintData'
p2
(dp3
S'vhints'
p4
((dp5
S'position'
p6
I44
sS'width'
p7
I366
stp8
sS'hhints'
p9
((dp10
g6
I-25
sg7
I260
s(dp11
g6
I864
sg7
I256
stp12
ss."
HStem: -25 260<522.135 885.28> 866 256<534.334 868.739>
VStem: 44 366<355.781 741.014>
LayerCount: 2
Fore
SplineSet
677 235 m 0
 808 235 907 278 992 348 c 1
 1047 85 l 1
 933 23 798 -25 646 -25 c 0
 321 -25 44 147 44 546 c 0
 44 970 343 1122 636 1122 c 0
 767 1122 904 1090 1045 1011 c 1
 990 747 l 1
 896 821 783 866 690 866 c 0
 537 866 410 774 410 545 c 0
 410 314 530 235 677 235 c 0
EndSplineSet
EndChar

StartChar: caron
Encoding: 347 711 91
Width: 894
VWidth: 0
GlyphClass: 1
Flags: HW
PickledData: "(dp1
S'com.fontlab.hintData'
p2
(dp3
S'hhints'
p4
((dp5
S'position'
p6
I1245
sS'width'
p7
I165
stp8
ss."
HStem: 1245 165<326.595 565.029>
LayerCount: 2
Fore
SplineSet
897 1605 m 1
 565 1245 l 1
 327 1245 l 1
 -6 1605 l 1
 270 1605 l 1
 447 1410 l 1
 623 1605 l 1
 897 1605 l 1
EndSplineSet
EndChar

StartChar: cedilla
Encoding: 349 184 93
Width: 995
VWidth: 0
GlyphClass: 1
Flags: HW
PickledData: "(dp1
S'com.fontlab.hintData'
p2
(dp3
S'vhints'
p4
((dp5
S'position'
p6
I576
sS'width'
p7
I180
stp8
sS'hhints'
p9
((dp10
g6
I-547
sg7
I139
stp11
ss."
HStem: -547 139<282.962 548.791>
VStem: 577 180<-379.161 -224.297>
LayerCount: 2
Fore
SplineSet
429 -547 m 0
 375 -547 279 -527 225 -501 c 1
 255 -363 l 1
 279 -369 304 -374 329 -374 c 1
 357 -391 388 -408 431 -408 c 0
 523 -408 577 -358 577 -298 c 0
 577 -232 503 -187 414 -207 c 1
 398 -202 381 -198 363 -195 c 1
 432 2 l 1
 543 2 l 1
 500 -103 l 1
 543 -104 584 -107 617 -117 c 0
 707 -142 751 -204 757 -276 c 0
 757 -283 758 -290 758 -296 c 0
 757 -303 757 -310 757 -317 c 0
 742 -442 626 -547 429 -547 c 0
EndSplineSet
EndChar

StartChar: cent
Encoding: 350 162 94
Width: 1245
VWidth: 0
GlyphClass: 1
Flags: W
PickledData: "(dp1
S'com.fontlab.hintData'
p2
(dp3
S'vhints'
p4
((dp5
S'position'
p6
I125
sS'width'
p7
I358
stp8
sS'hhints'
p9
((dp10
g6
I-22
sg7
I265
s(dp11
g6
I865
sg7
I265
stp12
ss."
HStem: -25 260<522.135 885.28> 866 256<534.334 868.739>
VStem: 44 366<355.781 741.014> 604 154<-309 1390>
LayerCount: 2
Fore
SplineSet
758 1390 m 1
 758 -309 l 1
 604 -309 l 1
 604 1390 l 1
 758 1390 l 1
EndSplineSet
Refer: 90 99 N 1 0 0 1 0 0 2
EndChar

StartChar: circumflex
Encoding: 351 710 95
Width: 894
VWidth: 0
GlyphClass: 1
Flags: HW
PickledData: "(dp1
S'com.fontlab.hintData'
p2
(dp3
S'hhints'
p4
((dp5
S'position'
p6
I1430
sS'width'
p7
I175
stp8
ss."
HStem: 1430 175<321.586 573.044>
LayerCount: 2
Fore
SplineSet
880 1241 m 1
 602 1241 l 1
 446 1430 l 1
 290 1241 l 1
 16 1241 l 1
 322 1605 l 1
 573 1605 l 1
 880 1241 l 1
EndSplineSet
EndChar

StartChar: colon
Encoding: 352 58 96
Width: 635
VWidth: 0
GlyphClass: 1
Flags: HW
PickledData: "(dp1
S'com.fontlab.hintData'
p2
(dp3
S'vhints'
p4
((dp5
S'position'
p6
I101
sS'width'
p7
I434
stp8
sS'hhints'
p9
((dp10
g6
I-24
sg7
I437
s(dp11
g6
I660
sg7
I437
stp12
ss."
HStem: -24 437<188.081 452.405> 660 437<178.608 454.797>
VStem: 101 434<57.8926 328.305 737.305 1016.96>
LayerCount: 2
Back
SplineSet
535 851 m 5
 529.080200108 732.604002169 453.072338705 659.959933381 329.066387724 659.959933381 c 4
 327.38638318 659.959933381 325.697568962 659.973266631 324 660 c 4
 192 660 110 735 101 857 c 5
 101 902 l 5
 105.936525259 1020.47660621 182.03135288 1097.03804802 307.14936119 1097.03804802 c 4
 308.758151337 1097.03804802 310.375046626 1097.0253899 312 1097 c 4
 444 1097 526 1018 535 896 c 5
 535 851 l 5
535 162 m 4
 517.482326387 46.1887133392 430.824440176 -24.1605157222 297.148271553 -24.1605157222 c 4
 293.467671896 -24.1605157222 289.751427458 -24.1071836417 286 -24 c 4
 169.487108167 -7.35530116676 100.906050115 80.2285116611 100.906050115 215.286410901 c 4
 100.906050115 218.169384613 100.937299794 221.073990391 101 224 c 4
 118.65229618 338.739925171 206.511567396 413.086796212 341.941935707 413.086796212 c 4
 344.609557863 413.086796212 347.295636957 413.057950637 350 413 c 4
 465.566750781 396.350552854 535.092683799 304.884776842 535.092683799 170.542428713 c 4
 535.092683799 167.713860708 535.061862268 164.866285097 535 162 c 4
EndSplineSet
Fore
SplineSet
101.5 214 m 4
 101.5 332.128 197.372 428 315.5 428 c 4
 433.628 428 529.5 332.128 529.5 214 c 4
 529.5 95.872 433.628 0 315.5 0 c 4
 197.372 0 101.5 95.872 101.5 214 c 4
101.5 881.719726562 m 4
 101.5 999.847726563 197.372 1095.71972656 315.5 1095.71972656 c 4
 433.628 1095.71972656 529.5 999.847726563 529.5 881.719726562 c 4
 529.5 763.591726562 433.628 667.719726562 315.5 667.719726562 c 4
 197.372 667.719726562 101.5 763.591726562 101.5 881.719726562 c 4
EndSplineSet
EndChar

StartChar: comma
Encoding: 353 44 97
Width: 585
VWidth: 0
GlyphClass: 1
Flags: W
PickledData: "(dp1
S'com.fontlab.hintData'
p2
(dp3
S'hhints'
p4
((dp5
S'position'
p6
I-293
sS'width'
p7
I651
stp8
ss."
HStem: -250 609<174 293>
VStem: 111 420
LayerCount: 2
Fore
SplineSet
531 359 m 1
 293 -250 l 1
 111 -250 l 1
 174 359 l 1
 531 359 l 1
EndSplineSet
EndChar

StartChar: copyright
Encoding: 354 169 98
Width: 1847
VWidth: 0
GlyphClass: 1
Flags: HW
PickledData: "(dp1
S'com.fontlab.hintData'
p2
(dp3
S'vhints'
p4
((dp5
S'position'
p6
I65
sS'width'
p7
I211
s(dp8
g6
I500
sg7
I237
s(dp9
g6
I1212
sg7
I64
s(dp10
g6
I1571
sg7
I210
stp11
sS'hhints'
p12
((dp13
g6
I-142
sg7
I193
s(dp14
g6
I234
sg7
I166
s(dp15
g6
I970
sg7
I171
s(dp16
g6
I1310
sg7
I193
stp17
ss."
HStem: -142 193<694.749 1158.3> 234 166<839.398 1129.64> 972 171<834.972 1125.86> 1310 193<688.435 1155.01>
VStem: 65 211<451.564 902.677> 501 237<510.331 866.901> 1213 64<489.853 534.842> 1573 210<457.327 906.314>
LayerCount: 2
Fore
SplineSet
924 -142 m 0
 469 -142 65 204 65 681 c 0
 65 1132 451 1503 924 1503 c 0
 1385 1503 1783 1138 1783 681 c 0
 1783 229 1397 -142 924 -142 c 0
1573 681 m 0
 1573 1049 1266 1310 924 1310 c 0
 569 1310 276 1036 276 681 c 0
 276 311 584 51 924 51 c 0
 1272 51 1573 317 1573 681 c 0
1141 274 m 1
 1095 262 1017 231 925 234 c 1
 691 251 501 407 501 686 c 0
 501 964 695 1143 957 1143 c 0
 1065 1143 1164 1109 1244 1054 c 1
 1262 990 1273 919 1277 842 c 1
 1256 841 1234 841 1213 841 c 1
 1182 896 1095 972 970 972 c 0
 820 972 738 859 738 686 c 0
 738 517 829 400 971 400 c 0
 1107 400 1198 485 1213 535 c 1
 1277 535 l 1
 1263 411 1210 319 1141 274 c 1
EndSplineSet
EndChar

StartChar: currency
Encoding: 355 164 99
Width: 984
VWidth: 0
GlyphClass: 1
Flags: HW
PickledData: "(dp1
S'com.fontlab.hintData'
p2
(dp3
S'vhints'
p4
((dp5
S'position'
p6
I53
sS'width'
p7
I160
s(dp8
g6
I774
sg7
I160
stp9
sS'hhints'
p10
((dp11
g6
I289
sg7
I147
s(dp12
g6
I1022
sg7
I147
stp13
ss."
HStem: 289 147<335.939 653.182> 1024 147<335.939 653.182>
VStem: 53 160<558.243 901.616> 775 160<557.737 901.616>
DStem2: 139.097 1190 31.0566 1085 0.706701 -0.707512<0 148.164 1003.77 1151.87> 31.0566 375.069 139.097 268 0.70583 0.708382<0.412075 151.04 1004.49 1153.28>
LayerCount: 2
Fore
SplineSet
213 730 m 0
 213 549 327 436 495 436 c 0
 663 436 775 549 775 730 c 0
 775 911 663 1024 495 1024 c 0
 327 1024 213 911 213 730 c 0
31 375 m 1
 131 477 l 1
 86 532 53 630 53 730 c 0
 53 830 84 926 131 985 c 1
 31 1085 l 1
 139 1190 l 1
 240 1092 l 1
 297 1137 394 1171 495 1171 c 0
 595 1171 685 1139 746 1094 c 1
 847 1190 l 1
 953 1085 l 1
 855 985 l 1
 900 926 935 830 935 730 c 0
 935 628 900 532 855 475 c 1
 953 375 l 1
 847 268 l 1
 746 369 l 1
 685 322 595 289 495 289 c 0
 394 289 297 326 240 369 c 1
 139 268 l 1
 31 375 l 1
EndSplineSet
EndChar

StartChar: d
Encoding: 356 100 100
Width: 1283
VWidth: 0
GlyphClass: 1
Flags: HW
PickledData: "(dp1
S'com.fontlab.hintData'
p2
(dp3
S'vhints'
p4
((dp5
S'position'
p6
I70
sS'width'
p7
I365
s(dp8
g6
I792
sg7
I359
stp9
sS'hhints'
p10
((dp11
g6
I-22
sg7
I259
s(dp12
g6
I0
sg7
I21
s(dp13
g6
I858
sg7
I262
s(dp14
g6
I1501
sg7
I20
stp15
ss."
HStem: -22 259<362.646 704.434> 0 21G<792.779 1151.78> 860 262<498.99 696.856> 1501 20G<792.779 1151.78>
VStem: 70 365<339.282 783.545> 793 359<0 82 247.291 822.602 1018 1521>
LayerCount: 2
Fore
SplineSet
70 560 m 0xbc
 70 907 195 1122 514 1122 c 0
 631 1122 706 1079 793 1018 c 1
 793 1521 l 1
 1152 1521 l 1
 1152 0 l 1
 793 0 l 1x7c
 793 82 l 1
 709 14 637 -22 510 -22 c 0
 216 -22 70 223 70 560 c 0xbc
793 259 m 1
 793 803 l 1
 715 842 653 860 604 860 c 0
 471 860 435 728 435 540 c 0
 435 365 500 237 662 237 c 0
 700 237 744 244 793 259 c 1
EndSplineSet
EndChar

StartChar: dagger
Encoding: 357 8224 101
Width: 1254
VWidth: 0
GlyphClass: 1
Flags: HW
HStem: 871 219<128.234 488.891 764.896 1125.55> 1503 20G<492.891 764.896>
VStem: 489 273<-53 868 1090 1523>
LayerCount: 2
Fore
SplineSet
1126 868 m 1
 762 868 l 1
 762 -53 l 1
 489 -53 l 1
 489 871 l 1
 128 871 l 1
 128 1090 l 1
 493 1090 l 1
 493 1523 l 1
 765 1523 l 1
 765 1088 l 1
 1126 1088 l 1
 1126 868 l 1
EndSplineSet
EndChar

StartChar: daggerdbl
Encoding: 358 8225 102
Width: 1254
VWidth: 0
GlyphClass: 1
Flags: HW
HStem: 356 220<128.234 489.892 761.892 1125.55> 912 219<128.234 492.892 764.898 1125.55> 1503 20G<492.892 764.898>
VStem: 490 272<-50 354.089 576.095 908.992 1131 1523>
LayerCount: 2
Fore
SplineSet
1126 354 m 1
 762 354 l 1
 762 -50 l 1
 490 -50 l 1
 490 356 l 1
 128 356 l 1
 128 576 l 1
 495 576 l 1
 495 912 l 1
 128 912 l 1
 128 1131 l 1
 493 1131 l 1
 493 1523 l 1
 765 1523 l 1
 765 1128 l 1
 1126 1128 l 1
 1126 909 l 1
 760 909 l 1
 760 573 l 1
 1126 573 l 1
 1126 354 l 1
EndSplineSet
EndChar

StartChar: degree
Encoding: 359 176 103
Width: 1012
VWidth: 0
GlyphClass: 1
Flags: HW
PickledData: "(dp1
S'com.fontlab.hintData'
p2
(dp3
S'vhints'
p4
((dp5
S'position'
p6
I159
sS'width'
p7
I126
s(dp8
g6
I727
sg7
I127
stp9
sS'hhints'
p10
((dp11
g6
I809
sg7
I113
s(dp12
g6
I1354
sg7
I112
stp13
ss."
HStem: 809 113<372.783 641.112> 1354 112<372.99 636.966>
VStem: 159 126<1008.5 1266.56> 728 127<1008.93 1266.35>
LayerCount: 2
Fore
SplineSet
728 1138 m 0
 728 1255 630 1354 507 1354 c 0
 384 1354 285 1255 285 1138 c 0
 285 1016 385 922 507 922 c 0
 631 922 728 1019 728 1138 c 0
855 1138 m 0
 855 954 699 809 507 809 c 0
 315 809 159 955 159 1138 c 0
 159 1322 317 1466 507 1466 c 0
 699 1466 855 1321 855 1138 c 0
EndSplineSet
EndChar

StartChar: dieresis
Encoding: 360 168 104
Width: 888
VWidth: 0
GlyphClass: 1
Flags: HW
PickledData: "(dp1
S'com.fontlab.hintData'
p2
(dp3
S'vhints'
p4
((dp5
S'position'
p6
I399
sS'width'
p7
I86
stp8
sS'hhints'
p9
((dp10
g6
I1246
sg7
I281
stp11
ss."
HStem: 1246 279<184 483 483 699>
VStem: 184 515
LayerCount: 2
Fore
SplineSet
699 1246 m 1
 647 1248 597 1250 547 1250 c 0
 526 1250 505 1250 483 1249 c 1
 483 1246 l 1
 468 1247 454 1248 440 1248 c 0
 427 1248 413 1247 399 1246 c 1
 399 1249 l 1
 374 1250 349 1250 324 1250 c 0
 277 1250 232 1249 184 1246 c 1
 184 1527 l 1
 238 1525 291 1524 343 1524 c 2
 394 1524 l 1
 399 1524 l 1
 399 1527 l 1
 425 1526 450 1525 475 1525 c 0
 478 1525 482 1525 485 1525 c 1
 485 1525 l 0
 506 1525 526 1524 546 1524 c 0
 599 1524 648 1524 699 1525 c 1
 699 1246 l 1
EndSplineSet
EndChar

StartChar: divide
Encoding: 361 247 105
Width: 1589
VWidth: 0
GlyphClass: 1
Flags: W
PickledData: "(dp1
S'com.fontlab.hintData'
p2
(dp3
S'vhints'
p4
((dp5
S'position'
p6
I627
sS'width'
p7
I333
stp8
sS'hhints'
p9
((dp10
g6
I927
sg7
I345
stp11
ss."
HStem: 0 428<665.487 921.513> 526 250<161 1428> 877.5 428<665.487 921.513>
VStem: 579.5 428<85.9866 342.013 963.487 1219.51>
LayerCount: 2
Fore
SplineSet
579.5 214 m 0
 579.5 332.128 675.372 428 793.5 428 c 0
 911.628 428 1007.5 332.128 1007.5 214 c 0
 1007.5 95.872 911.628 0 793.5 0 c 0
 675.372 0 579.5 95.872 579.5 214 c 0
579.5 1091.5 m 0
 579.5 1209.628 675.372 1305.5 793.5 1305.5 c 0
 911.628 1305.5 1007.5 1209.628 1007.5 1091.5 c 0
 1007.5 973.372 911.628 877.5 793.5 877.5 c 0
 675.372 877.5 579.5 973.372 579.5 1091.5 c 0
1428 526 m 1
 161 526 l 1
 161 776 l 1
 1428 776 l 1
 1428 526 l 1
EndSplineSet
EndChar

StartChar: dollar
Encoding: 362 36 106
Width: 1244
VWidth: 0
GlyphClass: 1
Flags: HW
PickledData: "(dp1
S'com.fontlab.hintData'
p2
(dp3
S'vhints'
p4
((dp5
S'position'
p6
I76
sS'width'
p7
I359
s(dp8
g6
I822
sg7
I364
stp9
sS'hhints'
p10
((dp11
g6
I-7
sg7
I272
s(dp12
g6
I1128
sg7
I269
stp13
ss."
HStem: -7 272<318.497 538.327 700.327 781.212> 1128 269<473.115 538.327 700.327 927.688>
VStem: 76 359<906.286 1096.98> 538 162<-318 -7 266 543 879 1128 1398 1589> 823 364<309.451 503.743>
LayerCount: 2
Fore
SplineSet
1187 437 m 0
 1187 209 998 15 700 -4 c 1
 700 -318 l 1
 538 -318 l 1
 538 -7 l 1
 400 -6 179 52 79 123 c 1
 131 387 l 1
 146 381 161 374 177 368 c 1
 232 328 413 271 542 265 c 1
 542 564 l 1
 321 614 76 692 76 999 c 0
 76 1211 251 1366 538 1397 c 1
 538 1589 l 1
 700 1589 l 1
 700 1398 l 1
 820 1395 1004 1352 1090 1299 c 1
 1047 1035 l 1
 1029 1042 1013 1047 995 1052 c 1
 913 1100 810 1123 695 1129 c 1
 695 858 l 1
 1034 791 1187 681 1187 437 c 0
823 410 m 0
 823 470 787 526 689 543 c 1
 689 266 l 1
 769 280 823 327 823 410 c 0
550 879 m 1
 550 1128 l 1
 491 1122 435 1082 435 1001 c 0
 435 945 445 906 550 879 c 1
EndSplineSet
EndChar

StartChar: dotaccent
Encoding: 363 729 107
Width: 899
VWidth: 0
GlyphClass: 1
Flags: HW
PickledData: "(dp1
S'com.fontlab.hintData'
p2
(dp3
S'vhints'
p4
((dp5
S'position'
p6
I266
sS'width'
p7
I368
stp8
ss."
HStem: 1250 274<266.485 634.485>
VStem: 266 368
LayerCount: 2
Fore
SplineSet
634 1246 m 1
 563 1248 495 1250 426 1250 c 0
 372 1250 322 1249 266 1246 c 1
 266 1527 l 1
 336 1525 405 1524 472 1524 c 2
 522 1524 l 2
 560 1524 597 1524 635 1525 c 1
 634 1432 634 1339 634 1246 c 1
EndSplineSet
EndChar

StartChar: dotlessi
Encoding: 364 305 108
Width: 614
VWidth: 0
GlyphClass: 1
Flags: HW
PickledData: "(dp1
S'com.fontlab.hintData'
p2
(dp3
S'vhints'
p4
((dp5
S'position'
p6
I128
sS'width'
p7
I358
stp8
ss."
HStem: 0 21G<128 486> 1078 20G<128 486>
VStem: 128 358<0 1098>
LayerCount: 2
Fore
SplineSet
486 0 m 1
 128 0 l 1
 128 1098 l 1
 486 1098 l 1
 486 0 l 1
EndSplineSet
EndChar

StartChar: e
Encoding: 365 101 109
Width: 1207
VWidth: 0
GlyphClass: 1
Flags: W
PickledData: "(dp1
S'com.fontlab.hintData'
p2
(dp3
S'vhints'
p4
((dp5
S'position'
p6
I51
sS'width'
p7
I359
stp8
sS'hhints'
p9
((dp10
g6
I-25
sg7
I257
s(dp11
g6
I891
sg7
I229
stp12
ss."
HStem: -25 257<517.766 934.043> 466 215<410 797> 893 229<476.513 733.811>
VStem: 51 359<344.069 466 681 794.625>
LayerCount: 2
Fore
SplineSet
1145 466 m 1
 410 466 l 1
 424 286 552 232 720 232 c 0
 854 232 999 292 1072 352 c 1
 1127 96 l 1
 1042 36 912 -25 687 -25 c 0
 305 -25 51 147 51 544 c 0
 51 924 284 1122 632 1122 c 0
 956 1122 1145 940 1145 615 c 2
 1145 466 l 1
797 681 m 1
 791 821 724 893 607 893 c 0
 488 893 414 819 410 681 c 1
 797 681 l 1
EndSplineSet
EndChar

StartChar: eight
Encoding: 370 56 114
Width: 1432
VWidth: 0
GlyphClass: 1
Flags: HW
PickledData: "(dp1
S'com.fontlab.hintData'
p2
(dp3
S'vhints'
p4
((dp5
S'position'
p6
I136
sS'width'
p7
I370
s(dp8
g6
I173
sg7
I374
s(dp9
g6
I891
sg7
I362
s(dp10
g6
I921
sg7
I374
stp11
sS'hhints'
p12
((dp13
g6
I-26
sg7
I267
s(dp14
g6
I1240
sg7
I265
stp15
ss."
HStem: -26 267<589.816 858.054> 1240 265<592.13 841.755>
VStem: 136 370<320.165 578.671> 173 374<981.217 1194.02> 892 362<966.892 1190.41> 922 374<302.924 543.619>
LayerCount: 2
Fore
SplineSet
1296 420 m 0xc4
 1296 162 1078 -26 715 -26 c 0
 328 -26 136 163 136 410 c 0xe4
 136 569 223 672 385 746 c 1
 226 829 173 986 173 1094 c 0
 173 1310 366 1505 718 1505 c 0
 1065 1505 1237 1351 1254 1154 c 1xd8
 1258 1045 1197 867 1038 794 c 1
 1216 715 1296 585 1296 420 c 0xc4
922 409 m 0
 922 466 918 618 630 649 c 1
 570 619 506 543 506 450 c 0
 506 323 601 241 730 241 c 0
 804 241 922 292 922 409 c 0
892 1077 m 0xd8
 892 1177 822 1240 719 1240 c 0
 623 1240 547 1181 547 1096 c 0
 547 972 620 950 796 892 c 1
 847 932 892 986 892 1077 c 0xd8
EndSplineSet
EndChar

StartChar: ellipsis
Encoding: 371 8230 115
Width: 2241
VWidth: 0
GlyphClass: 1
Flags: HW
PickledData: "(dp1
S'com.fontlab.hintData'
p2
(dp3
S'vhints'
p4
((dp5
S'position'
p6
I201
sS'width'
p7
I343
s(dp8
g6
I1691
sg7
I353
stp9
sS'hhints'
p10
((dp11
g6
I0
sg7
I373
stp12
ss."
HStem: -3 376<201.367 544.367 950.097 1293.1 1696.83 2040.83>
VStem: 201 343<0 373> 945 348<0 373> 1697 344<0 373>
LayerCount: 2
Fore
SplineSet
2046 0 m 1
 1693 0 l 1
 1694 41 1697 80 1697 118 c 0
 1697 140 1696 161 1696 182 c 0
 1696 246 1694 309 1693 373 c 1
 2046 373 l 1
 2042 322 2041 274 2041 226 c 0
 2041 150 2045 77 2046 0 c 1
550 0 m 1
 198 0 l 1
 200 52 201 102 201 150 c 0
 201 225 200 297 198 373 c 1
 550 373 l 1
 547 322 544 271 544 224 c 0
 544 149 547 76 550 0 c 1
1293 -3 m 1
 1177 -1 1060 0 945 0 c 1
 948 129 950 253 950 379 c 1
 1065 376 1183 373 1297 373 c 1
 1295 246 1293 121 1293 -3 c 1
EndSplineSet
EndChar

StartChar: emdash
Encoding: 372 8212 116
Width: 1952
VWidth: 0
GlyphClass: 1
Flags: HW
PickledData: "(dp1
S'com.fontlab.hintData'
p2
(dp3
S'hhints'
p4
((dp5
S'position'
p6
I497
sS'width'
p7
I262
stp8
ss."
HStem: 497 262<-47.0858 1999.64>
LayerCount: 2
Fore
SplineSet
2000 497 m 1
 -47 497 l 1
 -47 759 l 1
 2000 759 l 1
 2000 497 l 1
EndSplineSet
EndChar

StartChar: endash
Encoding: 373 8211 117
Width: 1265
VWidth: 0
GlyphClass: 1
Flags: HW
PickledData: "(dp1
S'com.fontlab.hintData'
p2
(dp3
S'hhints'
p4
((dp5
S'position'
p6
I497
sS'width'
p7
I262
stp8
ss."
HStem: 497 262<-47.0858 1312.39>
LayerCount: 2
Fore
SplineSet
1312 497 m 1
 -47 497 l 1
 -47 759 l 1
 1312 759 l 1
 1312 497 l 1
EndSplineSet
EndChar

StartChar: equal
Encoding: 374 61 118
Width: 1590
VWidth: 0
GlyphClass: 1
Flags: HW
HStem: 242 249<181.33 1410.57> 730 249<181.33 1410.57>
LayerCount: 2
Fore
SplineSet
1411 730 m 1
 181 730 l 1
 181 979 l 1
 1411 979 l 1
 1411 730 l 1
1411 242 m 1
 181 242 l 1
 181 491 l 1
 1411 491 l 1
 1411 242 l 1
EndSplineSet
EndChar

StartChar: estimated
Encoding: 375 8494 119
Width: 1789
VWidth: 0
GlyphClass: 1
Flags: HW
PickledData: "(dp1
S'com.fontlab.hintData'
p2
(dp3
S'vhints'
p4
((dp5
S'position'
p6
I70
sS'width'
p7
I303
s(dp8
g6
I1413
sg7
I303
s(dp9
g6
I1425
sg7
I117
stp10
sS'hhints'
p11
((dp12
g6
I-10
sg7
I41
s(dp13
g6
I709
sg7
I39
s(dp14
g6
I1425
sg7
I45
stp15
ss."
HStem: -10 41<739.756 1054.45> 709 39<373.128 1415.03> 1425 45<725.988 1061.08>
VStem: 70 303<490.249 709 748 965.941> 1415 303<748 965.941> 1427 117<159 276>
LayerCount: 2
Fore
SplineSet
1415 762 m 2xf8
 1415 1167 l 2
 1415 1184 1409 1202 1397 1214 c 0
 1266 1341 1091 1425 894 1425 c 0
 699 1425 520 1339 391 1208 c 0
 379 1196 373 1178 373 1157 c 2
 373 762 l 2
 373 756 377 748 383 748 c 2
 1407 748 l 2
 1413 748 1415 756 1415 762 c 2xf8
1718 709 m 1
 383 709 l 2
 377 709 373 707 373 700 c 2
 373 297 l 2
 373 279 379 262 389 250 c 1
 518 117 697 31 894 31 c 0
 1107 31 1296 127 1427 276 c 1
 1544 276 l 1xf4
 1399 102 1158 -10 892 -10 c 0
 438 -10 70 319 70 727 c 0
 70 1139 438 1470 892 1470 c 0
 1350 1470 1718 1139 1718 727 c 2
 1718 709 l 1
EndSplineSet
EndChar

StartChar: eth
Encoding: 376 240 120
Width: 1024
VWidth: 0
GlyphClass: 1
Flags: HW
PickledData: "(dp1
S'com.fontlab.hintData'
p2
(dp3
S'vhints'
p4
((dp5
S'position'
p6
I84
sS'width'
p7
I209
s(dp8
g6
I731
sg7
I209
stp9
sS'hhints'
p10
((dp11
g6
I-12
sg7
I209
s(dp12
g6
I842
sg7
I209
stp13
ss."
HStem: -12 209<377.402 647.764> 842 209<377.208 648.811> 1106 21G<371.491 424.449>
VStem: 84 209<284.498 753.8> 732 209<281.927 914.164>
DStem2: 307.179 1219 385.321 1106 0.887947 0.459946<17.4123 191.702 446.89 636.681>
LayerCount: 2
Fore
SplineSet
385 1106 m 1
 307 1219 l 1
 477 1307 l 1
 426 1339 367 1366 295 1391 c 1
 360 1544 l 1
 483 1507 583 1458 660 1401 c 1
 873 1511 l 1
 951 1399 l 1
 767 1303 l 1
 927 1108 941 975 941 553 c 0
 941 297 927 229 828 121 c 1
 771 57 675 -12 513 -12 c 0
 351 -12 254 57 197 121 c 0
 117 209 84 295 84 520 c 0
 84 743 117 829 197 918 c 0
 254 981 351 1051 495 1051 c 0
 576 1051 656 1028 718 958 c 1
 722 963 l 1
 701 1065 654 1151 593 1212 c 1
 385 1106 l 1
732 518 m 0
 732 670 720 711 681 766 c 0
 650 809 585 842 513 842 c 0
 441 842 375 809 344 766 c 0
 305 711 293 670 293 520 c 0
 293 369 305 328 344 272 c 0
 375 229 441 197 513 197 c 0
 585 197 650 229 681 272 c 0
 720 328 732 369 732 518 c 0
EndSplineSet
EndChar

StartChar: exclam
Encoding: 377 33 121
Width: 639
VWidth: 0
GlyphClass: 1
Flags: HW
PickledData: "(dp1
S'com.fontlab.hintData'
p2
(dp3
S'vhints'
p4
((dp5
S'position'
p6
I218
sS'width'
p7
I235
stp8
sS'hhints'
p9
((dp10
g6
I-39
sg7
I325
stp11
ss."
HStem: -39 325<154.281 519.285> 1459 20G<144.263 527.299>
VStem: 156 363<-39 276.688> 218 235<409 616.229>
LayerCount: 2
Fore
SplineSet
527 1479 m 1xd0
 453 409 l 1
 218 409 l 1
 144 1479 l 1
 527 1479 l 1xd0
530 -39 m 1
 154 -39 l 1
 154 40 155 117 156 195 c 1
 152 223 148 250 144 278 c 1
 269 280 394 283 519 286 c 1xe0
 522 178 526 70 530 -39 c 1
EndSplineSet
EndChar

StartChar: exclamdown
Encoding: 378 161 122
Width: 639
VWidth: 0
GlyphClass: 1
Flags: HW
PickledData: "(dp1
S'com.fontlab.hintData'
p2
(dp3
S'vhints'
p4
((dp5
S'position'
p6
I112
sS'width'
p7
I384
s(dp8
g6
I141
sg7
I327
stp9
ss."
HStem: 1080 257<122.204 519.246>
VStem: 112 384<-143 386.815> 141 327<398.937 928.753>
LayerCount: 2
Fore
SplineSet
496 -143 m 1xc0
 112 -143 l 1xc0
 141 929 l 1
 468 929 l 1xa0
 496 -143 l 1xc0
519 1077 m 1
 444 1079 370 1080 296 1080 c 0
 238 1080 182 1080 122 1077 c 1
 122 1339 l 1
 197 1337 270 1337 343 1337 c 2
 398 1337 l 2
 439 1337 478 1338 520 1338 c 1
 519 1250 519 1164 519 1077 c 1
EndSplineSet
EndChar

StartChar: f
Encoding: 379 102 123
Width: 755
VWidth: 0
GlyphClass: 1
Flags: HW
PickledData: "(dp1
S'com.fontlab.hintData'
p2
(dp3
S'hhints'
p4
((dp5
S'position'
p6
I1273
sS'width'
p7
I255
stp8
ss."
HStem: 0 21G<160.292 518.292> 862 236<24.0438 160.292 518.292 756.726> 1273 255<541.315 787.783>
VStem: 160 358<0 862 1098 1253.37>
LayerCount: 2
Fore
SplineSet
788 1260 m 1
 731 1266 683 1273 643 1273 c 0
 555 1273 509 1240 509 1098 c 1
 757 1098 l 1
 757 862 l 1
 518 862 l 1
 518 0 l 1
 160 0 l 1
 160 862 l 1
 24 862 l 1
 24 1098 l 1
 160 1098 l 1
 160 1139 l 2
 160 1406 290 1528 574 1528 c 0
 652 1528 730 1522 788 1515 c 1
 788 1260 l 1
EndSplineSet
EndChar

StartChar: f_i
Encoding: 380 64257 124
Width: 1063
VWidth: 0
GlyphClass: 1
Flags: HW
PickledData: "(dp1
S'com.fontlab.hintData'
p2
(dp3
S'hhints'
p4
((dp5
S'position'
p6
I1249
sS'width'
p7
I209
stp8
ss."
HStem: 0 21G<168.307 377.307 713.92 922.92> 879 159<63.115 168.307 377.307 586.688> 1249 209<385.816 586.688 713.92 922.92>
VStem: 168 209<0 879 1038 1251.61> 714 209<0 1038 1249 1458>
LayerCount: 2
Fore
SplineSet
714 1249 m 1
 714 1458 l 1
 923 1458 l 1
 923 1249 l 1
 714 1249 l 1
714 0 m 1
 714 1038 l 1
 923 1038 l 1
 923 0 l 1
 714 0 l 1
168 0 m 1
 168 879 l 1
 63 879 l 1
 63 1038 l 1
 168 1038 l 1
 168 1176 l 2
 168 1370 290 1458 452 1458 c 2
 587 1458 l 1
 587 1262 l 1
 467 1262 l 2
 399 1262 377 1239 377 1176 c 2
 377 1038 l 1
 587 1038 l 1
 587 879 l 1
 377 879 l 1
 377 0 l 1
 168 0 l 1
EndSplineSet
EndChar

StartChar: f_l
Encoding: 381 64258 125
Width: 1101
VWidth: 0
GlyphClass: 1
Flags: HW
PickledData: "(dp1
S'com.fontlab.hintData'
p2
(dp3
S'hhints'
p4
((dp5
S'position'
p6
I1262
sS'width'
p7
I196
stp8
ss."
HStem: 0 197<931.673 1072.19> 879 159<63.115 168.307 377.307 586.688> 1262 196<385.816 586.688>
VStem: 168 209<0 879 1038 1251.61> 714 209<202.807 1458>
LayerCount: 2
Fore
SplineSet
714 252 m 2
 714 1458 l 1
 923 1458 l 1
 923 268 l 2
 923 221 949 197 1000 197 c 2
 1072 197 l 1
 1072 0 l 1
 980 0 l 2
 828 0 714 66 714 252 c 2
168 0 m 1
 168 879 l 1
 63 879 l 1
 63 1038 l 1
 168 1038 l 1
 168 1176 l 2
 168 1370 290 1458 452 1458 c 2
 587 1458 l 1
 587 1262 l 1
 467 1262 l 2
 399 1262 377 1239 377 1176 c 2
 377 1038 l 1
 587 1038 l 1
 587 879 l 1
 377 879 l 1
 377 0 l 1
 168 0 l 1
EndSplineSet
EndChar

StartChar: five
Encoding: 382 53 126
Width: 1244
VWidth: 0
GlyphClass: 1
Flags: W
PickledData: "(dp1
S'com.fontlab.hintData'
p2
(dp3
S'vhints'
p4
((dp5
S'position'
p6
I88
sS'width'
p7
I101
s(dp8
g6
I788
sg7
I380
stp9
sS'hhints'
p10
((dp11
g6
I-24
sg7
I296
s(dp12
g6
I713
sg7
I276
stp13
ss."
HStem: -24 295<336.521 708.269> 713 276<503.546 695.275> 1196 283<500 1124>
VStem: 116 73<374.151 411> 142 358<958 1196> 789 380<352.666 629.679>
LayerCount: 2
Fore
SplineSet
541 271 m 0xf4
 718 271 789 356 789 504 c 0
 789 660 645 713 509 713 c 0
 412 713 322 683 252 644 c 1
 142 652 l 1
 142 1479 l 1
 1124 1479 l 1
 1124 1196 l 1
 500 1196 l 1
 500 958 l 1xec
 556 978 624 989 668 989 c 0
 965 989 1169 855 1169 509 c 0
 1169 160 957 -24 591 -24 c 0
 375 -24 212 32 116 120 c 1
 116 411 l 1
 189 411 l 1
 185.982857143 382 373.045714286 271 541 271 c 0xf4
EndSplineSet
EndChar

StartChar: florin
Encoding: 383 402 127
Width: 1247
VWidth: 0
GlyphClass: 1
Flags: HW
PickledData: "(dp1
S'com.fontlab.hintData'
p2
(dp3
S'hhints'
p4
((dp5
S'position'
p6
I-256
sS'width'
p7
I274
s(dp8
g6
I1229
sg7
I275
stp9
ss."
HStem: -256 274<50.036 300.163> 674 213<292.533 440.803 835.522 1059.93> 1229 275<908.204 1173.13>
DStem2: 440.803 674 724.319 183 0.150587 0.988597<-620.254 0 270.011 590.046>
LayerCount: 2
Fore
SplineSet
1173 1212 m 1
 1152 1214 1084 1229 1026 1229 c 0
 888 1229 868 1133 855 1038 c 1
 836 887 l 1
 1069 887 l 1
 1060 674 l 1
 801 674 l 1
 724 183 l 2
 674 -141 480 -256 231 -256 c 0
 177 -256 82 -247 37 -237 c 1
 50 38 l 1
 81 38 136 18 204 18 c 0
 336 18 381 208 391 342 c 1
 441 674 l 1
 284 674 l 1
 293 887 l 1
 472 887 l 1
 502 1082 l 2
 558 1441 779 1504 1006 1504 c 0
 1058 1504 1127 1499 1185 1488 c 1
 1173 1212 l 1
EndSplineSet
EndChar

StartChar: four
Encoding: 384 52 128
Width: 1246
VWidth: 0
GlyphClass: 1
Flags: HW
HStem: 0 21G<634.155 843.155> 217 197<252.46 634.155 843.155 959.367>
VStem: 634 209<0 217 414 834>
DStem2: 25.0456 414 252.46 414 0.427499 0.904016<97.2192 1152.36>
LayerCount: 2
Fore
SplineSet
25 217 m 1
 25 414 l 1
 513 1458 l 1
 746 1458 l 1
 252 414 l 1
 634 414 l 1
 634 834 l 1
 843 834 l 1
 843 414 l 1
 959 414 l 1
 959 217 l 1
 843 217 l 1
 843 0 l 1
 634 0 l 1
 634 217 l 1
 25 217 l 1
EndSplineSet
EndChar

StartChar: fraction
Encoding: 385 8260 129
Width: 771
VWidth: 0
GlyphClass: 1
Flags: HW
HStem: -13 21G<-183.334 105.435> 1472 20G<654.924 941.715>
DStem2: -183.334 -13 94.1715 -13 0.491573 0.870837<136.414 1728.22>
LayerCount: 2
Fore
SplineSet
942 1492 m 1
 94 -13 l 1
 -183 -13 l 1
 666 1492 l 1
 942 1492 l 1
EndSplineSet
EndChar

StartChar: g
Encoding: 386 103 130
Width: 1264
VWidth: 0
GlyphClass: 1
Flags: W
PickledData: "(dp1
S'com.fontlab.hintData'
p2
(dp3
S'vhints'
p4
((dp5
S'position'
p6
I57
sS'width'
p7
I365
s(dp8
g6
I771
sg7
I367
stp9
sS'hhints'
p10
((dp11
g6
I-426
sg7
I267
s(dp12
g6
I7
sg7
I257
s(dp13
g6
I855
sg7
I265
s(dp14
g6
I1076
sg7
I20
stp15
ss."
HStem: -426 267<286.64 699.437> 7 257<489.797 680.949> 857 265<341 661.263> 1078 20G<770 1139>
VStem: 57 365<338.296 760.317> 772 367<-87.0478 117 290.739 844.681 971 1098>
LayerCount: 2
Fore
SplineSet
422 578 m 0xec
 422 357 468 264 622 264 c 0
 680 264 731 288 772 317 c 1
 772 830 l 1
 726 849 676 857 638 857 c 0
 503 857 422 748 422 578 c 0xec
57 572 m 0
 57 902 197 1122 485 1122 c 0xec
 600 1122 694 1082 772 971 c 1
 770 1098 l 1
 1139 1098 l 1xdc
 1139 93 l 2
 1139 -301 870 -426 557 -426 c 0
 397 -426 245 -384 143 -331 c 1
 202 -81 l 1
 285 -119 404 -159 505 -159 c 0
 726 -159 780 -79 780 117 c 1
 712 54 602 7 508 7 c 0
 170 7 57 196 57 572 c 0
EndSplineSet
EndChar

StartChar: germandbls
Encoding: 387 223 131
Width: 1310
VWidth: 0
GlyphClass: 1
Flags: HW
PickledData: "(dp1
S'com.fontlab.hintData'
p2
(dp3
S'vhints'
p4
((dp5
S'position'
p6
I124
sS'width'
p7
I359
s(dp8
g6
I634
sg7
I339
s(dp9
g6
I819
sg7
I350
s(dp10
g6
I883
sg7
I358
stp11
sS'hhints'
p12
((dp13
g6
I698
sg7
I273
s(dp14
g6
I1279
sg7
I253
stp15
ss."
HStem: 0 15G<124.226 483.226 733.561 896.65> 698 273<634.502 780.308> 1279 253<534.363 790.465>
VStem: 124 359<0 1233.38> 820 350<1008.31 1248.13> 884 358<327.803 581.258>
LayerCount: 2
Fore
SplineSet
1242 404 m 0xf4
 1242 118 1050 -6 744 -6 c 0
 724 -6 684 -2 639 -1 c 1
 639 272 l 1
 664 272 700 263 751 263 c 1
 745 266 737 267 731 267 c 1
 814 267 857 310 874 423 c 0
 879 450 882 482 884 520 c 0xf4
 889 661 831 698 635 698 c 1
 635 971 l 1
 738 971 820 996 820 1131 c 0
 820 1234 772 1281 655 1279 c 0
 491 1276 483 1180 483 1056 c 2
 483 0 l 1
 124 0 l 1
 124 1031 l 2
 124 1353 302 1532 661 1532 c 0
 990 1532 1170 1381 1170 1172 c 0xf8
 1170 1009 1060 888 919 865 c 1
 957 848 974 818 974 777 c 1
 1135 715 1242 576 1242 404 c 0xf4
EndSplineSet
EndChar

StartChar: grave
Encoding: 388 96 132
Width: 896
VWidth: 0
GlyphClass: 1
Flags: HW
PickledData: "(dp1
S'com.fontlab.hintData'
p2
(dp3
S'hhints'
p4
((dp5
S'position'
p6
I1239
sS'width'
p7
I366
stp8
ss."
HStem: 1239 366<463 497>
VStem: 147 566
LayerCount: 2
Fore
SplineSet
713 1239 m 1
 463 1239 l 1
 147 1605 l 1
 497 1605 l 1
 713 1239 l 1
EndSplineSet
EndChar

StartChar: greater
Encoding: 389 62 133
Width: 1590
VWidth: 0
GlyphClass: 1
Flags: HW
HStem: -15 21G<161.294 211.619>
DStem2: 161.294 1234 161.294 970 0.929056 -0.36994<97.6641 1088.06> 161.294 249 161.294 -15 0.929302 0.369319<0 990.774>
LayerCount: 2
Fore
SplineSet
1455 499 m 1
 161 -15 l 1
 161 249 l 1
 1084 610 l 1
 161 970 l 1
 161 1234 l 1
 1455 719 l 1
 1455 499 l 1
EndSplineSet
EndChar

StartChar: greaterequal
Encoding: 390 8805 134
Width: 1291
VWidth: 0
GlyphClass: 1
Flags: HW
HStem: 1 177<186.339 1106.01>
DStem2: 202.369 438 202.369 234 0.90816 0.418622<0 733.925>
LayerCount: 2
Fore
SplineSet
1094 645 m 1
 202 234 l 1
 202 438 l 1
 880 722 l 1
 880 726 l 1
 202 1022 l 1
 202 1227 l 1
 1094 803 l 1
 1094 645 l 1
1106 1 m 1
 186 1 l 1
 186 178 l 1
 1106 178 l 1
 1106 1 l 1
EndSplineSet
EndChar

StartChar: guillemotleft
Encoding: 391 171 135
Width: 1373
VWidth: 0
GlyphClass: 1
Flags: HW
PickledData: "(dp1
S'com.fontlab.hintData'
p2
(dp3
S'hhints'
p4
((dp5
S'position'
p6
I158
sS'width'
p7
I213
stp8
ss."
HStem: 158 213<446.201 659.201 895.018 1108.02>
DStem2: 352.642 617.697 139.254 586.609 0.774608 -0.632441<0 393.484> 156.285 664.83 352.642 617.697 0.768792 0.639498<120.817 522.599> 809.474 617.697 600.093 587.612 0.782354 -0.622834<0 381.597> 607.106 656.807 809.474 617.697 0.771346 0.636416<131.206 521.848>
LayerCount: 2
Fore
SplineSet
664 158 m 1
 435 340 l 1
 337 422 237 505 139 587 c 1
 156 665 l 1
 654 1079 l 1
 664 871 l 1
 353 618 l 1
 659 371 l 1
 664 158 l 1
1114 172 m 1
 937 304 770 448 600 588 c 1
 617 664 l 1
 613 662 610 659 607 657 c 2
 1103 1066 l 1
 1114 862 l 1
 809 618 l 1
 1108 380 l 1
 1114 172 l 1
EndSplineSet
EndChar

StartChar: guillemotright
Encoding: 392 187 136
Width: 1374
VWidth: 0
GlyphClass: 1
Flags: HW
HStem: 855 208<88.1606 296.161>
DStem2: 89.1624 380.626 279.509 321.461 0.77895 0.627086<0 385.487> 88.1606 1062.95 95.1734 854.947 0.780927 -0.624623<135.398 515.579> 657.197 364.581 671.223 156 0.77741 0.628994<0 403.353> 820.495 953.823 663.208 867.947 0.772997 -0.63441<-67.1017 329.028>
LayerCount: 2
Fore
SplineSet
604 590 m 1
 496 501 388 411 280 321 c 1
 87 174 l 1
 89 381 l 1
 393 618 l 1
 294 697 195 777 95 855 c 1
 88 1063 l 1
 241 947 389 826 537 705 c 0
 576 674 583 668 587 664 c 1
 604 590 l 1
1188 590 m 1
 1015 446 841 303 671 156 c 1
 657 365 l 1
 971 618 l 1
 869 701 765 786 663 868 c 1
 664 1082 l 1
 716 1038 768 996 820 954 c 2
 1094 729 l 2
 1115 712 1141 689 1168 668 c 1
 1188 590 l 1
EndSplineSet
EndChar

StartChar: guilsinglleft
Encoding: 393 8249 137
Width: 797
VWidth: 0
GlyphClass: 1
Flags: HW
PickledData: "(dp1
S'com.fontlab.hintData'
p2
(dp3
S'hhints'
p4
((dp5
S'position'
p6
I820
sS'width'
p7
I296
stp8
ss."
HStem: 822 296<351.206 647.206>
VStem: 106 534
DStem2: 401.193 630.437 106.193 584.301 0.780924 -0.624626<0 329.536> 116.193 691.617 401.193 630.437 0.779741 0.626103<183.921 494.123>
LayerCount: 2
Fore
SplineSet
640 142 m 1
 464 291 285 437 106 584 c 1
 125 698 l 1
 116 692 l 1
 647 1118 l 1
 645 822 l 1
 401 630 l 1
 544 516 l 2
 578 490 610 462 643 437 c 1
 641 339 640 241 640 142 c 1
EndSplineSet
EndChar

StartChar: guilsinglright
Encoding: 394 8250 138
Width: 797
VWidth: 0
GlyphClass: 1
Flags: HW
HStem: 1096 20G<157.082 181.029>
VStem: 157 533
DStem2: 360.286 945 154.281 822 0.774156 -0.632995<-81.622 228.67> 157.286 437 360.286 314 0.771178 0.63662<0 307.314>
LayerCount: 2
Fore
SplineSet
690 582 m 1
 580 492 470 403 360 314 c 1
 157 142 l 1
 157 437 l 1
 397 629 l 1
 315 692 235 757 154 822 c 1
 157 1116 l 1
 360 945 l 1
 464 861 569 771 678 690 c 1
 690 582 l 1
EndSplineSet
EndChar

StartChar: h
Encoding: 395 104 139
Width: 1294
VWidth: 0
GlyphClass: 1
Flags: HW
PickledData: "(dp1
S'com.fontlab.hintData'
p2
(dp3
S'vhints'
p4
((dp5
S'position'
p6
I126
sS'width'
p7
I358
s(dp8
g6
I813
sg7
I361
stp9
sS'hhints'
p10
((dp11
g6
I0
sg7
I21
s(dp12
g6
I830
sg7
I290
s(dp13
g6
I1500
sg7
I20
stp14
ss."
HStem: 0 21G<126.23 484.23 813.83 1174.83> 832 290<631.189 917.612> 1500 20G<126.23 484.23>
VStem: 126 358<0 810.19 966 1520> 814 361<0 780.321>
LayerCount: 2
Fore
SplineSet
484 1520 m 1
 484 966 l 1
 499 983 l 1
 600 1071 685 1122 812 1122 c 0
 1024 1122 1175 982 1175 721 c 2
 1175 0 l 1
 814 0 l 1
 814 590 l 2
 814 759 772 832 644 832 c 0
 588 832 541 821 484 789 c 1
 484 0 l 1
 126 0 l 1
 126 1520 l 1
 484 1520 l 1
EndSplineSet
EndChar

StartChar: hungarumlaut
Encoding: 396 733 140
Width: 892
VWidth: 0
GlyphClass: 1
Flags: HW
PickledData: "(dp1
S'com.fontlab.hintData'
p2
(dp3
S'hhints'
p4
((dp5
S'position'
p6
I1239
sS'width'
p7
I366
stp8
ss."
HStem: 1239 366<241 409>
VStem: 187 630
LayerCount: 2
Fore
SplineSet
410 1239 m 1
 313 1239 l 1
 187 1239 l 1
 368 1605 l 1
 495 1605 l 1
 691 1605 l 1
 817 1605 l 1
 536 1239 l 1
 410 1239 l 1
EndSplineSet
EndChar

StartChar: hyphen
Encoding: 397 45 141
Width: 891
VWidth: 0
GlyphClass: 1
Flags: HW
PickledData: "(dp1
S'com.fontlab.hintData'
p2
(dp3
S'hhints'
p4
((dp5
S'position'
p6
I489
sS'width'
p7
I279
stp8
ss."
HStem: 489 279<101.184 789.438>
LayerCount: 2
Fore
SplineSet
789 489 m 1
 101 489 l 1
 101 768 l 1
 789 768 l 1
 789 489 l 1
EndSplineSet
EndChar

StartChar: i
Encoding: 398 105 142
Width: 614
VWidth: 0
GlyphClass: 1
Flags: W
PickledData: "(dp1
S'com.fontlab.hintData'
p2
(dp3
S'vhints'
p4
((dp5
S'position'
p6
I127
sS'width'
p7
I358
stp8
sS'hhints'
p9
((dp10
g6
I0
sg7
I21
s(dp11
g6
I1076
sg7
I20
s(dp12
g6
I1264
sg7
I270
stp13
ss."
HStem: 0 21G<128 383.518> 1083 20G<128 384.5> 1241.6 397<172.433 440.567>
VStem: 99.3154 414.369<1314.58 1565.62> 128 255.5<0 1103>
LayerCount: 2
Fore
SplineSet
306.5 1638.59960938 m 0xf0
 444.444379136 1638.59960938 513.684570312 1539.09360568 513.684570312 1439.71582031 c 0
 513.684570312 1340.59393534 444.800338607 1241.59960938 306.5 1241.59960938 c 0
 168.555620864 1241.59960938 99.3154296875 1341.10561307 99.3154296875 1440.48339844 c 0
 99.3154296875 1539.60528341 168.199661393 1638.59960938 306.5 1638.59960938 c 0xf0
128 0 m 1xe8
 128 1103 l 1
 384.5 1103 l 1
 383.5 0 l 1
 128 0 l 1xe8
EndSplineSet
EndChar

StartChar: infinity
Encoding: 403 8734 147
Width: 1595
VWidth: 0
GlyphClass: 1
Flags: HW
PickledData: "(dp1
S'com.fontlab.hintData'
p2
(dp3
S'vhints'
p4
((dp5
S'position'
p6
I78
sS'width'
p7
I190
s(dp8
g6
I1328
sg7
I191
stp9
sS'hhints'
p10
((dp11
g6
I216
sg7
I176
s(dp12
g6
I781
sg7
I174
stp13
ss."
HStem: 222 177<332.356 577.484 1015.8 1272.66> 789 174<333.013 576.321 1033.36 1256.41>
VStem: 78 190<466.923 723.614> 1330 191<457.728 714.809>
LayerCount: 2
Fore
SplineSet
800 457 m 1
 699 310 583 222 431 222 c 0
 230 222 78 374 78 595 c 0
 78 799 234 963 435 963 c 0
 587 963 705 876 802 724 c 1
 897 861 1014 957 1171 957 c 0
 1376 956 1521 808 1521 588 c 0
 1521 377 1361 216 1166 216 c 0
 1026 216 908 291 800 457 c 1
710 590 m 1
 634 712 554 789 450 789 c 0
 340 789 268 704 268 592 c 0
 268 481 344 399 454 399 c 0
 553 399 635 475 710 590 c 1
891 588 m 1
 980 455 1056 392 1150 392 c 0
 1258 392 1330 483 1330 586 c 0
 1330 701 1255 783 1147 783 c 0
 1047 783 961 696 891 588 c 1
EndSplineSet
EndChar

StartChar: integral
Encoding: 404 8747 148
Width: 1016
VWidth: 0
GlyphClass: 1
Flags: HW
PickledData: "(dp1
S'com.fontlab.hintData'
p2
(dp3
S'vhints'
p4
((dp5
S'position'
p6
I369
sS'width'
p7
I268
stp8
sS'hhints'
p9
((dp10
g6
I-436
sg7
I213
s(dp11
g6
I1411
sg7
I208
stp12
ss."
HStem: -436 213<131.982 333.451> 1411 208<686.095 885.509>
VStem: 379 268<-174.372 1365.88>
LayerCount: 2
Fore
SplineSet
885 1388 m 1
 853 1402 820 1411 787 1411 c 0
 711 1411 667 1369 658 1287 c 1
 643 1228 638 1148 638 1046 c 0
 638 747 647 451 647 143 c 0
 647 80 646 19 645 -41 c 1
 636 -302 492 -436 271 -436 c 0
 210 -436 158 -425 121 -412 c 1
 132 -200 l 1
 165 -214 200 -223 233 -223 c 0
 324 -223 379 -170 379 19 c 0
 379 411 370 792 370 1176 c 0
 370 1462 512 1619 751 1619 c 0
 809 1619 859 1611 894 1599 c 1
 885 1388 l 1
EndSplineSet
EndChar

StartChar: j
Encoding: 405 106 149
Width: 710
VWidth: 0
GlyphClass: 1
Flags: W
PickledData: "(dp1
S'com.fontlab.hintData'
p2
(dp3
S'vhints'
p4
((dp5
S'position'
p6
I216
sS'width'
p7
I360
stp8
sS'hhints'
p9
((dp10
g6
I-419
sg7
I264
s(dp11
g6
I855
sg7
I241
s(dp12
g6
I1264
sg7
I270
stp13
ss."
HStem: -419 264<-65.273 284.562> 1078 20G<216 576> 1241.6 397<263.532 531.667>
VStem: 190.415 414.369<1314.58 1565.62> 216 360<-100.451 1098>
LayerCount: 2
Fore
SplineSet
397.599609375 1638.59960938 m 0xf0
 535.543988511 1638.59960938 604.784179688 1539.09360568 604.784179688 1439.71582031 c 0
 604.784179688 1340.59393534 535.899947982 1241.59960938 397.599609375 1241.59960938 c 0
 259.655230239 1241.59960938 190.415039062 1341.10561307 190.415039062 1440.48339844 c 0
 190.415039062 1539.60528341 259.299270768 1638.59960938 397.599609375 1638.59960938 c 0xf0
158 -419 m 0
 48 -419 -33 -408 -67 -404 c 1
 -67 -147 l 1
 -28 -151 8 -155 41 -155 c 0
 149 -155 216 -112 216 104 c 2
 216 1098 l 1
 576 1098 l 1
 576 -58 l 2xe8
 576 -291 403 -419 158 -419 c 0
EndSplineSet
EndChar

StartChar: k
Encoding: 406 107 150
Width: 1234
VWidth: 0
GlyphClass: 1
Flags: W
HStem: 0 21G<123 483 816.076 1201.24> 1501 20G<123 483>
VStem: 123 360<0 383 672 1521>
LayerCount: 2
Fore
SplineSet
1201 0 m 1
 827 0 l 1
 561 487 l 1
 483 383 l 1
 483 0 l 1
 123 0 l 1
 123 1521 l 1
 483 1521 l 1
 483 672 l 1
 484 672 l 1
 797 1096 l 1
 1181 1096 l 1
 1181 1049 l 1
 856 649 l 1
 1202 83 l 1
 1201 0 l 1
EndSplineSet
EndChar

StartChar: l
Encoding: 407 108 151
Width: 667
VWidth: 0
GlyphClass: 1
Flags: W
PickledData: "(dp1
S'com.fontlab.hintData'
p2
(dp3
S'hhints'
p4
((dp5
S'position'
p6
I0
sS'width'
p7
I241
stp8
ss."
HStem: 0 241<505.115 630> 1500 20G<126 484>
VStem: 126 358<270.912 1520>
LayerCount: 2
Fore
SplineSet
484 1520 m 1
 484 377 l 2
 484 317 486 241 630 241 c 1
 630 0 l 1
 543 0 l 2
 126 0 126 185 126 377 c 2
 126 1520 l 1
 484 1520 l 1
EndSplineSet
EndChar

StartChar: less
Encoding: 408 60 152
Width: 1590
VWidth: 0
GlyphClass: 1
Flags: HW
HStem: -15 21G<1379.34 1429.6>
DStem2: 135.246 720 763.391 712 0.929401 0.369073<280.92 1295.24> 472.861 618 135.246 500 0.929154 -0.369693<0 1025.38>
LayerCount: 2
Fore
SplineSet
1430 -15 m 1
 135 500 l 1
 135 720 l 1
 1430 1234 l 1
 1430 970 l 1
 763 712 l 1
 666 681 570 650 473 618 c 1
 562 584 652 550 741 517 c 1
 1430 249 l 1
 1430 -15 l 1
EndSplineSet
EndChar

StartChar: lessequal
Encoding: 409 8804 153
Width: 1350
VWidth: 0
GlyphClass: 1
Flags: HW
HStem: 1 177<195.356 1156.11>
DStem2: 437.797 724 211.385 645 0.914773 -0.403969<0 759.794>
LayerCount: 2
Fore
SplineSet
1142 234 m 1
 211 645 l 1
 211 804 l 1
 1142 1227 l 1
 1142 1022 l 1
 438 728 l 1
 438 724 l 1
 1142 438 l 1
 1142 234 l 1
1156 1 m 1
 195 1 l 1
 195 178 l 1
 1156 178 l 1
 1156 1 l 1
EndSplineSet
EndChar

StartChar: logicalnot
Encoding: 410 172 154
Width: 1589
VWidth: 0
GlyphClass: 1
Flags: HW
HStem: 577 250<161.294 1147.09>
VStem: 1147 275<105 577>
LayerCount: 2
Fore
SplineSet
1422 105 m 1
 1147 105 l 1
 1147 577 l 1
 161 577 l 1
 161 827 l 1
 1422 827 l 1
 1422 105 l 1
EndSplineSet
EndChar

StartChar: lozenge
Encoding: 411 9674 155
Width: 1205
VWidth: 0
GlyphClass: 1
Flags: HW
DStem2: 304.555 718 83.1515 715 0.512476 -0.858702<0 606.055> 83.1515 715 304.555 718 0.514849 0.857281<116.561 719.659> 599.091 188 666.214 -32 0.517876 0.855456<0 618.525>
LayerCount: 2
Fore
SplineSet
1119 716 m 1
 666 -32 l 1
 529 -32 l 1
 83 715 l 1
 533 1464 l 1
 670 1464 l 1
 1119 716 l 1
899 714 m 1
 799 886 681 1074 603 1244 c 1
 582 1219 557 1158 537 1122 c 2
 305 718 l 1
 537 307 l 1
 558 267 580 223 599 188 c 1
 665 288 817 585 899 714 c 1
EndSplineSet
EndChar

StartChar: lslash
Encoding: 412 322 156
Width: 528
VWidth: 0
GlyphClass: 1
Flags: HW
HStem: 0 197<353.261 494.52>
VStem: 135 209<202.807 633 784 793 944 1458>
DStem2: 0 678 135.246 633 0.789303 0.614003<0 79.1202 435.04 514.16>
LayerCount: 2
Fore
SplineSet
135 252 m 2
 135 633 l 1
 0 526 l 1
 0 678 l 1
 135 784 l 1
 135 1458 l 1
 344 1458 l 1
 344 944 l 1
 479 1051 l 1
 479 899 l 1
 344 793 l 1
 344 268 l 2
 344 221 371 197 412 197 c 2
 495 197 l 1
 495 0 l 1
 401 0 l 2
 250 0 135 66 135 252 c 2
EndSplineSet
EndChar

StartChar: m
Encoding: 413 109 157
Width: 1949
VWidth: 0
GlyphClass: 1
Flags: HW
PickledData: "(dp1
S'com.fontlab.hintData'
p2
(dp3
S'vhints'
p4
((dp5
S'position'
p6
I794
sS'width'
p7
I358
s(dp8
g6
I1466
sg7
I358
stp9
sS'hhints'
p10
((dp11
g6
I826
sg7
I294
s(dp12
g6
I826
sg7
I79
stp13
ss."
HStem: 0 21G<130.237 488.237 794.796 1152.8 1467.37 1825.37> 828 294<598.939 889.594 1289.4 1570.16> 828 79<488.237 631.498> 1078 20G<130.237 488.237>
VStem: 130 358<0 800.591 907 1098> 795 358<0 786.161> 1467 358<0 772.575>
LayerCount: 2
Fore
SplineSet
1467 0 m 1xce
 1467 565 l 2
 1467 762 1430 828 1299 828 c 0
 1238 828 1153 771 1153 730 c 2
 1153 0 l 1
 795 0 l 1
 795 592 l 2
 795 768 752 828 631 828 c 0xce
 566 828 488 792 488 730 c 2
 488 0 l 1
 130 0 l 1
 130 1098 l 1
 488 1098 l 1
 488 907 l 1xbe
 489 907 503 934 504 934 c 0
 570 1048 695 1122 829 1122 c 0
 951 1122 1058 1062 1116 931 c 1
 1211 1059 1346 1122 1475 1122 c 0
 1665 1122 1826 1003 1825 722 c 1
 1825 0 l 1
 1467 0 l 1xce
EndSplineSet
EndChar

StartChar: macron
Encoding: 414 175 158
Width: 492
VWidth: 0
GlyphClass: 1
Flags: HW
PickledData: "(dp1
S'com.fontlab.hintData'
p2
(dp3
S'vhints'
p4
((dp5
S'position'
p6
I-49
sS'width'
p7
I590
stp8
sS'hhints'
p9
((dp10
g6
I1243
sg7
I135
stp11
ss."
HStem: 1243 135<-49 541>
VStem: -49 590<1243 1378>
LayerCount: 2
Fore
SplineSet
-49 1243 m 1
 -49 1378 l 1
 541 1378 l 1
 541 1243 l 1
 -49 1243 l 1
EndSplineSet
EndChar

StartChar: minus
Encoding: 415 8722 159
Width: 1230
VWidth: 0
GlyphClass: 1
Flags: HW
PickledData: "(dp1
S'com.fontlab.hintData'
p2
(dp3
S'hhints'
p4
((dp5
S'position'
p6
I438
sS'width'
p7
I160
stp8
ss."
HStem: 438 160<96.1752 1135.07>
LayerCount: 2
Fore
SplineSet
96 438 m 1
 96 598 l 1
 1135 598 l 1
 1135 438 l 1
 96 438 l 1
EndSplineSet
EndChar

StartChar: mu
Encoding: 416 181 160
Width: 1100
VWidth: 0
GlyphClass: 1
Flags: HW
PickledData: "(dp1
S'com.fontlab.hintData'
p2
(dp3
S'vhints'
p4
((dp5
S'position'
p6
I135
sS'width'
p7
I209
s(dp8
g6
I756
sg7
I209
stp9
sS'hhints'
p10
((dp11
g6
I-12
sg7
I209
stp12
ss."
HStem: -420 21G<135.246 344.246> -12 209<420.644 659.596>
VStem: 135 209<-420 18 274.961 1040> 757 209<0 111 274.961 1040>
LayerCount: 2
Fore
SplineSet
135 -420 m 1
 135 1040 l 1
 344 1040 l 1
 344 421 l 2
 344 280 433 197 552 197 c 0
 669 197 757 280 757 421 c 2
 757 1040 l 1
 966 1040 l 1
 966 0 l 1
 757 0 l 1
 757 111 l 1
 753 111 l 1
 687 29 593 -12 484 -12 c 0
 437 -12 389 -2 344 18 c 1
 344 -420 l 1
 135 -420 l 1
EndSplineSet
EndChar

StartChar: multiply
Encoding: 417 215 161
Width: 1230
VWidth: 0
GlyphClass: 1
Flags: HW
DStem2: 250.456 999 137.25 884.761 0.707431 -0.706782<0.656531 517.199 675.901 1190.92> 504.92 518.996 615.12 410.769 0.707851 0.706361<-516.347 0 157.992 674.481>
LayerCount: 2
Fore
SplineSet
137 156 m 1
 505 519 l 1
 137 885 l 1
 250 999 l 1
 615 632 l 1
 979 999 l 1
 1094 885 l 1
 726 519 l 1
 1094 156 l 1
 979 43 l 1
 615 411 l 1
 250 43 l 1
 137 156 l 1
EndSplineSet
EndChar

StartChar: n
Encoding: 418 110 162
Width: 1294
VWidth: 0
GlyphClass: 1
Flags: W
PickledData: "(dp1
S'com.fontlab.hintData'
p2
(dp3
S'vhints'
p4
((dp5
S'position'
p6
I816
sS'width'
p7
I358
stp8
sS'hhints'
p9
((dp10
g6
I826
sg7
I294
stp11
ss."
HStem: 0 21G<126 484 817 1175> 828 294<607.5 906.5> 1078 20G<126 484>
VStem: 126 358<0 803.27 899 1098> 817 358<0 771.808>
LayerCount: 2
Fore
SplineSet
817 0 m 1xd8
 817 553 l 2
 817 734 789 828 641 828 c 0xd8
 574 828 484 807 484 729 c 2
 484 0 l 1
 126 0 l 1
 126 1098 l 1
 484 1098 l 1xb8
 484 899 l 1
 561 1028 665 1122 818 1122 c 0
 995 1122 1175 997 1175 736 c 2
 1175 0 l 1
 817 0 l 1xd8
EndSplineSet
EndChar

StartChar: nine
Encoding: 419 57 163
Width: 1245
VWidth: 0
GlyphClass: 1
Flags: HW
PickledData: "(dp1
S'com.fontlab.hintData'
p2
(dp3
S'vhints'
p4
((dp5
S'position'
p6
I60
sS'width'
p7
I379
s(dp8
g6
I786
sg7
I376
stp9
sS'hhints'
p10
((dp11
g6
I520
sg7
I260
s(dp12
g6
I1242
sg7
I260
stp13
ss."
HStem: 0 21G<244.109 256.61> 520 260<455.443 670.485> 1242 260<507.016 709.305>
VStem: 60 379<846.43 1164.09> 787 376<800.428 1149.31>
LayerCount: 2
Fore
SplineSet
1133 673 m 1
 1050 327 837 75 441 5 c 1
 383 -2 260 8 253 0 c 1
 235 81 216 160 194 238 c 1
 235 244 l 1
 265 241 311 235 407 246 c 1
 544 299 674 390 724 593 c 1
 644 549 588 520 475 520 c 0
 435 520 400 526 369 534 c 1
 336 540 305 549 275 562 c 1
 150 623 60 755 60 982 c 0
 60 1300 281 1502 611 1502 c 0
 953 1502 1170 1291 1163 877 c 0
 1162 805 1153 735 1133 673 c 1
787 933 m 0
 787 1144 721 1242 607 1242 c 0
 546 1242 439 1185 439 1003 c 0
 439 826 540 780 646 780 c 0
 723 780 768 809 772 824 c 1
 780 835 787 878 787 933 c 0
EndSplineSet
EndChar

StartChar: notequal
Encoding: 420 8800 164
Width: 1350
VWidth: 0
GlyphClass: 1
Flags: HW
HStem: 288 174<194.354 417.761 712.297 1156.11> 705 175<194.354 630.148 924.684 1156.11>
DStem2: 296.54 54 496.905 41 0.456407 0.889771<79.881 263.532 552.781 731.502 1021.64 1215.59>
LayerCount: 2
Fore
SplineSet
1156 288 m 1
 625 288 l 1
 497 41 l 1
 297 54 l 1
 418 288 l 1
 194 288 l 1
 194 462 l 1
 507 462 l 1
 630 705 l 1
 194 705 l 1
 194 880 l 1
 719 880 l 1
 851 1136 l 1
 1052 1123 l 1
 925 880 l 1
 1156 880 l 1
 1156 705 l 1
 838 705 l 1
 712 462 l 1
 1156 462 l 1
 1156 288 l 1
EndSplineSet
EndChar

StartChar: numbersign
Encoding: 422 35 166
Width: 1504
VWidth: 0
GlyphClass: 1
Flags: HW
PickledData: "(dp1
S'com.fontlab.hintData'
p2
(dp3
S'vhints'
p4
((dp5
S'position'
p6
I225
sS'width'
p7
I247
s(dp8
g6
I553
sg7
I249
s(dp9
g6
I714
sg7
I244
s(dp10
g6
I1042
sg7
I249
stp11
sS'hhints'
p12
((dp13
g6
I1117
sg7
I21
stp14
ss."
HStem: -2 21G<225.411 476.665 714.558 962.92> 370 222<69.1259 305.411 601.558 793.558 1089.71 1334.79> 897 222<172.314 426.411 725.558 917.558 1213.71 1435.97> 1459 20G<549.273 802.558 1038.37 1291.71>
VStem: 225 247<-2 245> 554 249<1230 1479> 715 244<-2 242> 1043 249<1230 1479>
DStem2: 225.411 -2 472.411 -2 0.217581 0.976042<53.7426 380.591 659.757 921.196 1202.97 1516.92> 714.558 -2 958.558 -2 0.219467 0.97562<53.55 380.365 661.949 923.585 1203.22 1516.91>
LayerCount: 2
Fore
SplineSet
1436 897 m 1xfd
 1162 897 l 1
 1090 592 l 1
 1335 592 l 1
 1335 370 l 1
 1040 370 l 1
 959 -2 l 1
 715 -2 l 1xfb
 794 370 l 1
 552 370 l 1
 472 -2 l 1
 225 -2 l 1
 305 370 l 1
 69 370 l 1
 69 592 l 1
 355 592 l 1
 426 897 l 1
 172 897 l 1
 172 1119 l 1
 476 1119 l 1
 554 1479 l 1
 803 1479 l 1
 726 1119 l 1
 965 1119 l 1
 1043 1479 l 1
 1292 1479 l 1
 1214 1119 l 1
 1436 1119 l 1
 1436 897 l 1xfd
918 899 m 1
 674 899 l 1
 602 590 l 1
 847 590 l 1
 918 899 l 1
EndSplineSet
EndChar

StartChar: o
Encoding: 423 111 167
Width: 1235
VWidth: 0
GlyphClass: 1
Flags: W
PickledData: "(dp1
S'com.fontlab.hintData'
p2
(dp3
S'vhints'
p4
((dp5
S'position'
p6
I51
sS'width'
p7
I365
s(dp8
g6
I818
sg7
I367
stp9
sS'hhints'
p10
((dp11
g6
I-28
sg7
I260
s(dp12
g6
I865
sg7
I255
stp13
ss."
HStem: -28 260<486.372 740.074> 867 255<495.183 737.67>
VStem: 50 365<311.722 783.213> 818 367<313.319 783.459>
LayerCount: 2
Fore
SplineSet
617 -28 m 0
 244 -28 50 177 50 549 c 0
 50 922 243 1122 617 1122 c 0
 990 1122 1185 920 1185 548 c 0
 1185 178 991 -28 617 -28 c 0
818 546 m 0
 818 809 731 867 617 867 c 0
 508 867 415 817 415 547 c 0
 415 280 501 232 620 232 c 0
 749 232 818 313 818 546 c 0
EndSplineSet
EndChar

StartChar: oe
Encoding: 427 339 171
Width: 1981
VWidth: 0
GlyphClass: 1
Flags: HW
PickledData: "(dp1
S'com.fontlab.hintData'
p2
(dp3
S'vhints'
p4
((dp5
S'position'
p6
I51
sS'width'
p7
I365
s(dp8
g6
I823
sg7
I364
stp9
sS'hhints'
p10
((dp11
g6
I-28
sg7
I255
s(dp12
g6
I869
sg7
I255
s(dp13
g6
I891
sg7
I233
stp14
ss."
HStem: -25 257<486.311 752.801 1294.52 1681.82> 466 215<1187.84 1578.55> 871 255<490.526 748.419> 893 233<1256.69 1515.32>
VStem: 51 365<311.127 784.934> 824 364<333.906 466.111 681.111 786.442>
LayerCount: 2
Fore
SplineSet
1935 466 m 1xdc
 1188 466 l 1
 1201 290 1326 232 1500 232 c 0
 1612 232 1709 285 1753 315 c 1
 1791 315 1830 329 1862 351 c 1
 1917 96 l 1
 1831 37 1698 -25 1465 -25 c 0
 1280 -25 1094 36 1018 121 c 1
 929 34 795 -28 623 -28 c 0
 459 -28 334 20 247 85 c 0
 118 180 51 322 51 549 c 0
 51 774 116 915 245 1012 c 0
 333 1077 457 1126 622 1126 c 0xec
 783 1126 927 1058 1016 987 c 1
 1094 1066 1256 1126 1410 1126 c 0
 1741 1126 1935 941 1935 615 c 2
 1935 466 l 1xdc
824 546 m 0
 824 781 762 871 620 871 c 0
 513 871 416 830 416 547 c 0
 416 316 477 227 623 227 c 0
 767 227 824 330 824 546 c 0
1579 681 m 1
 1573 819 1507 893 1388 893 c 0xdc
 1262 893 1188 811 1186 681 c 1
 1579 681 l 1
EndSplineSet
EndChar

StartChar: ogonek
Encoding: 428 731 172
Width: 898
VWidth: 0
GlyphClass: 1
Flags: HW
PickledData: "(dp1
S'com.fontlab.hintData'
p2
(dp3
S'vhints'
p4
((dp5
S'position'
p6
I270
sS'width'
p7
I176
stp8
sS'hhints'
p9
((dp10
g6
I-432
sg7
I143
stp11
ss."
HStem: -432 143<474.915 696.81>
VStem: 270 176<-263.57 -57.6124>
LayerCount: 2
Fore
SplineSet
572 -289 m 0
 631 -289 674 -269 698 -260 c 1
 709 -399 l 1
 653 -419 596 -429 542 -432 c 0
 530 -432 516 -432 504 -431 c 1
 379 -431 287 -356 270 -249 c 1
 267 -218 268 -189 274 -161 c 1
 286 -91 323 -38 361 6 c 1
 513 6 l 1
 475 -42 451 -98 446 -148 c 1
 443 -237 490 -289 572 -289 c 0
EndSplineSet
EndChar

StartChar: one
Encoding: 430 49 174
Width: 1245
VWidth: 0
GlyphClass: 1
Flags: W
HStem: 0 275<253 469 840 1050> 1462 20G<479 551.5>
VStem: 469 371<275 1117>
LayerCount: 2
Fore
SplineSet
1050 0 m 1
 253 0 l 1
 253 276 l 1
 469 275 l 1
 469 1117 l 5
 178 1067 l 5
 178 1296 l 1
 352 1314 464 1361 494 1482 c 1
 609 1481 725 1481 840 1480 c 1
 840 275 l 1
 1050 275 l 1
 1050 0 l 1
EndSplineSet
EndChar

StartChar: one.superior
Encoding: 431 185 175
Width: 639
VWidth: 0
GlyphClass: 1
Flags: HW
PickledData: "(dp1
S'com.fontlab.hintData'
p2
(dp3
S'vhints'
p4
((dp5
S'position'
p6
I104
sS'width'
p7
I308
stp8
ss."
VStem: 240 172<588 1290>
LayerCount: 2
Fore
SplineSet
240 588 m 1
 240 1290 l 1
 104 1200 l 1
 104 1372 l 1
 240 1462 l 1
 412 1462 l 1
 412 588 l 1
 240 588 l 1
EndSplineSet
EndChar

StartChar: onehalf
Encoding: 432 189 176
Width: 1478
VWidth: 0
GlyphClass: 1
Flags: HW
PickledData: "(dp1
S'com.fontlab.hintData'
p2
(dp3
S'vhints'
p4
((dp5
S'position'
p6
I840
sS'width'
p7
I172
s(dp8
g6
I1030
sg7
I135
s(dp9
g6
I1239
sg7
I172
stp10
sS'hhints'
p11
((dp12
g6
I735
sg7
I148
stp13
ss."
HStem: 0 147<1043.25 1412.39> 735 148<1041.45 1221.05> 1473 20G<1019.68 1166.25>
VStem: 147 136<-35 101.17> 240 172<588 1290> 841 172<608 707.409> 1031 135<1358 1493> 1240 172<532.399 714.281>
DStem2: 147.268 -35 283.438 -35 0.500761 0.865585<68.1885 1765.28> 835.208 147 1043.25 147 0.683155 0.730274<142.126 628.915>
LayerCount: 2
Fore
SplineSet
240 588 m 1xef
 240 1290 l 1
 104 1200 l 1
 104 1372 l 1
 240 1462 l 1
 412 1462 l 1
 412 588 l 1
 240 588 l 1xef
835 0 m 1
 835 147 l 1
 1195 532 l 2
 1224 563 1240 592 1240 631 c 0
 1240 692 1197 735 1127 735 c 0
 1058 735 1019 686 1013 608 c 1
 841 608 l 1
 841 772 962 883 1121 883 c 0
 1293 883 1412 770 1412 631 c 0
 1412 573 1398 522 1347 467 c 2
 1043 147 l 1
 1412 147 l 1
 1412 0 l 1
 835 0 l 1
147 -35 m 1xf7
 1031 1493 l 1
 1166 1493 l 1
 283 -35 l 1
 147 -35 l 1xf7
EndSplineSet
EndChar

StartChar: onequarter
Encoding: 433 188 177
Width: 1478
VWidth: 0
GlyphClass: 1
Flags: HW
PickledData: "(dp1
S'com.fontlab.hintData'
p2
(dp3
S'vhints'
p4
((dp5
S'position'
p6
I199
sS'width'
p7
I135
stp8
ss."
HStem: 0 21G<1172.75 1344.75> 127 147<949.341 1172.75 1344.75 1412.87> 1473 20G<1071.02 1218.75>
VStem: 199 135<-35 100> 240 172<588 1290> 1083 136<1356.84 1493> 1173 172<0 127 274 500>
DStem2: 199.363 -35 334.363 -35 0.500932 0.865487<67.6258 1764.9> 771.016 274 949.341 274 0.470256 0.88253<83.8583 675.331>
LayerCount: 2
Fore
SplineSet
240 588 m 1xe8
 240 1290 l 1
 104 1200 l 1
 104 1372 l 1
 240 1462 l 1
 412 1462 l 1
 412 588 l 1
 240 588 l 1xe8
771 127 m 1
 771 274 l 1
 1089 870 l 1
 1262 870 l 1
 949 274 l 1
 1173 274 l 1
 1173 500 l 1
 1345 500 l 1
 1345 274 l 1
 1413 274 l 1
 1413 127 l 1
 1345 127 l 1
 1345 0 l 1
 1173 0 l 1
 1173 127 l 1xe2
 771 127 l 1
199 -35 m 1xf4
 1083 1493 l 1
 1219 1493 l 1
 334 -35 l 1
 199 -35 l 1xf4
EndSplineSet
EndChar

StartChar: ordfeminine
Encoding: 434 170 178
Width: 930
VWidth: 0
GlyphClass: 1
Flags: W
PickledData: "(dp1
S'com.fontlab.hintData'
p2
(dp3
S'vhints'
p4
((dp5
S'position'
p6
I31
sS'width'
p7
I282
s(dp8
g6
I559
sg7
I278
stp9
sS'hhints'
p10
((dp11
g6
I775
sg7
I81
s(dp12
g6
I1317
sg7
I186
stp13
ss."
HStem: 1039 169<338.077 560> 1317 186<158.696 534.392>
VStem: 31 282<869.851 1008.93> 560 278<693 775 879.969 1039 1203.99 1286.85>
LayerCount: 2
Fore
SplineSet
838 693 m 1
 560 693 l 1
 560 775 l 1
 558 775 l 1
 496.726514858 713.992407354 395.859617368 677.702148438 298.685546875 677.702148438 c 0
 161.143648844 677.702148438 31 746.746452003 31 916 c 0
 31 1169.18462715 284.86579472 1178.73040369 560 1208 c 1
 560 1292 495 1317 361 1317 c 0
 252 1317 140 1269 135 1258 c 1
 97 1442 l 1
 149 1477 280 1503 409 1503 c 0
 687 1503 838 1434 838 1234 c 2
 838 693 l 1
560 919 m 1
 560 1039 l 1
 431 1031 313 1030 313 940 c 0
 313 880.080913098 363.209534014 855.963115788 419.016154315 855.963115788 c 0
 476.018727403 855.963115788 538.860851795 881.125692799 560 919 c 1
EndSplineSet
EndChar

StartChar: ordmasculine
Encoding: 435 186 179
Width: 990
VWidth: 0
GlyphClass: 1
Flags: HW
PickledData: "(dp1
S'com.fontlab.hintData'
p2
(dp3
S'vhints'
p4
((dp5
S'position'
p6
I73
sS'width'
p7
I282
s(dp8
g6
I659
sg7
I280
stp9
sS'hhints'
p10
((dp11
g6
I669
sg7
I186
s(dp12
g6
I1313
sg7
I190
stp13
ss."
HStem: 669 186<405.556 629.848> 1313 190<399.641 608.364>
VStem: 73 282<904.931 1268.31> 660 280<887.474 1257.33>
LayerCount: 2
Fore
SplineSet
940 1086 m 0
 940 815 779 669 506 669 c 0
 232 669 73 816 73 1087 c 0
 73 1362 236 1503 507 1503 c 0
 780 1503 940 1361 940 1086 c 0
657 1084 m 0
 657 1248 607 1313 507 1313 c 0
 430 1313 355 1279 355 1085 c 0
 355 923 407 855 512 855 c 0
 590 855 660 880 660 989 c 1
 659 1021 657 1051 657 1084 c 0
EndSplineSet
EndChar

StartChar: oslash
Encoding: 436 248 180
Width: 1235
VWidth: 0
GlyphClass: 1
Flags: HW
PickledData: "(dp1
S'com.fontlab.hintData'
p2
(dp3
S'vhints'
p4
((dp5
S'position'
p6
I51
sS'width'
p7
I358
s(dp8
g6
I822
sg7
I363
stp9
sS'hhints'
p10
((dp11
g6
I-28
sg7
I250
s(dp12
g6
I869
sg7
I255
stp13
ss."
HStem: -28 250<517.796 774.066> 871 255<486.201 719.85>
VStem: 51 358<376.851 782.16> 823 363<279.309 716.117>
DStem2: 79.0931 -130.948 249.093 -151 0.550777 0.834653<76.8956 280.312 611.534 1113.49 1448.9 1622.33>
LayerCount: 2
Fore
SplineSet
1186 548 m 0
 1186 349 1138 223 1039 124 c 0
 949 34 811 -28 618 -28 c 0
 521 -28 430 -5 361 22 c 1
 249 -151 l 1
 79 -131 l 1
 232 96 l 1
 104 198 51 352 51 549 c 0
 51 751 100 879 199 977 c 0
 290 1066 428 1126 619 1126 c 0
 720 1126 801 1106 876 1076 c 1
 973 1223 l 1
 1143 1203 l 1
 1005 1002 l 1
 1127 900 1186 772 1186 548 c 0
721 844 m 1
 690 862 656 871 617 871 c 0
 517 871 409 837 409 544 c 0
 409 462 415 413 423 375 c 1
 721 844 l 1
823 546 m 0
 823 618 817 688 812 720 c 1
 516 252 l 1
 548 232 587 223 630 223 c 1
 627 223 624 223 621 222 c 1
 722 221 817 248 822 391 c 0
 824 437 823 488 823 546 c 0
EndSplineSet
EndChar

StartChar: p
Encoding: 438 112 182
Width: 1264
VWidth: 0
GlyphClass: 1
Flags: W
PickledData: "(dp1
S'com.fontlab.hintData'
p2
(dp3
S'vhints'
p4
((dp5
S'position'
p6
I841
sS'width'
p7
I366
stp8
sS'hhints'
p9
((dp10
g6
I-23
sg7
I260
s(dp11
g6
I845
sg7
I275
stp12
ss."
HStem: -414 21G<126 486> -23 260<547.839 904.107> 847 275<633.67 964> 1078 20G<126 486>
VStem: 126 360<-414 57 245.114 818.697 939 1098> 842 366<332.03 775.019>
LayerCount: 2
Fore
SplineSet
757 -23 m 0xec
 645 -23 570 3 486 57 c 1
 486 -414 l 1
 126 -414 l 1
 126 1098 l 1
 486 1098 l 1xdc
 486 939 l 1
 547 1048 678 1122 816 1122 c 0
 1112 1122 1208 896 1208 557 c 0
 1208 217 1051 -23 757 -23 c 0xec
842 553 m 0
 842 740 801 847 644 847 c 0xec
 574 847 526 824 486 783 c 1
 486 262 l 1
 506 248 551 237 619 237 c 0
 793 237 842 360 842 553 c 0
EndSplineSet
EndChar

StartChar: paragraph
Encoding: 439 182 183
Width: 1338
VWidth: 0
GlyphClass: 1
Flags: HW
HStem: 1302 177<841.109 975.354>
VStem: 60 781<865.672 1235.54> 623 218<-377 620> 975 208<-377 1302>
LayerCount: 2
Fore
SplineSet
1183 -377 m 1xd0
 975 -377 l 1
 975 1302 l 1
 841 1302 l 1
 841 -377 l 1
 623 -377 l 1
 623 620 l 1xb0
 254 627 60 791 60 1052 c 0
 60 1306 250 1479 642 1479 c 2
 1180 1479 l 1
 1180 1234 l 1
 1183 1160 l 1
 1183 -377 l 1xd0
EndSplineSet
EndChar

StartChar: parenleft
Encoding: 440 40 184
Width: 841
VWidth: 0
GlyphClass: 1
Flags: HW
PickledData: "(dp1
S'com.fontlab.hintData'
p2
(dp3
S'vhints'
p4
((dp5
S'position'
p6
I98
sS'width'
p7
I328
stp8
ss."
HStem: 1503 20G<357.234 789.841>
VStem: 98 328<269.289 912.573>
LayerCount: 2
Fore
SplineSet
790 -340 m 1
 469 -340 l 1
 246 -87 98 209 98 591 c 0
 98 995 245 1269 469 1523 c 1
 790 1523 l 1
 784 1502 779 1482 774 1461 c 1
 600 1262 426 971 426 591 c 0
 426 221 591 -76 774 -278 c 1
 779 -299 784 -320 790 -340 c 1
EndSplineSet
EndChar

StartChar: parenright
Encoding: 441 41 185
Width: 841
VWidth: 0
GlyphClass: 1
Flags: HW
PickledData: "(dp1
S'com.fontlab.hintData'
p2
(dp3
S'vhints'
p4
((dp5
S'position'
p6
I414
sS'width'
p7
I328
stp8
ss."
HStem: 1503 20G<51.0931 483.199>
VStem: 415 328<269.671 904.709>
LayerCount: 2
Fore
SplineSet
743 591 m 0
 743 213 595 -85 371 -340 c 1
 51 -340 l 1
 57 -320 62 -299 66 -278 c 1
 249 -74 415 217 415 591 c 0
 415 970 239 1265 66 1461 c 1
 62 1483 57 1502 51 1523 c 1
 371 1523 l 1
 596 1269 743 995 743 591 c 0
EndSplineSet
EndChar

StartChar: partialdiff
Encoding: 442 8706 186
Width: 1171
VWidth: 0
GlyphClass: 1
Flags: HW
PickledData: "(dp1
S'com.fontlab.hintData'
p2
(dp3
S'vhints'
p4
((dp5
S'position'
p6
I58
sS'width'
p7
I289
s(dp8
g6
I825
sg7
I286
stp9
sS'hhints'
p10
((dp11
g6
I-17
sg7
I218
s(dp12
g6
I813
sg7
I203
s(dp13
g6
I1324
sg7
I217
stp14
ss."
HStem: -17 218<406.171 624.693> 813 203<496.567 717.358>
VStem: 58 289<264.93 632.825> 826 286<871.597 1154.76>
LayerCount: 2
Fore
SplineSet
820 871 m 1
 824 871 l 1
 825 890 826 912 826 922 c 0
 826 1148 741 1294 586 1319 c 1
 461 1342 361 1299 281 1250 c 1
 304 1466 l 1
 388 1514 499 1551 643 1542 c 0
 930 1525 1097 1338 1112 964 c 0
 1115 897 1112 828 1103 756 c 1
 1055 284 842 -17 480 -17 c 0
 213 -17 58 171 58 423 c 0
 58 758 270 1016 552 1016 c 0
 681 1016 772 949 820 871 c 1
793 652 m 1
 768 744 705 813 609 813 c 0
 461 813 347 623 347 429 c 0
 347 287 406 201 512 201 c 0
 657 201 765 406 793 652 c 1
EndSplineSet
EndChar

StartChar: percent
Encoding: 443 37 187
Width: 2137
VWidth: 0
GlyphClass: 1
Flags: HW
PickledData: "(dp1
S'com.fontlab.hintData'
p2
(dp3
S'vhints'
p4
((dp5
S'position'
p6
I96
sS'width'
p7
I244
s(dp8
g6
I627
sg7
I241
s(dp9
g6
I1261
sg7
I245
s(dp10
g6
I1791
sg7
I241
stp11
sS'hhints'
p12
((dp13
g6
I-4
sg7
I201
s(dp14
g6
I639
sg7
I201
s(dp15
g6
I1285
sg7
I199
stp16
ss."
HStem: -4 201<1559.38 1738.12> 643 198<391.995 566.872 1568.17 1735.29> 1285 199<401.242 575.832>
VStem: 96 244<895.702 1223.84> 628 241<901.798 1231.99> 1262 245<250.58 579.908> 1793 241<258.339 582.862>
DStem2: 550.558 0 807.698 0 0.465014 0.885303<119.574 1670.61>
LayerCount: 2
Fore
SplineSet
808 0 m 1
 551 0 l 1
 1327 1479 l 1
 1585 1479 l 1
 808 0 l 1
1651 841 m 1
 1910 841 2034 636 2034 428 c 0
 2034 214 1903 -4 1651 -4 c 0
 1392 -4 1262 206 1262 416 c 0
 1262 627 1392 838 1651 841 c 1
1648 643 m 1
 1557 640 1507 523 1507 410 c 0
 1507 302 1553 197 1651 197 c 0
 1745 197 1793 310 1793 423 c 0
 1793 533 1746 643 1648 643 c 1
485 1484 m 1
 744 1483 869 1278 869 1070 c 0
 869 856 736 639 484 639 c 0
 225 639 96 849 96 1059 c 0
 96 1270 225 1481 485 1484 c 1
485 840 m 0
 577 840 628 957 628 1071 c 0
 628 1179 582 1285 484 1285 c 0
 390 1285 340 1169 340 1056 c 0
 340 947 386 840 485 840 c 0
EndSplineSet
EndChar

StartChar: period
Encoding: 444 46 188
Width: 723
VWidth: 0
GlyphClass: 1
Flags: HW
PickledData: "(dp1
S'com.fontlab.hintData'
p2
(dp3
S'vhints'
p4
((dp5
S'position'
p6
I145
sS'width'
p7
I433
stp8
sS'hhints'
p9
((dp10
g6
I-24
sg7
I437
stp11
ss."
HStem: -24 437<230.11 488.437>
VStem: 145 433<60.5403 325.463>
LayerCount: 2
Fore
SplineSet
383 -24 m 5
 247 -24 159 50 145 173 c 5
 145 307 217 399 340 413 c 5
 476 413 563 334 578 213 c 5
 578 77 505 -10 383 -24 c 5
EndSplineSet
EndChar

StartChar: periodcentered
Encoding: 445 183 189
Width: 492
VWidth: 0
GlyphClass: 1
Flags: HW
PickledData: "(dp1
S'com.fontlab.hintData'
p2
(dp3
S'vhints'
p4
((dp5
S'position'
p6
I109
sS'width'
p7
I274
stp8
sS'hhints'
p9
((dp10
g6
I461
sg7
I274
stp11
ss."
HStem: 461 274<144.472 347.528>
VStem: 109 274<496.472 699.528>
LayerCount: 2
Fore
SplineSet
109 598 m 0
 109 674 170 735 246 735 c 0
 322 735 383 674 383 598 c 0
 383 522 322 461 246 461 c 0
 170 461 109 522 109 598 c 0
EndSplineSet
EndChar

StartChar: perthousand
Encoding: 446 8240 190
Width: 2754
VWidth: 0
GlyphClass: 1
Flags: HW
PickledData: "(dp1
S'com.fontlab.hintData'
p2
(dp3
S'vhints'
p4
((dp5
S'position'
p6
I96
sS'width'
p7
I241
s(dp8
g6
I543
sg7
I236
s(dp9
g6
I1143
sg7
I241
s(dp10
g6
I1590
sg7
I236
s(dp11
g6
I1964
sg7
I241
s(dp12
g6
I2411
sg7
I236
stp13
sS'hhints'
p14
((dp15
g6
I-4
sg7
I179
s(dp16
g6
I575
sg7
I176
s(dp17
g6
I728
sg7
I179
s(dp18
g6
I1307
sg7
I176
stp19
ss."
HStem: -4 179<1408.68 1564.75 2230.31 2386.2> 575 176<1407.29 1567.78 2228.71 2389.4> 728 179<360.637 516.404> 1307 176<359.043 519.531>
VStem: 96 241<923.557 1289.65> 544 236<924.323 1288.58> 1144 241<191.479 557.654> 1592 236<192.103 556.582> 1966 241<191.557 557.654> 2413 236<192.103 556.582>
DStem2: 439.361 0 696.551 0 0.465012 0.885305<119.596 1670.61>
LayerCount: 2
Fore
SplineSet
697 0 m 1x9fc0
 439 0 l 1
 1216 1479 l 1
 1473 1479 l 1
 697 0 l 1x9fc0
440 728 m 0xbfc0
 223 728 96 840 96 1080 c 0
 96 1359 209 1483 440 1483 c 0
 657 1483 780 1369 780 1133 c 0
 780 855 674 728 440 728 c 0xbfc0
440 907 m 0
 525 907 542 969 544 1114 c 1
 544 1232 531 1307 440 1307 c 0
 345 1307 337 1229 337 1100 c 0
 337 989 343 907 440 907 c 0
1488 -4 m 0
 1271 -4 1144 108 1144 348 c 0
 1144 627 1257 751 1488 751 c 0xdfc0
 1705 751 1828 637 1828 401 c 0
 1828 122 1723 -4 1488 -4 c 0
1488 175 m 0
 1573 175 1591 237 1592 382 c 0
 1592 500 1580 575 1488 575 c 0
 1394 575 1385 497 1385 368 c 0
 1385 256 1391 175 1488 175 c 0
2310 -4 m 0
 2093 -4 1966 108 1966 348 c 0
 1966 627 2079 751 2310 751 c 0
 2527 751 2649 637 2649 401 c 0
 2649 122 2545 -4 2310 -4 c 0
2310 175 m 0
 2395 175 2411 237 2413 382 c 1
 2413 500 2402 575 2310 575 c 0
 2215 575 2207 497 2207 368 c 0
 2207 257 2213 175 2310 175 c 0
EndSplineSet
EndChar

StartChar: pi
Encoding: 447 960 191
Width: 1288
VWidth: 0
GlyphClass: 1
Flags: HW
PickledData: "(dp1
S'com.fontlab.hintData'
p2
(dp3
S'vhints'
p4
((dp5
S'position'
p6
I224
sS'width'
p7
I270
s(dp8
g6
I240
sg7
I271
s(dp9
g6
I767
sg7
I273
stp10
sS'hhints'
p11
((dp12
g6
I827
sg7
I214
stp13
ss."
HStem: 0 21G<166.303 455.438> 829 214<51.8401 240.438 511.438 767.905 1040.91 1230.25>
VStem: 240 271<219.834 829> 768 273<259.388 829>
LayerCount: 2
Fore
SplineSet
1230 829 m 1
 1041 829 l 1
 1041 382 l 2
 1041 309 1059 266 1096 254 c 1
 1115 199 1139 175 1165 163 c 1
 1096 9 l 1
 1058 1 1019 1 977 10 c 1
 836 34 768 149 768 346 c 2
 768 829 l 1
 511 829 l 1
 509 680 503 507 494 339 c 0
 487 196 469 78 441 0 c 1
 166 0 l 1
 197 90 216 211 224 352 c 0
 233 515 239 682 240 829 c 1
 154 829 86 808 21 768 c 1
 11 981 l 1
 82 1032 187 1043 349 1043 c 2
 1235 1043 l 1
 1230 829 l 1
EndSplineSet
EndChar

StartChar: plus
Encoding: 448 43 192
Width: 1589
VWidth: 0
GlyphClass: 1
Flags: HW
HStem: 485 250<161.294 662.206 928.206 1428.12>
VStem: 662 266<9 485 735 1209>
LayerCount: 2
Fore
SplineSet
1428 485 m 1
 928 485 l 1
 928 9 l 1
 662 9 l 1
 662 485 l 1
 161 485 l 1
 161 735 l 1
 662 735 l 1
 662 1209 l 1
 928 1209 l 1
 928 735 l 1
 1428 735 l 1
 1428 485 l 1
EndSplineSet
EndChar

StartChar: plusminus
Encoding: 449 177 193
Width: 1589
VWidth: 0
GlyphClass: 1
Flags: HW
HStem: 0 187<196.358 1233.89> 653 187<199.363 619.128 814.128 1234.89>
VStem: 619 195<298 653 840 1197>
LayerCount: 2
Fore
SplineSet
1235 653 m 1
 814 653 l 1
 814 298 l 1
 619 298 l 1
 619 653 l 1
 199 653 l 1
 199 840 l 1
 619 840 l 1
 619 1197 l 1
 814 1197 l 1
 814 840 l 1
 1235 840 l 1
 1235 653 l 1
1234 0 m 1
 196 0 l 1
 196 187 l 1
 1234 187 l 1
 1234 0 l 1
EndSplineSet
EndChar

StartChar: product
Encoding: 450 8719 194
Width: 1566
VWidth: 0
GlyphClass: 1
Flags: HW
PickledData: "(dp1
S'com.fontlab.hintData'
p2
(dp3
S'vhints'
p4
((dp5
S'position'
p6
I195
sS'width'
p7
I291
stp8
ss."
HStem: 1185 248<486.235 1091.34>
VStem: 129 357<999.447 1185> 195 291<-372 1082.21> 1091 291<-372 1016.05>
LayerCount: 2
Fore
SplineSet
1382 -372 m 1xd0
 1091 -372 l 1
 1091 1185 l 1
 486 1185 l 1xd0
 486 -372 l 1
 195 -372 l 1
 195 920 l 1xb0
 173 1001 151 1081 129 1161 c 1
 129 1433 l 1
 1448 1433 l 1
 1448 1363 l 1
 1382 920 l 1
 1382 -372 l 1xd0
EndSplineSet
EndChar

StartChar: q
Encoding: 451 113 195
Width: 1264
VWidth: 0
GlyphClass: 1
Flags: HW
PickledData: "(dp1
S'com.fontlab.hintData'
p2
(dp3
S'vhints'
p4
((dp5
S'position'
p6
I57
sS'width'
p7
I365
s(dp8
g6
I779
sg7
I359
stp9
sS'hhints'
p10
((dp11
g6
I-26
sg7
I276
s(dp12
g6
I852
sg7
I268
stp13
ss."
HStem: -414 21G<1060.44 1419.44> -26 276<1549.09 1812.34> 854 268<1492.72 1771.31> 1078 20G<1060.44 1415.89>
VStem: 1777.2 365<320.721 757.211> 1060.2 359<-414 106 340.815 823.357 1040 1098>
LayerCount: 2
Back
SplineSet
507 1122 m 0xec
 619 1122 695 1096 779 1042 c 1
 779 1513 l 1
 1138 1513 l 1
 1138 1 l 1
 779 1 l 1xdc
 779 160 l 1
 718 51 586 -23 448 -23 c 0
 152 -23 56 203 56 542 c 0
 56 882 213 1122 507 1122 c 0xec
422 546 m 0
 422 359 463 252 620 252 c 0xec
 690 252 738 275 778 316 c 1
 779 571 l 1
 779 837 l 1
 759 851 713 862 645 862 c 0
 471 862 422 739 422 546 c 0
EndSplineSet
Fore
SplineSet
507 -23 m 0xec
 619.413284133 -23 694.6900369 12.75 779 87 c 1
 779 -414 l 1
 1138 -414 l 1
 1138 1098 l 1
 779 1098 l 1xdc
 779 969 l 1
 730.754545455 1060.13114754 627.145454545 1122 518 1122 c 0
 169.142857143 1122 56 896 56 557 c 0
 56 217 213 -23 507 -23 c 0xec
422 553 m 0
 422 740 463 847 620 847 c 0xec
 690.443037975 847 738.746835443 834.78125 779 813 c 1
 779 292 l 1
 758.84962406 261.2 713.511278195 237 645 237 c 0
 471 237 422 360 422 553 c 0
EndSplineSet
EndChar

StartChar: question
Encoding: 452 63 196
Width: 1149
VWidth: 0
GlyphClass: 1
Flags: W
PickledData: "(dp1
S'com.fontlab.hintData'
p2
(dp3
S'vhints'
p4
((dp5
S'position'
p6
I332
sS'width'
p7
I355
s(dp8
g6
I685
sg7
I383
stp9
sS'hhints'
p10
((dp11
g6
I726
sg7
I5
s(dp12
g6
I1224
sg7
I278
stp13
ss."
HStem: -24 437<378.11 636.437> 1215.55 286.447<327.765 626.287>
VStem: 293 433<60.5403 325.463> 696.331 372.669<907.655 1143.23>
LayerCount: 2
Fore
SplineSet
531 -24 m 1xe0
 395 -24 307 50 293 173 c 1
 293 307 365 399 488 413 c 1
 624 413 711 334 726 213 c 1
 726 77 653 -10 531 -24 c 1xe0
696.331054688 1011.32714844 m 0xd0
 696.331054688 1156.77383403 594.730959834 1215.55314582 491.914981011 1215.55314582 c 0
 361.358810456 1215.55314582 205.817561577 1130.8881003 154 1080 c 1
 154 1372 l 1
 216.166244507 1407.75 366.606837607 1502 552 1502 c 0
 866 1502 1069 1337 1069 1107 c 0
 1069 808.454065166 822.318951906 664.658227848 628 527 c 1
 423 527 l 1
 573.732715506 707.254154161 696.331054688 862.841543065 696.331054688 1011.32714844 c 0xd0
EndSplineSet
EndChar

StartChar: questiondown
Encoding: 453 191 197
Width: 1149
VWidth: 0
GlyphClass: 1
Flags: HW
PickledData: "(dp1
S'com.fontlab.hintData'
p2
(dp3
S'vhints'
p4
((dp5
S'position'
p6
I80
sS'width'
p7
I383
s(dp8
g6
I460
sg7
I357
stp9
sS'hhints'
p10
((dp11
g6
I-167
sg7
I280
stp12
ss."
HStem: -167 280<524.979 844.481> 1080 257<440.146 836.181>
VStem: 80 383<173.823 407.025> 460 357<731.767 951.735>
LayerCount: 2
Fore
SplineSet
1065 33 m 1xe0
 1017 -67 807 -167 596 -167 c 0
 286 -167 80 -3 80 230 c 0xe0
 80 489 281 641 460 760 c 1
 460 952 l 1
 817 952 l 1xd0
 817 828 821 714 797 605 c 1
 663 555 463 442 463 290 c 0
 463 170 553 113 682 113 c 0
 800 113 956 185 1010 279 c 0
 1011 279 1008 273 1016 267 c 1
 1033 267 1048 266 1065 266 c 1
 1065 33 l 1xe0
836 1077 m 1
 761 1079 688 1080 614 1080 c 0
 556 1080 499 1080 440 1077 c 1
 440 1339 l 1
 515 1337 588 1337 662 1337 c 0
 721 1337 779 1338 837 1338 c 1
 837 1250 836 1164 836 1077 c 1
EndSplineSet
EndChar

StartChar: quotedbl
Encoding: 454 34 198
Width: 944
VWidth: 0
GlyphClass: 1
Flags: HW
PickledData: "(dp1
S'com.fontlab.hintData'
p2
(dp3
S'vhints'
p4
((dp5
S'position'
p6
I166
sS'width'
p7
I218
s(dp8
g6
I559
sg7
I218
stp9
sS'hhints'
p10
((dp11
g6
I1011
sg7
I512
stp12
ss."
HStem: 1011 512<166.303 384.303 559.622 777.622>
VStem: 166 218<1011 1166.89> 560 218<1011 1166.89>
LayerCount: 2
Fore
SplineSet
825 1523 m 1
 778 1011 l 1
 560 1011 l 1
 514 1523 l 1
 825 1523 l 1
431 1523 m 1
 384 1011 l 1
 166 1011 l 1
 120 1523 l 1
 431 1523 l 1
EndSplineSet
EndChar

StartChar: quotedblbase
Encoding: 455 8222 199
Width: 945
VWidth: 0
GlyphClass: 1
Flags: HW
PickledData: "(dp1
S'com.fontlab.hintData'
p2
(dp3
S'hhints'
p4
((dp5
S'position'
p6
I-259
sS'width'
p7
I517
stp8
ss."
HStem: -259 517<180.328 272.496 497.907 515.94>
LayerCount: 2
Fore
SplineSet
938 258 m 1
 752 -203 l 1
 498 -259 l 1
 604 258 l 1
 938 258 l 1
516 258 m 1
 423 -11 l 1
 272 -245 l 1
 75 -259 l 1
 180 258 l 1
 516 258 l 1
EndSplineSet
EndChar

StartChar: quotedblleft
Encoding: 456 8220 200
Width: 945
VWidth: 0
GlyphClass: 1
Flags: HW
PickledData: "(dp1
S'com.fontlab.hintData'
p2
(dp3
S'hhints'
p4
((dp5
S'position'
p6
I1005
sS'width'
p7
I518
stp8
ss."
HStem: 1005 518<249.875 340.665 672.906 763.463>
LayerCount: 2
Fore
SplineSet
872 1005 m 1
 619 1005 l 1
 425 1468 l 1
 760 1523 l 1
 872 1005 l 1
448 1005 m 1
 196 1005 l 1
 1 1468 l 1
 338 1523 l 1
 448 1005 l 1
EndSplineSet
EndChar

StartChar: quotedblright
Encoding: 457 8221 201
Width: 944
VWidth: 0
GlyphClass: 1
Flags: HW
PickledData: "(dp1
S'com.fontlab.hintData'
p2
(dp3
S'hhints'
p4
((dp5
S'position'
p6
I1005
sS'width'
p7
I518
stp8
ss."
HStem: 1005 518<499.911 516.942>
LayerCount: 2
Fore
SplineSet
940 1523 m 1
 754 1060 l 1
 500 1005 l 1
 605 1523 l 1
 940 1523 l 1
517 1523 m 1
 331 1060 l 1
 77 1005 l 1
 182 1523 l 1
 517 1523 l 1
EndSplineSet
EndChar

StartChar: quoteleft
Encoding: 458 8216 202
Width: 564
VWidth: 0
GlyphClass: 1
Flags: HW
PickledData: "(dp1
S'com.fontlab.hintData'
p2
(dp3
S'hhints'
p4
((dp5
S'position'
p6
I1005
sS'width'
p7
I518
stp8
ss."
HStem: 1005 518<271.681 362.044>
VStem: 24 445
LayerCount: 2
Fore
SplineSet
469 1005 m 1
 219 1005 l 1
 24 1468 l 1
 359 1523 l 1
 469 1005 l 1
EndSplineSet
EndChar

StartChar: quoteright
Encoding: 459 8217 203
Width: 564
VWidth: 0
GlyphClass: 1
Flags: HW
PickledData: "(dp1
S'com.fontlab.hintData'
p2
(dp3
S'hhints'
p4
((dp5
S'position'
p6
I1005
sS'width'
p7
I518
stp8
ss."
HStem: 1005 518
VStem: 97 438
LayerCount: 2
Fore
SplineSet
535 1523 m 1
 350 1060 l 1
 97 1005 l 1
 202 1523 l 1
 535 1523 l 1
EndSplineSet
EndChar

StartChar: quotesinglbase
Encoding: 460 8218 204
Width: 564
VWidth: 0
GlyphClass: 1
Flags: HW
PickledData: "(dp1
S'com.fontlab.hintData'
p2
(dp3
S'hhints'
p4
((dp5
S'position'
p6
I-259
sS'width'
p7
I517
stp8
ss."
HStem: -259 517<201 290>
VStem: 96 438
LayerCount: 2
Fore
SplineSet
534 258 m 1
 502 168 471 79 440 -11 c 1
 290 -245 l 1
 96 -259 l 1
 201 258 l 1
 534 258 l 1
EndSplineSet
EndChar

StartChar: quotesingle
Encoding: 461 39 205
Width: 564
VWidth: 0
GlyphClass: 1
Flags: W
PickledData: "(dp1
S'com.fontlab.hintData'
p2
(dp3
S'vhints'
p4
((dp5
S'position'
p6
I173
sS'width'
p7
I218
stp8
sS'hhints'
p9
((dp10
g6
I1011
sg7
I512
stp11
ss."
HStem: 881 642<170 388>
VStem: 170 218<881 1068.83>
LayerCount: 2
Fore
SplineSet
437 1523 m 1
 388 881 l 5
 170 881 l 5
 127 1523 l 1
 437 1523 l 1
EndSplineSet
EndChar

StartChar: r
Encoding: 462 114 206
Width: 897
VWidth: 0
GlyphClass: 1
Flags: W
PickledData: "(dp1
S'com.fontlab.hintData'
p2
(dp3
S'hhints'
p4
((dp5
S'position'
p6
I794
sS'width'
p7
I304
stp8
ss."
HStem: 0 21G<126 485> 796 304<620.217 860.937>
VStem: 126 359<0 753.016 957 1098>
LayerCount: 2
Fore
SplineSet
855 763 m 1
 821 778 773 796 710 796 c 0
 645 796 534 781 485 714 c 1
 485 0 l 1
 126 0 l 1
 126 1098 l 1
 485 1098 l 1
 485 957 l 1
 486 957 l 1
 548 1026 666 1100 801 1100 c 0
 839 1100 883 1091 910 1077 c 1
 855 763 l 1
EndSplineSet
EndChar

StartChar: radical
Encoding: 463 8730 207
Width: 1292
VWidth: 0
GlyphClass: 1
Flags: HW
PickledData: "(dp1
S'com.fontlab.hintData'
p2
(dp3
S'vhints'
p4
((dp5
S'position'
p6
I1014
sS'width'
p7
I184
stp8
ss."
VStem: 1016 184<1404 1588>
DStem2: 427.779 867 268.489 692 0.368755 -0.929527<103.928 516.388> 676.232 198 778.418 -106 0.241421 0.970421<0 1430.88>
LayerCount: 2
Fore
SplineSet
1200 1588 m 1
 778 -106 l 1
 585 -106 l 1
 268 692 l 1
 96 673 l 1
 84 824 l 1
 428 867 l 1
 608 383 l 2
 629 324 653 243 676 198 c 1
 721 392 l 1
 818 790 919 1189 1016 1588 c 1
 1200 1588 l 1
EndSplineSet
EndChar

StartChar: registered
Encoding: 464 174 208
Width: 1847
VWidth: 0
GlyphClass: 1
Flags: W
PickledData: "(dp1
S'com.fontlab.hintData'
p2
(dp3
S'vhints'
p4
((dp5
S'position'
p6
I232
sS'width'
p7
I179
s(dp8
g6
I427
sg7
I11
stp9
sS'hhints'
p10
((dp11
g6
I1074
sg7
I325
s(dp12
g6
I1210
sg7
I20
stp13
ss."
HStem: -142 193<694.749 1158.3> 234 166<839.398 1129.64> 972 171<834.972 1125.86> 1310 193<688.435 1155.01>
VStem: 65 211<451.564 902.677> 501 237<510.331 866.901> 1213 64<489.853 534.842> 1573 210<457.327 906.314>
LayerCount: 2
Fore
SplineSet
924 -142 m 0
 469 -142 65 204 65 681 c 0
 65 1132 451 1503 924 1503 c 0
 1385 1503 1783 1138 1783 681 c 0
 1783 229 1397 -142 924 -142 c 0
1573 681 m 0
 1573 1049 1266 1310 924 1310 c 0
 569 1310 276 1036 276 681 c 0
 276 311 584 51 924 51 c 0
 1272 51 1573 317 1573 681 c 0
1141 274 m 1
 1095 262 1017 231 925 234 c 1
 691 251 501 407 501 686 c 0
 501 964 695 1143 957 1143 c 0
 1065 1143 1164 1109 1244 1054 c 1
 1262 990 1273 919 1277 842 c 1
 1256 841 1234 841 1213 841 c 1
 1182 896 1095 972 970 972 c 0
 820 972 738 859 738 686 c 0
 738 517 829 400 971 400 c 0
 1107 400 1198 485 1213 535 c 1
 1277 535 l 1
 1263 411 1210 319 1141 274 c 1
EndSplineSet
EndChar

StartChar: ring
Encoding: 465 730 209
Width: 898
VWidth: 0
GlyphClass: 1
Flags: HW
PickledData: "(dp1
S'com.fontlab.hintData'
p2
(dp3
S'vhints'
p4
((dp5
S'position'
p6
I206
sS'width'
p7
I93
s(dp8
g6
I600
sg7
I92
stp9
sS'hhints'
p10
((dp11
g6
I1111
sg7
I74
s(dp12
g6
I1497
sg7
I74
stp13
ss."
HStem: 1111 74<351.906 546.027> 1497 74<354.312 546.027>
VStem: 206 93<1228.87 1451.89> 601 92<1230.12 1448.73>
LayerCount: 2
Fore
SplineSet
601 1340 m 0
 601 1424 537 1497 450 1497 c 0
 366 1497 299 1428 299 1340 c 0
 299 1252 363 1185 450 1185 c 0
 537 1185 601 1255 601 1340 c 0
693 1341 m 0
 693 1210 585 1111 450 1111 c 0
 314 1111 206 1212 206 1342 c 0
 206 1471 316 1571 450 1571 c 0
 585 1571 693 1472 693 1341 c 0
EndSplineSet
EndChar

StartChar: s
Encoding: 466 115 210
Width: 1072
VWidth: 0
GlyphClass: 1
Flags: W
PickledData: "(dp1
S'com.fontlab.hintData'
p2
(dp3
S'hhints'
p4
((dp5
S'position'
p6
I-25
sS'width'
p7
I245
s(dp8
g6
I875
sg7
I246
stp9
ss."
HStem: -25 245<268.809 644.761> 877 246<448.622 803.934>
LayerCount: 2
Fore
SplineSet
668 305 m 0
 668 390 514 396 421 414 c 0
 200 456 61 556 61 761 c 0
 61 968 261 1123 576 1123 c 0
 743 1123 874 1088 972 1039 c 1
 930 762 l 1
 857 812 745 877 596 877 c 0
 492 877 427 840 427 787 c 0
 427 734 459 718 654 689 c 1
 909 648 1038 553 1038 345 c 0
 1038 128 829 -25 490 -25 c 0
 331 -25 170 15 63 75 c 1
 109 363 l 1
 159 320 285 220 494 220 c 0
 576 220 668 242 668 305 c 0
EndSplineSet
EndChar

StartChar: section
Encoding: 468 167 212
Width: 1249
VWidth: 0
GlyphClass: 1
Flags: W
PickledData: "(dp1
S'com.fontlab.hintData'
p2
(dp3
S'vhints'
p4
((dp5
S'position'
p6
I87
sS'width'
p7
I362
s(dp8
g6
I107
sg7
I22
s(dp9
g6
I724
sg7
I293
s(dp10
g6
I816
sg7
I352
stp11
sS'hhints'
p12
((dp13
g6
I-401
sg7
I266
s(dp14
g6
I1188
sg7
I314
stp15
ss."
HStem: -401 264.386<367.742 701.734> -42 20G<223 256.757> 1221.07 280.934<547.994 905.639>
VStem: 87 362<465.054 697.84> 129 406<1059.8 1200.57> 725 411.064<-109.926 58.6193> 817.138 351.862<428.784 656.451>
LayerCount: 2
Fore
SplineSet
568 748 m 1xf2
 494 724 449 660 449 568 c 0
 449 483 524 402 689 372 c 1
 771.389780014 393.324413651 817.138043325 475.718021806 817.138043325 580.021814053 c 0
 817.138043325 652.33590455 706.797431099 718.910718033 568 748 c 1xf2
667.439326034 1221.0657416 m 0
 596.510599319 1221.0657416 535 1193.82005709 535 1138 c 0
 535 1041 634 1041 865 953 c 1
 1060 880 1169 777 1169 589 c 0xea
 1169 447 1110 345 963 260 c 1
 1034.67383904 228.330164145 1136.06389519 132.483132655 1136.06389519 -14.5928037033 c 0
 1136.06389519 -249.207729419 909.09527512 -401 584 -401 c 0
 457 -401 230 -358 162 -302 c 1
 162 -23 l 1
 189 -23 209 -23 237 -22 c 1
 276.514986879 -70.6338300046 467.993225987 -136.614366132 584.061907663 -136.614366132 c 0
 674.127699728 -136.614366132 725 -92.823934515 725 -24 c 0
 725 69 630 90 491 142 c 0
 262 228 87 295 87 529 c 0xf4
 87 681 147 780 299 864 c 1
 174.15625 934.923322684 129 1022.90415335 129 1145 c 0xe8
 129 1337 341 1502 665 1502 c 0
 804 1502 990 1467 1076 1410 c 1
 1076 1131 l 1
 1059 1130 1051 1130 1034 1130 c 1
 966.241778988 1163.12624138 784.601647193 1221.0657416 667.439326034 1221.0657416 c 0
EndSplineSet
EndChar

StartChar: semicolon
Encoding: 469 59 213
Width: 635
VWidth: 0
GlyphClass: 1
Flags: HW
VStem: 143 348<609.434 964.998>
LayerCount: 2
Fore
SplineSet
101.5 881.719726562 m 0
 101.5 999.847726563 197.372 1095.71972656 315.5 1095.71972656 c 0
 433.628 1095.71972656 529.5 999.847726563 529.5 881.719726562 c 0
 529.5 763.591726562 433.628 667.719726562 315.5 667.719726562 c 0
 197.372 667.719726562 101.5 763.591726562 101.5 881.719726562 c 0
531 359 m 5
 293 -250 l 5
 111 -250 l 5
 174 359 l 5
 531 359 l 5
EndSplineSet
EndChar

StartChar: seven
Encoding: 470 55 214
Width: 1245
VWidth: 0
GlyphClass: 1
Flags: HW
HStem: 0 21G<148.27 584.148> 1119 360<108.197 331.604> 1196 283<331.604 768.4>
DStem2: 148.27 0 574.046 0 0.460306 0.88776<195.987 1347.21>
LayerCount: 2
Fore
SplineSet
1176 1192 m 1xa0
 574 0 l 1
 148 0 l 1
 768 1196 l 1
 332 1196 l 1xa0
 332 1119 l 1
 108 1119 l 1
 108 1479 l 1xc0
 1176 1479 l 1
 1176 1192 l 1xa0
EndSplineSet
EndChar

StartChar: six
Encoding: 471 54 215
Width: 1244
VWidth: 0
GlyphClass: 1
Flags: W
PickledData: "(dp1
S'com.fontlab.hintData'
p2
(dp3
S'vhints'
p4
((dp5
S'position'
p6
I87
sS'width'
p7
I358
s(dp8
g6
I812
sg7
I371
stp9
sS'hhints'
p10
((dp11
g6
I-24
sg7
I257
s(dp12
g6
I696
sg7
I262
s(dp13
g6
I1220
sg7
I258
stp14
ss."
HStem: -24 257<514.164 758.538> 696 262<574.607 899> 1220 258<805.77 991.334>
VStem: 88 358<306.852 645.498> 813 371<287.077 641.009>
LayerCount: 2
Fore
SplineSet
1184 495 m 0
 1184 171 967 -24 637 -24 c 0
 302 -24 88 186 88 557 c 0
 88 1139 395 1444 988 1478 c 1
 1048 1220 l 1
 770 1194 587 1124 520 886 c 1
 590 927 677 958 772 958 c 0
 1026 958 1184 801 1184 495 c 0
446 477 m 0
 446 341 502 233 626 233 c 0
 785 233 813 329 813 482 c 0
 813 642 737 696 634 696 c 0
 452 696 446 603 446 477 c 0
EndSplineSet
EndChar

StartChar: slash
Encoding: 472 47 216
Width: 1126
VWidth: 0
GlyphClass: 1
Flags: HW
PickledData: "(dp1
S'com.fontlab.hintData'
p2
(dp3
S'vhints'
p4
((dp5
S'position'
p6
I131
sS'width'
p7
I285
s(dp8
g6
I672
sg7
I287
stp9
ss."
HStem: 1507 20G<666.5 959.706>
VStem: 131 285<-218 67> 673 287<1240 1527>
DStem2: 131.239 -218 416.239 -218 0.297355 0.954767<84.7462 1827.08>
LayerCount: 2
Fore
SplineSet
960 1527 m 1
 416 -218 l 1
 131 -218 l 1
 673 1527 l 1
 960 1527 l 1
EndSplineSet
EndChar

StartChar: sterling
Encoding: 474 163 218
Width: 1245
VWidth: 0
GlyphClass: 1
Flags: W
PickledData: "(dp1
S'com.fontlab.hintData'
p2
(dp3
S'vhints'
p4
((dp5
S'position'
p6
I240
sS'width'
p7
I360
stp8
sS'hhints'
p9
((dp10
g6
I-4
sg7
I279
s(dp11
g6
I11
sg7
I275
stp12
ss."
HStem: -4 279<108 261.163 572.251 1139.95> 11 275<111.421 279.554 569 845.6> 604 205<117 267 646 991> 1207.84 293.504<668.192 940.503>
VStem: 242.287 357.713<812.311 1142.49> 295.847 351.482<364.771 604>
LayerCount: 2
Fore
SplineSet
734.427914593 1501.34472544 m 0xb8
 883.296015265 1501.34472544 1035.79807884 1454.69660745 1093 1399 c 1
 1109 1096 l 1
 1040 1086 l 1
 982.590228561 1150.43953937 880.648453489 1207.84095748 781.597015454 1207.84095748 c 0
 690.173310397 1207.84095748 600 1135.26434114 600 1029 c 0xb8
 600 955 612 874 626 809 c 1
 991 809 l 1
 991 604 l 1
 646 604 l 1
 646.901301357 593.699413059 647.329289453 583.331125526 647.329289453 572.922503442 c 0
 647.329289453 472.913900931 607.818116184 369.181677536 569 286 c 1x74
 656 284 761 275 851 275 c 0
 943 275 1043 282 1136 300 c 1
 1184 33 l 1
 1076 4 959 -4 853 -4 c 0xb4
 696 -4 483 11 321 11 c 0x74
 253 11 181 6 108 -4 c 1
 108 263 l 1
 173 268.307692308 224 273.846153846 263 281 c 1
 286.447250664 340.286774493 295.847496351 398.823860748 295.847496351 464.198205357 c 0xb4
 295.847496351 507.133280348 291.792887537 553.017470598 285 604 c 1
 117 604 l 1
 117 809 l 1
 267 809 l 1
 250.635349764 885.095623596 242.286628652 957.08073307 242.286628652 1023.80547734 c 0
 242.286628652 1311.4565487 397.4460351 1501.34472544 734.427914593 1501.34472544 c 0xb8
EndSplineSet
EndChar

StartChar: summation
Encoding: 475 8721 219
Width: 1256
VWidth: 0
GlyphClass: 1
Flags: HW
HStem: -371 239<442.807 1211.21> 1201 232<477.87 1178.15>
DStem2: 52.0949 -207 442.807 -130 0.611025 0.791611<299.689 941.119> 477.87 1201 75.1369 1261 0.606842 -0.794823<0 617.552>
LayerCount: 2
Fore
SplineSet
1211 -371 m 1
 52 -371 l 1
 52 -207 l 1
 627 538 l 1
 75 1261 l 1
 75 1433 l 1
 1178 1433 l 1
 1178 1201 l 1
 478 1201 l 1
 643 990 800 771 961 556 c 1
 443 -130 l 1
 443 -132 l 1
 1211 -132 l 1
 1211 -371 l 1
EndSplineSet
EndChar

StartChar: t
Encoding: 476 116 220
Width: 882
VWidth: 0
GlyphClass: 1
Flags: W
PickledData: "(dp1
S'com.fontlab.hintData'
p2
(dp3
S'vhints'
p4
((dp5
S'position'
p6
I148
sS'width'
p7
I360
stp8
sS'hhints'
p9
((dp10
g6
I-14
sg7
I258
s(dp11
g6
I860
sg7
I236
stp12
ss."
HStem: -14 258<393.5 777.399> 862 236<18 148 508 780>
VStem: 148 360<271.375 862 1098 1369>
LayerCount: 2
Fore
SplineSet
148 349 m 2
 148 862 l 1
 18 862 l 1
 18 1098 l 1
 148 1098 l 1
 148 1369 l 1
 508 1442 l 1
 508 1098 l 1
 780 1098 l 1
 780 862 l 1
 508 862 l 1
 508 382 l 2
 508 271 576 244 657 244 c 0
 697 244 740 250 780 257 c 1
 780 6 l 1
 709 -8 643 -14 526 -14 c 0
 261 -14 148 97 148 349 c 2
EndSplineSet
EndChar

StartChar: thorn
Encoding: 477 254 221
Width: 1063
VWidth: 0
GlyphClass: 1
Flags: HW
PickledData: "(dp1
S'com.fontlab.hintData'
p2
(dp3
S'vhints'
p4
((dp5
S'position'
p6
I135
sS'width'
p7
I209
s(dp8
g6
I756
sg7
I209
stp9
sS'hhints'
p10
((dp11
g6
I-12
sg7
I209
s(dp12
g6
I842
sg7
I209
stp13
ss."
HStem: -420 21G<135.246 344.246> -12 209<449.771 685.235> 842 209<444.301 685.235>
VStem: 135 209<-420 111 274.195 764.579 930 1458> 757 209<273.279 767.91>
LayerCount: 2
Fore
SplineSet
550 197 m 0
 746 197 757 358 757 518 c 0
 757 680 746 842 550 842 c 0
 355 842 344 670 344 518 c 0
 344 369 355 197 550 197 c 0
135 -420 m 1
 135 1458 l 1
 344 1458 l 1
 344 930 l 1
 410 1001 507 1051 613 1051 c 0
 740 1051 832 993 892 915 c 0
 949 842 966 774 966 518 c 0
 966 264 949 197 892 123 c 0
 832 45 740 -12 613 -12 c 0
 507 -12 422 37 344 111 c 1
 344 -420 l 1
 135 -420 l 1
EndSplineSet
EndChar

StartChar: three
Encoding: 478 51 222
Width: 1246
VWidth: 0
GlyphClass: 1
Flags: W
PickledData: "(dp1
S'com.fontlab.hintData'
p2
(dp3
S'vhints'
p4
((dp5
S'position'
p6
I746
sS'width'
p7
I375
s(dp8
g6
I795
sg7
I379
stp9
sS'hhints'
p10
((dp11
g6
I-24
sg7
I290
s(dp12
g6
I663
sg7
I229
s(dp13
g6
I1214
sg7
I289
stp14
ss."
HStem: -24 290<310.636 692.974> 663 229<403 690.636> 1214 289<334.079 686.856>
VStem: 796 379<349.666 605.438>
LayerCount: 2
Fore
SplineSet
1175 450 m 0
 1175 170 957 -24 573 -24 c 0
 346.917197452 -24 207.713375796 26 108 97 c 1
 108 410 l 1
 165 410 l 1
 241.398150686 334.797900713 352.741547606 270.342476754 496 266 c 1
 628 263 796 298 796 483 c 0
 796 608 722 663 543 663 c 2
 403 663 l 1
 403 892 l 1
 465 892 l 2
 633 892 747 920 747 1060 c 0
 747 1182 607 1214 522 1214 c 0
 395.393393393 1214 270.828828829 1153 182 1067 c 1
 108 1067 l 1
 108 1373 l 1
 202.206941432 1440 401.477593333 1503 577 1503 c 0
 931 1503 1108 1357 1122 1143 c 0
 1135.63269551 931.69321965 1026.17464704 830.5065294 897 773 c 1
 1026 733 1175 637 1175 450 c 0
EndSplineSet
EndChar

StartChar: three.superior
Encoding: 479 179 223
Width: 639
VWidth: 0
GlyphClass: 1
Flags: HW
PickledData: "(dp1
S'com.fontlab.hintData'
p2
(dp3
S'vhints'
p4
((dp5
S'position'
p6
I16
sS'width'
p7
I172
s(dp8
g6
I457
sg7
I172
stp9
sS'hhints'
p10
((dp11
g6
I580
sg7
I147
s(dp12
g6
I971
sg7
I135
s(dp13
g6
I1323
sg7
I147
stp14
ss."
HStem: 580 147<214.186 429.112> 973 135<233.111 421.452> 1323 147<220.383 421.471>
VStem: 16 172<1217.98 1289.53> 458 172<756.218 936.844 1144.63 1288.59>
LayerCount: 2
Fore
SplineSet
233 973 m 1
 233 1108 l 1
 299 1108 l 2
 389 1108 446 1151 446 1220 c 0
 446 1276 393 1323 326 1323 c 0
 262 1323 205 1288 188 1218 c 1
 16 1218 l 1
 27 1364 143 1470 307 1470 c 0
 508 1470 619 1348 619 1222 c 0
 619 1156 597 1089 515 1042 c 1
 599 995 630 921 630 849 c 0
 630 686 502 580 311 580 c 0
 152 580 37 659 10 826 c 1
 182 826 l 1
 203 767 250 727 322 727 c 0
 399 727 458 772 458 845 c 0
 458 922 391 973 309 973 c 2
 233 973 l 1
EndSplineSet
EndChar

StartChar: threequarters
Encoding: 480 190 224
Width: 1478
VWidth: 0
GlyphClass: 1
Flags: HW
PickledData: "(dp1
S'com.fontlab.hintData'
p2
(dp3
S'vhints'
p4
((dp5
S'position'
p6
I16
sS'width'
p7
I172
s(dp8
g6
I260
sg7
I135
s(dp9
g6
I457
sg7
I172
s(dp10
g6
I1143
sg7
I135
stp11
sS'hhints'
p12
((dp13
g6
I580
sg7
I147
s(dp14
g6
I971
sg7
I135
s(dp15
g6
I1323
sg7
I147
stp16
ss."
HStem: 0 21G<1172.21 1344.21> 127 147<948.856 1172.21 1344.21 1412.34> 581 147<214.131 428.918> 973 135<233.111 421.246> 1323 147<220.326 421.276> 1473 20G<1132.64 1279.21>
VStem: 16 172<1218.08 1289.66> 260 135<-35 100> 457 172<757.206 937.09 1143.18 1288.73> 1144 135<1358 1493> 1172 172<0.0983146 127.455 274.455 501.09>
DStem2: 260.161 -35 395.161 -35 0.50079 0.865569<67.6066 1765.31> 770.531 274.455 948.856 274.455 0.469482 0.882942<83.7203 676.444>
LayerCount: 2
Fore
SplineSet
233 973 m 1xff80
 233 1108 l 1
 299 1108 l 2
 389 1108 446 1151 446 1220 c 0
 446 1277 393 1323 326 1323 c 0
 262 1323 205 1288 188 1218 c 1
 16 1218 l 1
 27 1364 143 1470 307 1470 c 0
 508 1470 618 1348 618 1222 c 0
 618 1156 596 1089 514 1042 c 1
 598 995 629 922 629 850 c 0
 629 688 502 581 311 581 c 0
 152 581 37 661 10 827 c 1
 182 827 l 1
 203 768 250 728 322 728 c 0
 399 728 457 774 457 846 c 0
 457 922 391 973 309 973 c 2
 233 973 l 1xff80
771 127 m 1
 771 274 l 1
 1088 872 l 1
 1261 872 l 1
 949 274 l 1
 1172 274 l 1
 1172 501 l 1
 1344 501 l 1
 1344 274 l 1
 1412 274 l 1
 1412 127 l 1
 1344 127 l 1
 1344 0 l 1
 1172 0 l 1
 1172 127 l 1xffa0
 771 127 l 1
260 -35 m 1
 1144 1493 l 1
 1279 1493 l 1xffc0
 395 -35 l 1
 260 -35 l 1
EndSplineSet
EndChar

StartChar: tilde
Encoding: 481 732 225
Width: 894
VWidth: 0
GlyphClass: 1
Flags: HW
PickledData: "(dp1
S'com.fontlab.hintData'
p2
(dp3
S'vhints'
p4
((dp5
S'position'
p6
I675
sS'width'
p7
I211
stp8
sS'hhints'
p9
((dp10
g6
I1256
sg7
I200
stp11
ss."
HStem: 1256 200<453.044 662.97>
VStem: 676 211<1468.17 1552>
LayerCount: 2
Fore
SplineSet
887 1552 m 1
 871 1359 777 1256 600 1256 c 0
 507 1256 437 1308 364 1327 c 1
 338 1338 309 1342 282 1332 c 1
 233 1328 222 1299 219 1247 c 1
 9 1247 l 1
 20 1419 128 1543 298 1543 c 0
 365 1543 421 1511 477 1491 c 0
 512 1479 560 1456 585 1456 c 0
 642 1456 669 1484 676 1552 c 1
 887 1552 l 1
EndSplineSet
EndChar

StartChar: trademark
Encoding: 482 8482 226
Width: 1871
VWidth: 0
GlyphClass: 1
Flags: HW
HStem: 723 756<284.518 486.518 824.133 1014.13 1583.17 1773.17> 1314 165<65.1186 284.518 486.518 706.92 1014.13 1033.17 1568.14 1583.17>
VStem: 285 202<723 1314> 824 190<723 1308> 1583 190<723 1303>
DStem2: 1136.36 1479 1033.17 1308 0.386584 -0.922254<117.815 463.626> 1302.66 1046 1368.78 830 0.388397 0.921492<0 339.936>
LayerCount: 2
Fore
SplineSet
1773 723 m 1xb8
 1583 723 l 1
 1583 1303 l 1
 1568 1303 l 1
 1369 830 l 1
 1234 830 l 1
 1033 1308 l 1
 1014 1308 l 1
 1014 723 l 1
 824 723 l 1
 824 1479 l 1xb8
 1136 1479 l 1
 1303 1046 l 1
 1475 1479 l 1x78
 1773 1479 l 1
 1773 723 l 1xb8
707 1314 m 1x78
 487 1314 l 1x78
 487 723 l 1
 285 723 l 1xb8
 285 1314 l 1
 65 1314 l 1
 65 1479 l 1
 707 1479 l 1
 707 1314 l 1x78
EndSplineSet
EndChar

StartChar: two
Encoding: 483 50 227
Width: 1245
VWidth: 0
GlyphClass: 1
Flags: W
PickledData: "(dp1
S'com.fontlab.hintData'
p2
(dp3
S'vhints'
p4
((dp5
S'position'
p6
I767
sS'width'
p7
I382
stp8
sS'hhints'
p9
((dp10
g6
I1199
sg7
I303
stp11
ss."
HStem: 0 284<613 1197> 1101 21G<219.307 252.5> 1199 303<353.195 710.183>
VStem: 768 382<867.767 1141.35>
LayerCount: 2
Fore
SplineSet
1197 0 m 1
 125 0 l 1
 125 235 l 1
 309 392 460 531 575 664 c 0
 671 776 768 906 768 1010 c 0
 768 1154 679 1199 572 1199 c 0
 440 1199 280 1131 225 1101 c 1
 149 1368 l 1
 224 1434 445 1502 614 1502 c 0
 959 1502 1150 1327 1150 1053 c 0
 1150 966 1122 869 1061 774 c 0
 951 603 811 438 613 284 c 1
 1197 284 l 1
 1197 0 l 1
EndSplineSet
EndChar

StartChar: two.superior
Encoding: 484 178 228
Width: 639
VWidth: 0
GlyphClass: 1
Flags: HW
PickledData: "(dp1
S'com.fontlab.hintData'
p2
(dp3
S'vhints'
p4
((dp5
S'position'
p6
I37
sS'width'
p7
I172
s(dp8
g6
I436
sg7
I172
stp9
sS'hhints'
p10
((dp11
g6
I1323
sg7
I147
stp12
ss."
HStem: 588 147<240.124 608.482> 1323 147<237.396 417.123>
VStem: 37 172<1196 1295.29> 436 172<1120.4 1302.23>
DStem2: 31.0566 735 240.124 735 0.683376 0.730066<142.872 629.073>
LayerCount: 2
Fore
SplineSet
31 588 m 1
 31 735 l 1
 391 1120 l 2
 420 1151 436 1180 436 1219 c 0
 436 1280 393 1323 324 1323 c 0
 254 1323 215 1274 209 1196 c 1
 37 1196 l 1
 37 1360 158 1470 317 1470 c 0
 489 1470 608 1358 608 1219 c 0
 608 1161 594 1110 543 1055 c 2
 240 735 l 1
 608 735 l 1
 608 588 l 1
 31 588 l 1
EndSplineSet
EndChar

StartChar: u
Encoding: 485 117 229
Width: 1294
VWidth: 0
GlyphClass: 1
Flags: HW
PickledData: "(dp1
S'com.fontlab.hintData'
p2
(dp3
S'vhints'
p4
((dp5
S'position'
p6
I119
sS'width'
p7
I362
stp8
ss."
HStem: 0 21G<809.816 1168.82> 1078 20G<119.217 481.217 809.816 1168.82>
VStem: 119 362<325.822 1098> 810 359<0.0428571 160.329 301.82 1098>
LayerCount: 2
Fore
SplineSet
119 1098 m 1
 481 1098 l 1
 481 545 l 2
 481 364 507 271 654 271 c 0
 714 271 767 292 810 338 c 1
 810 1098 l 1
 1169 1098 l 1
 1169 0 l 1
 810 0 l 1
 810 160 l 1
 808 160 l 1
 739 40 610 -24 478 -24 c 0
 301 -24 119 101 119 362 c 2
 119 1098 l 1
EndSplineSet
EndChar

StartChar: underscore
Encoding: 490 95 234
Width: 1269
VWidth: 0
GlyphClass: 1
Flags: HW
PickledData: "(dp1
S'com.fontlab.hintData'
p2
(dp3
S'hhints'
p4
((dp5
S'position'
p6
I-325
sS'width'
p7
I188
stp8
ss."
HStem: -325 188<-14.0255 1283.34>
LayerCount: 2
Fore
SplineSet
1283 -325 m 1
 -14 -325 l 1
 -14 -137 l 1
 1283 -137 l 1
 1283 -325 l 1
EndSplineSet
EndChar

StartChar: uni00AD
Encoding: 492 173 236
Width: 834
VWidth: 0
GlyphClass: 1
Flags: HW
PickledData: "(dp1
S'com.fontlab.hintData'
p2
(dp3
S'vhints'
p4
((dp5
S'position'
p6
I109
sS'width'
p7
I616
stp8
sS'hhints'
p9
((dp10
g6
I463
sg7
I209
stp11
ss."
HStem: 463 209<109 725>
VStem: 109 616<463 672>
LayerCount: 2
Fore
SplineSet
109 463 m 1
 109 672 l 1
 725 672 l 1
 725 463 l 1
 109 463 l 1
EndSplineSet
EndChar

StartChar: uni02C9
Encoding: 493 713 237
Width: 492
VWidth: 0
GlyphClass: 1
Flags: HW
PickledData: "(dp1
S'com.fontlab.hintData'
p2
(dp3
S'vhints'
p4
((dp5
S'position'
p6
I-49
sS'width'
p7
I590
stp8
sS'hhints'
p9
((dp10
g6
I1243
sg7
I135
stp11
ss."
HStem: 1243 135<-49 541>
VStem: -49 590<1243 1378>
LayerCount: 2
Fore
SplineSet
-49 1243 m 1
 -49 1378 l 1
 541 1378 l 1
 541 1243 l 1
 -49 1243 l 1
EndSplineSet
EndChar

StartChar: uni03A9
Encoding: 494 937 238
Width: 1242
VWidth: 0
GlyphClass: 1
Flags: HW
PickledData: "(dp1
S'com.fontlab.hintData'
p2
(dp3
S'vhints'
p4
((dp5
S'position'
p6
I96
sS'width'
p7
I203
s(dp8
g6
I938
sg7
I203
stp9
sS'hhints'
p10
((dp11
g6
I1274
sg7
I178
stp12
ss."
HStem: 0 170<72.1314 317.208 919.305 1166.39> 1274 178<484.671 761.355>
VStem: 96 203<498.811 1022.02> 939 203<505.446 1027.45>
LayerCount: 2
Fore
SplineSet
317 170 m 1
 317 176 l 1
 203 307 96 518 96 786 c 0
 96 1165 316 1452 628 1452 c 0
 962 1452 1142 1120 1142 801 c 0
 1142 526 1029 299 919 176 c 1
 919 170 l 1
 1166 170 l 1
 1166 0 l 1
 720 0 l 1
 720 125 l 1
 832 215 939 430 939 754 c 0
 939 1012 837 1274 624 1274 c 0
 423 1274 299 1049 299 745 c 0
 299 446 409 213 519 125 c 1
 519 0 l 1
 72 0 l 1
 72 170 l 1
 317 170 l 1
EndSplineSet
EndChar

StartChar: uni03BC
Encoding: 495 956 239
Width: 1100
VWidth: 0
GlyphClass: 1
Flags: HW
PickledData: "(dp1
S'com.fontlab.hintData'
p2
(dp3
S'vhints'
p4
((dp5
S'position'
p6
I135
sS'width'
p7
I209
s(dp8
g6
I756
sg7
I209
stp9
sS'hhints'
p10
((dp11
g6
I-12
sg7
I209
stp12
ss."
HStem: -420 21G<135.246 344.246> -12 209<420.644 659.596>
VStem: 135 209<-420 18 274.961 1040> 757 209<0 111 274.961 1040>
LayerCount: 2
Fore
SplineSet
135 -420 m 1
 135 1040 l 1
 344 1040 l 1
 344 421 l 2
 344 280 433 197 552 197 c 0
 669 197 757 280 757 421 c 2
 757 1040 l 1
 966 1040 l 1
 966 0 l 1
 757 0 l 1
 757 111 l 1
 753 111 l 1
 687 29 593 -12 484 -12 c 0
 437 -12 389 -2 344 18 c 1
 344 -420 l 1
 135 -420 l 1
EndSplineSet
EndChar

StartChar: uni2215
Encoding: 496 8725 240
Width: 343
VWidth: 0
GlyphClass: 1
Flags: HW
PickledData: "(dp1
S'com.fontlab.hintData'
p2
(dp3
S'vhints'
p4
((dp5
S'position'
p6
I-338
sS'width'
p7
I135
s(dp8
g6
I545
sg7
I135
stp9
ss."
HStem: 1473 20G<534.419 680.995>
VStem: -338 135<-35 100> 546 135<1358 1493>
DStem2: -338.37 -35 -203.37 -35 0.500923 0.865492<67.6246 1765.47>
LayerCount: 2
Fore
SplineSet
-338 -35 m 1
 546 1493 l 1
 681 1493 l 1
 -203 -35 l 1
 -338 -35 l 1
EndSplineSet
EndChar

StartChar: uni2219
Encoding: 497 8729 241
Width: 492
VWidth: 0
GlyphClass: 1
Flags: HW
PickledData: "(dp1
S'com.fontlab.hintData'
p2
(dp3
S'vhints'
p4
((dp5
S'position'
p6
I109
sS'width'
p7
I274
stp8
sS'hhints'
p9
((dp10
g6
I461
sg7
I274
stp11
ss."
HStem: 461 274<144.472 347.528>
VStem: 109 274<496.472 699.528>
LayerCount: 2
Fore
SplineSet
109 598 m 0
 109 674 170 735 246 735 c 0
 322 735 383 674 383 598 c 0
 383 522 322 461 246 461 c 0
 170 461 109 522 109 598 c 0
EndSplineSet
EndChar

StartChar: v
Encoding: 498 118 242
Width: 1129
VWidth: 0
GlyphClass: 1
Flags: HW
HStem: 0 21G<367.958 759.133> 1078 20G<-21.5383 384.201 744.818 1150.6>
LayerCount: 2
Fore
SplineSet
1150.5 1098 m 1
 751.5 0 l 1
 375.5 0 l 1
 -21.5 1098 l 1
 355.5 1098 l 1
 413.5 911 467.5 728 524.5 542 c 2
 567.5 400 l 1
 569.5 400 l 1
 641.5 630 709.5 865 779.5 1098 c 1
 1150.5 1098 l 1
EndSplineSet
EndChar

StartChar: w
Encoding: 499 119 243
Width: 1821
VWidth: 0
GlyphClass: 1
Flags: HW
HStem: 0 21G<337.011 725.003 1093.36 1481.35> 1078 20G<7.51277 391.59 732.834 1080 1434.63 1813.8>
DStem2: 1203.69 632.151 911.159 729.328 0.265249 -0.96418<-171.29 271.943>
LayerCount: 2
Fore
SplineSet
1813.5 1098 m 1
 1475.5 0 l 1
 1098.5 0 l 1
 911.5 729 l 1
 909.5 729 l 1
 719.5 0 l 1
 343.5 0 l 1
 7.5 1098 l 1
 387.5 1098 l 1
 487.5 641 l 2
 500.5 578 514.5 516 527.5 454 c 2
 547.5 362 l 1
 548.5 362 l 1
 574.5 456 l 1
 632.5 671 699.5 885 765.5 1098 c 1
 1074.5 1098 l 1
 1203.5 632 l 1
 1217.5 572 1257.5 414 1274.5 370 c 1
 1282.5 409 1291.5 449 1301.5 487 c 1
 1439.5 1098 l 1
 1813.5 1098 l 1
EndSplineSet
EndChar

StartChar: x
Encoding: 500 120 244
Width: 1208
VWidth: 0
GlyphClass: 1
Flags: HW
HStem: 0 21G<-13.0237 422.77 779.42 1221.22> 1078 20G<-3.00547 429.348 771.906 1211.21>
LayerCount: 2
Fore
SplineSet
1221 0 m 1
 802 0 l 1
 756 70 712 139 667 208 c 2
 605 303 l 1
 578 262 551 220 524 179 c 0
 483 119 443 60 403 0 c 1
 -13 0 l 1
 392 553 l 1
 -3 1098 l 1
 417 1098 l 1
 541 901 l 2
 561 869 584 835 604 802 c 1
 663 894 l 2
 706 962 750 1030 793 1098 c 1
 1211 1098 l 1
 819 559 l 1
 1221 0 l 1
EndSplineSet
EndChar

StartChar: y
Encoding: 501 121 245
Width: 1123
VWidth: 0
GlyphClass: 1
Flags: HW
PickledData: "(dp1
S'com.fontlab.hintData'
p2
(dp3
S'vhints'
p4
((dp5
S'position'
p6
I-25
sS'width'
p7
I377
stp8
sS'hhints'
p9
((dp10
g6
I-416
sg7
I21
s(dp11
g6
I1076
sg7
I20
stp12
ss."
HStem: -416 21G<223.905 568.394> 1078 20G<-25 358.483 770.706 1148.45>
VStem: -25 377<721 1098>
LayerCount: 2
Fore
SplineSet
191 -416 m 1
 257 -288 319 -146 379 26 c 1
 -25 1098 l 1
 352 1098 l 1
 571 421 l 1
 777 1098 l 1
 1148 1098 l 1
 707 -109 l 2
 656 -248 569 -417 568 -416 c 1
 191 -416 l 1
EndSplineSet
EndChar

StartChar: yen
Encoding: 504 165 248
Width: 1245
VWidth: 0
GlyphClass: 1
Flags: HW
HStem: 0 21G<440.803 802.803> 445 205<132.241 440.803 802.803 1111.36> 1459 20G<-21.0383 401.275 856.435 1267.65>
VStem: 441 362<0 445>
LayerCount: 2
Fore
SplineSet
112 930 m 1
 1231 930 l 1
 1231 725 l 1
 112 725 l 1
 112 930 l 1
112 600 m 1
 1231 600 l 1
 1231 395 l 1
 112 395 l 1
 112 600 l 1
EndSplineSet
Refer: 59 89 N 1 0 0 1 0 0 2
EndChar

StartChar: z
Encoding: 505 122 249
Width: 1063
VWidth: 0
GlyphClass: 1
Flags: HW
HStem: 0 272<488.891 1017.85> 835 263<74.135 567.033>
DStem2: 46.0839 234 488.891 272 0.65499 0.755638<318.748 795.354>
LayerCount: 2
Fore
SplineSet
1018 0 m 1
 46 0 l 1
 46 234 l 1
 567 835 l 1
 74 835 l 1
 74 1098 l 1
 1011 1098 l 1
 1011 867 l 1
 489 272 l 1
 1018 272 l 1
 1018 0 l 1
EndSplineSet
EndChar

StartChar: zero
Encoding: 507 48 251
Width: 1442
VWidth: 0
GlyphClass: 1
Flags: W
PickledData: "(dp1
S'com.fontlab.hintData'
p2
(dp3
S'vhints'
p4
((dp5
S'position'
p6
I146
sS'width'
p7
I380
s(dp8
g6
I917
sg7
I380
stp9
sS'hhints'
p10
((dp11
g6
I-24
sg7
I250
s(dp12
g6
I1222
sg7
I280
stp13
ss."
HStem: -24 250<610.084 835.155> 1222 280<608.837 836.544>
VStem: 146 380<330.907 1119.62> 918 380<330.907 1119.62>
LayerCount: 2
Fore
SplineSet
723 -24 m 0
 408 -24 213 127 168 410 c 1
 152 523 146 647 146 779 c 0
 146 882 153 978 168 1065 c 0
 213 1344 406 1502 723 1502 c 0
 1039 1502 1231 1344 1276 1065 c 1
 1291 952 1298 830 1298 701 c 0
 1298 595 1291 497 1276 410 c 0
 1230 127 1036 -24 723 -24 c 0
723 226 m 0
 895 226 918 408 918 741 c 0
 918 1062 889 1222 723 1222 c 0
 556 1222 526 1062 526 741 c 0
 526 408 550 226 723 226 c 0
EndSplineSet
EndChar
